<svg width="15.544" height="6.717" viewBox="0 0 15.544 6.717" xmlns="http://www.w3.org/2000/svg"><g id="svgGroup" stroke-linecap="round" fill-rule="evenodd" font-size="9pt" stroke="#000" stroke-width="0.095mm" fill="#000" style="stroke:#000;stroke-width:0.095mm;fill:#000"><path d="M 14.575 4.152 L 11.439 4.152 L 11.439 3.277 L 15.544 3.277 L 15.544 4.152 A 6.433 6.433 0 0 1 15.511 4.828 Q 15.437 5.527 15.195 5.92 A 1.082 1.082 0 0 1 14.86 6.272 A 1.684 1.684 0 0 1 14.44 6.456 Q 13.593 6.717 11.687 6.717 A 17.142 17.142 0 0 1 10.679 6.69 Q 9.017 6.591 8.503 6.137 A 1.324 1.324 0 0 1 8.187 5.683 Q 7.866 4.974 7.849 3.502 A 14.411 14.411 0 0 1 7.849 3.344 Q 7.849 1.282 8.417 0.646 A 0.974 0.974 0 0 1 8.503 0.561 A 1.451 1.451 0 0 1 8.944 0.316 Q 9.675 0.041 11.209 0.005 A 20.521 20.521 0 0 1 11.687 0 A 27.193 27.193 0 0 1 12.56 0.013 Q 13.958 0.058 14.595 0.259 A 1.571 1.571 0 0 1 14.869 0.371 A 1.076 1.076 0 0 1 15.298 0.843 Q 15.499 1.242 15.536 1.905 A 5.606 5.606 0 0 1 15.544 2.215 L 14.575 2.215 Q 14.575 1.273 14.118 1.074 A 1.367 1.367 0 0 0 13.858 1.002 Q 13.246 0.884 11.687 0.884 Q 9.577 0.884 9.196 1.218 Q 8.818 1.549 8.818 3.354 Q 8.818 5.149 9.208 5.492 A 0.771 0.771 0 0 0 9.46 5.625 Q 10.055 5.833 11.687 5.833 Q 13.728 5.833 14.157 5.597 A 0.578 0.578 0 0 0 14.375 5.358 Q 14.575 4.987 14.575 4.152 Z M 0 6.594 L 0 0.095 L 6.223 0.095 L 6.223 0.969 L 0.969 0.969 L 0.969 2.86 L 6.042 2.86 L 6.042 3.734 L 0.969 3.734 L 0.969 5.719 L 6.223 5.719 L 6.223 6.594 L 0 6.594 Z" vector-effect="non-scaling-stroke"/></g></svg>