%TF.GenerationSoftware,KiCad,Pcbnew,(6.0.5-0)*%
%TF.CreationDate,2025-01-27T20:14:51-05:00*%
%TF.ProjectId,PICOGAUGEADAPTER,5049434f-4741-4554-9745-414441505445,rev?*%
%TF.SameCoordinates,Original*%
%TF.FileFunction,Soldermask,Top*%
%TF.FilePolarity,Negative*%
%FSLAX46Y46*%
G04 Gerber Fmt 4.6, Leading zero omitted, Abs format (unit mm)*
G04 Created by KiCad (PCBNEW (6.0.5-0)) date 2025-01-27 20:14:51*
%MOMM*%
%LPD*%
G01*
G04 APERTURE LIST*
G04 Aperture macros list*
%AMRoundRect*
0 Rectangle with rounded corners*
0 $1 Rounding radius*
0 $2 $3 $4 $5 $6 $7 $8 $9 X,Y pos of 4 corners*
0 Add a 4 corners polygon primitive as box body*
4,1,4,$2,$3,$4,$5,$6,$7,$8,$9,$2,$3,0*
0 Add four circle primitives for the rounded corners*
1,1,$1+$1,$2,$3*
1,1,$1+$1,$4,$5*
1,1,$1+$1,$6,$7*
1,1,$1+$1,$8,$9*
0 Add four rect primitives between the rounded corners*
20,1,$1+$1,$2,$3,$4,$5,0*
20,1,$1+$1,$4,$5,$6,$7,0*
20,1,$1+$1,$6,$7,$8,$9,0*
20,1,$1+$1,$8,$9,$2,$3,0*%
G04 Aperture macros list end*
%ADD10C,0.000000*%
%ADD11R,0.550000X0.600000*%
%ADD12RoundRect,0.135000X-0.185000X0.135000X-0.185000X-0.135000X0.185000X-0.135000X0.185000X0.135000X0*%
%ADD13RoundRect,0.135000X0.185000X-0.135000X0.185000X0.135000X-0.185000X0.135000X-0.185000X-0.135000X0*%
%ADD14RoundRect,0.140000X0.140000X0.170000X-0.140000X0.170000X-0.140000X-0.170000X0.140000X-0.170000X0*%
%ADD15RoundRect,0.150000X0.625000X-0.150000X0.625000X0.150000X-0.625000X0.150000X-0.625000X-0.150000X0*%
%ADD16RoundRect,0.250000X0.650000X-0.350000X0.650000X0.350000X-0.650000X0.350000X-0.650000X-0.350000X0*%
%ADD17RoundRect,0.135000X0.135000X0.185000X-0.135000X0.185000X-0.135000X-0.185000X0.135000X-0.185000X0*%
%ADD18RoundRect,0.135000X-0.135000X-0.185000X0.135000X-0.185000X0.135000X0.185000X-0.135000X0.185000X0*%
%ADD19R,0.457200X0.977900*%
%ADD20RoundRect,0.140000X-0.170000X0.140000X-0.170000X-0.140000X0.170000X-0.140000X0.170000X0.140000X0*%
%ADD21R,0.800000X1.000000*%
%ADD22C,0.900000*%
%ADD23R,1.500000X0.700000*%
%ADD24O,3.000000X1.100000*%
G04 APERTURE END LIST*
D10*
G36*
X159366658Y-99717044D02*
G01*
X157976537Y-99717044D01*
X157976537Y-100217371D01*
X159318768Y-100217371D01*
X159318768Y-100448617D01*
X157976537Y-100448617D01*
X157976537Y-100973815D01*
X159366658Y-100973815D01*
X159366658Y-101205325D01*
X157720156Y-101205325D01*
X157720156Y-99485798D01*
X159366658Y-99485798D01*
X159366658Y-99717044D01*
G37*
G36*
X160870077Y-99460829D02*
G01*
X160927826Y-99461457D01*
X160985566Y-99462548D01*
X161043287Y-99464103D01*
X161132624Y-99467724D01*
X161215667Y-99472635D01*
X161292415Y-99478837D01*
X161362869Y-99486328D01*
X161427029Y-99495108D01*
X161484895Y-99505179D01*
X161536469Y-99516540D01*
X161581750Y-99529190D01*
X161591104Y-99532140D01*
X161600383Y-99535309D01*
X161609582Y-99538694D01*
X161618697Y-99542295D01*
X161627725Y-99546110D01*
X161636661Y-99550138D01*
X161645503Y-99554376D01*
X161654245Y-99558823D01*
X161663424Y-99564465D01*
X161672361Y-99570434D01*
X161681048Y-99576723D01*
X161689477Y-99583322D01*
X161697641Y-99590224D01*
X161705532Y-99597420D01*
X161713142Y-99604902D01*
X161720465Y-99612661D01*
X161727491Y-99620689D01*
X161734214Y-99628978D01*
X161740626Y-99637518D01*
X161746719Y-99646302D01*
X161752486Y-99655321D01*
X161757919Y-99664568D01*
X161763010Y-99674032D01*
X161767752Y-99683707D01*
X161774230Y-99697176D01*
X161780369Y-99711190D01*
X161786169Y-99725751D01*
X161791630Y-99740857D01*
X161796752Y-99756508D01*
X161801536Y-99772706D01*
X161805980Y-99789449D01*
X161810085Y-99806738D01*
X161813851Y-99824573D01*
X161817278Y-99842953D01*
X161820367Y-99861879D01*
X161823116Y-99881350D01*
X161825526Y-99901368D01*
X161827597Y-99921931D01*
X161829329Y-99943040D01*
X161830723Y-99964694D01*
X161831677Y-99985187D01*
X161832348Y-100005690D01*
X161832735Y-100026201D01*
X161832839Y-100046715D01*
X161576458Y-100046715D01*
X161575985Y-100016328D01*
X161574568Y-99987477D01*
X161572207Y-99960162D01*
X161568901Y-99934383D01*
X161564650Y-99910139D01*
X161559454Y-99887432D01*
X161553314Y-99866260D01*
X161546229Y-99846624D01*
X161538200Y-99828524D01*
X161529226Y-99811959D01*
X161519307Y-99796931D01*
X161508443Y-99783438D01*
X161496635Y-99771481D01*
X161483883Y-99761060D01*
X161470185Y-99752175D01*
X161455543Y-99744825D01*
X161447164Y-99741704D01*
X161438715Y-99738791D01*
X161430198Y-99736090D01*
X161421619Y-99733599D01*
X161412980Y-99731322D01*
X161404287Y-99729258D01*
X161395543Y-99727409D01*
X161386752Y-99725776D01*
X161342356Y-99718458D01*
X161290129Y-99712116D01*
X161230073Y-99706750D01*
X161162187Y-99702360D01*
X161086470Y-99698945D01*
X161002924Y-99696506D01*
X160911548Y-99695042D01*
X160812341Y-99694555D01*
X160679921Y-99695935D01*
X160561797Y-99700078D01*
X160457969Y-99706982D01*
X160368437Y-99716647D01*
X160329031Y-99722516D01*
X160293200Y-99729075D01*
X160260942Y-99736324D01*
X160232259Y-99744263D01*
X160207149Y-99752893D01*
X160185614Y-99762214D01*
X160167652Y-99772224D01*
X160153264Y-99782925D01*
X160147111Y-99788780D01*
X160141153Y-99795396D01*
X160135391Y-99802774D01*
X160129824Y-99810913D01*
X160124452Y-99819815D01*
X160119276Y-99829478D01*
X160109509Y-99851089D01*
X160100523Y-99875747D01*
X160092319Y-99903451D01*
X160084896Y-99934203D01*
X160078255Y-99968002D01*
X160072395Y-100004847D01*
X160067316Y-100044739D01*
X160063018Y-100087678D01*
X160059502Y-100133664D01*
X160056768Y-100182696D01*
X160054814Y-100234776D01*
X160053642Y-100289902D01*
X160053252Y-100348075D01*
X160054864Y-100460805D01*
X160059701Y-100561528D01*
X160063328Y-100607388D01*
X160067762Y-100650246D01*
X160073002Y-100690103D01*
X160079049Y-100726959D01*
X160085901Y-100760813D01*
X160093559Y-100791666D01*
X160102024Y-100819517D01*
X160111295Y-100844368D01*
X160121372Y-100866216D01*
X160132255Y-100885064D01*
X160143944Y-100900910D01*
X160156439Y-100913755D01*
X160160192Y-100916667D01*
X160164009Y-100919488D01*
X160167886Y-100922217D01*
X160171824Y-100924854D01*
X160175819Y-100927397D01*
X160179871Y-100929846D01*
X160183977Y-100932199D01*
X160188137Y-100934456D01*
X160192347Y-100936617D01*
X160196608Y-100938679D01*
X160200916Y-100940642D01*
X160205270Y-100942506D01*
X160209668Y-100944269D01*
X160214110Y-100945930D01*
X160218592Y-100947489D01*
X160223114Y-100948944D01*
X160243864Y-100955608D01*
X160266758Y-100961843D01*
X160291795Y-100967647D01*
X160318976Y-100973021D01*
X160348300Y-100977966D01*
X160379768Y-100982480D01*
X160413380Y-100986565D01*
X160449134Y-100990219D01*
X160527075Y-100996238D01*
X160613590Y-101000538D01*
X160708678Y-101003118D01*
X160812341Y-101003978D01*
X160940681Y-101003002D01*
X161055692Y-101000075D01*
X161157374Y-100995197D01*
X161245729Y-100988367D01*
X161320755Y-100979586D01*
X161382452Y-100968854D01*
X161408303Y-100962756D01*
X161430821Y-100956171D01*
X161450008Y-100949097D01*
X161465862Y-100941536D01*
X161470464Y-100938615D01*
X161474950Y-100935539D01*
X161479315Y-100932311D01*
X161483557Y-100928936D01*
X161487671Y-100925417D01*
X161491655Y-100921758D01*
X161495504Y-100917963D01*
X161499216Y-100914036D01*
X161502786Y-100909979D01*
X161506212Y-100905798D01*
X161509490Y-100901496D01*
X161512617Y-100897077D01*
X161515589Y-100892543D01*
X161518403Y-100887901D01*
X161521055Y-100883152D01*
X161523541Y-100878300D01*
X161529949Y-100865551D01*
X161535944Y-100851842D01*
X161541525Y-100837174D01*
X161546692Y-100821547D01*
X161551446Y-100804961D01*
X161555787Y-100787416D01*
X161559715Y-100768912D01*
X161563229Y-100749448D01*
X161566329Y-100729026D01*
X161569016Y-100707644D01*
X161571290Y-100685303D01*
X161573150Y-100662004D01*
X161574597Y-100637745D01*
X161575631Y-100612527D01*
X161576251Y-100586349D01*
X161576458Y-100559213D01*
X160746725Y-100559213D01*
X160746725Y-100327703D01*
X161832839Y-100327703D01*
X161832839Y-100559213D01*
X161832777Y-100581622D01*
X161832421Y-100604022D01*
X161831770Y-100626412D01*
X161830825Y-100648787D01*
X161829586Y-100671147D01*
X161828053Y-100693488D01*
X161826226Y-100715809D01*
X161824105Y-100738105D01*
X161818516Y-100783065D01*
X161815201Y-100804597D01*
X161811539Y-100825497D01*
X161807529Y-100845766D01*
X161803172Y-100865402D01*
X161798467Y-100884406D01*
X161793416Y-100902779D01*
X161788017Y-100920519D01*
X161782270Y-100937627D01*
X161776177Y-100954103D01*
X161769736Y-100969946D01*
X161762948Y-100985157D01*
X161755812Y-100999736D01*
X161748329Y-101013682D01*
X161740499Y-101026996D01*
X161736260Y-101033937D01*
X161731831Y-101040744D01*
X161727217Y-101047415D01*
X161722420Y-101053947D01*
X161717445Y-101060335D01*
X161712293Y-101066576D01*
X161706970Y-101072666D01*
X161701478Y-101078603D01*
X161695820Y-101084382D01*
X161690000Y-101090000D01*
X161684022Y-101095454D01*
X161677888Y-101100739D01*
X161671601Y-101105853D01*
X161665167Y-101110792D01*
X161658586Y-101115552D01*
X161651864Y-101120130D01*
X161638745Y-101127859D01*
X161625380Y-101135129D01*
X161611783Y-101141935D01*
X161597966Y-101148271D01*
X161583941Y-101154132D01*
X161569720Y-101159513D01*
X161555315Y-101164409D01*
X161540739Y-101168813D01*
X161511632Y-101177175D01*
X161480336Y-101184998D01*
X161446850Y-101192281D01*
X161411176Y-101199025D01*
X161373313Y-101205229D01*
X161333260Y-101210894D01*
X161246589Y-101220605D01*
X161151161Y-101228158D01*
X161046977Y-101233553D01*
X160934037Y-101236790D01*
X160812341Y-101237869D01*
X160745633Y-101237554D01*
X160678938Y-101236259D01*
X160612270Y-101233982D01*
X160545641Y-101230725D01*
X160440453Y-101222709D01*
X160391418Y-101217601D01*
X160344756Y-101211758D01*
X160300467Y-101205182D01*
X160258552Y-101197872D01*
X160219009Y-101189828D01*
X160181839Y-101181050D01*
X160147042Y-101171538D01*
X160114619Y-101161293D01*
X160084568Y-101150314D01*
X160056890Y-101138601D01*
X160031585Y-101126154D01*
X160008653Y-101112973D01*
X159988094Y-101099059D01*
X159969908Y-101084411D01*
X159963244Y-101078007D01*
X159956758Y-101071437D01*
X159950455Y-101064706D01*
X159944336Y-101057817D01*
X159938404Y-101050775D01*
X159932663Y-101043583D01*
X159927114Y-101036245D01*
X159921761Y-101028765D01*
X159916606Y-101021148D01*
X159911652Y-101013396D01*
X159906901Y-101005514D01*
X159902357Y-100997506D01*
X159898022Y-100989376D01*
X159893899Y-100981127D01*
X159889991Y-100972764D01*
X159886300Y-100964290D01*
X159875997Y-100940053D01*
X159866324Y-100914238D01*
X159857278Y-100886847D01*
X159848861Y-100857878D01*
X159841072Y-100827332D01*
X159833912Y-100795209D01*
X159827380Y-100761509D01*
X159821477Y-100726231D01*
X159816202Y-100689377D01*
X159811555Y-100650945D01*
X159807537Y-100610936D01*
X159804147Y-100569350D01*
X159801385Y-100526187D01*
X159799252Y-100481446D01*
X159797747Y-100435129D01*
X159796871Y-100387234D01*
X159796813Y-100366332D01*
X159796870Y-100345433D01*
X159797457Y-100278710D01*
X159799219Y-100214934D01*
X159802154Y-100154107D01*
X159806263Y-100096227D01*
X159811547Y-100041294D01*
X159818004Y-99989310D01*
X159825636Y-99940273D01*
X159834441Y-99894183D01*
X159844421Y-99851041D01*
X159855575Y-99810847D01*
X159867903Y-99773601D01*
X159881405Y-99739302D01*
X159896081Y-99707951D01*
X159911931Y-99679548D01*
X159928955Y-99654092D01*
X159947154Y-99631584D01*
X159949844Y-99628620D01*
X159952578Y-99625698D01*
X159955358Y-99622820D01*
X159958182Y-99619986D01*
X159961049Y-99617195D01*
X159963959Y-99614450D01*
X159966913Y-99611749D01*
X159969908Y-99609094D01*
X159976489Y-99603871D01*
X159983178Y-99598797D01*
X159989971Y-99593873D01*
X159996865Y-99589103D01*
X160003859Y-99584486D01*
X160010950Y-99580024D01*
X160018134Y-99575719D01*
X160025410Y-99571573D01*
X160032774Y-99567586D01*
X160040225Y-99563760D01*
X160047759Y-99560097D01*
X160055374Y-99556598D01*
X160063067Y-99553264D01*
X160070836Y-99550098D01*
X160078677Y-99547100D01*
X160086589Y-99544271D01*
X160111596Y-99535423D01*
X160138262Y-99527069D01*
X160166588Y-99519209D01*
X160196573Y-99511843D01*
X160228219Y-99504971D01*
X160261524Y-99498594D01*
X160296490Y-99492710D01*
X160333115Y-99487320D01*
X160371400Y-99482424D01*
X160411345Y-99478022D01*
X160496214Y-99470701D01*
X160587722Y-99465355D01*
X160685870Y-99461986D01*
X160717484Y-99461379D01*
X160749095Y-99460957D01*
X160780709Y-99460719D01*
X160812328Y-99460664D01*
X160870077Y-99460829D01*
G37*
D11*
%TO.C,Q1*%
X153675000Y-93650000D03*
X153675000Y-92350000D03*
X151825000Y-93000000D03*
%TD*%
D12*
%TO.C,R4*%
X156000000Y-85740000D03*
X156000000Y-86760000D03*
%TD*%
D13*
%TO.C,R3*%
X156000000Y-91260000D03*
X156000000Y-90240000D03*
%TD*%
D14*
%TO.C,C3*%
X155980000Y-92500000D03*
X155020000Y-92500000D03*
%TD*%
D15*
%TO.C,J2*%
X158000000Y-97250000D03*
X158000000Y-96250000D03*
X158000000Y-95250000D03*
X158000000Y-94250000D03*
X158000000Y-93250000D03*
X158000000Y-92250000D03*
X158000000Y-91250000D03*
X158000000Y-90250000D03*
X158000000Y-89250000D03*
X158000000Y-88250000D03*
X158000000Y-87250000D03*
X158000000Y-86250000D03*
D16*
X161875000Y-84950000D03*
X161875000Y-98550000D03*
%TD*%
D14*
%TO.C,C1*%
X155980000Y-95500000D03*
X155020000Y-95500000D03*
%TD*%
D17*
%TO.C,R2*%
X156010000Y-93500000D03*
X154990000Y-93500000D03*
%TD*%
D18*
%TO.C,R1*%
X155000000Y-94500000D03*
X156020000Y-94500000D03*
%TD*%
D19*
%TO.C,U1*%
X153699960Y-98615250D03*
X151800040Y-98615250D03*
X151799999Y-95884750D03*
X152750000Y-95884750D03*
X153700001Y-95884750D03*
%TD*%
D20*
%TO.C,C2*%
X155750000Y-97270000D03*
X155750000Y-98230000D03*
%TD*%
D21*
%TO.C,S1*%
X153530000Y-90650000D03*
D22*
X152420000Y-85500000D03*
D21*
X151320000Y-90650000D03*
D22*
X152420000Y-88500000D03*
D21*
X151320000Y-83350000D03*
X153530000Y-83350000D03*
D23*
X154180000Y-84750000D03*
X154180000Y-87750000D03*
X154180000Y-89250000D03*
%TD*%
D24*
%TO.C,J1*%
X155900000Y-99965000D03*
X155900000Y-83535000D03*
%TD*%
M02*
