%TF.GenerationSoftware,KiCad,Pcbnew,(6.0.5-0)*%
%TF.CreationDate,2025-01-27T20:14:51-05:00*%
%TF.ProjectId,PICOGAUGEADAPTER,5049434f-4741-4554-9745-414441505445,rev?*%
%TF.SameCoordinates,Original*%
%TF.FileFunction,Legend,Top*%
%TF.FilePolarity,Positive*%
%FSLAX46Y46*%
G04 Gerber Fmt 4.6, Leading zero omitted, Abs format (unit mm)*
G04 Created by KiCad (PCBNEW (6.0.5-0)) date 2025-01-27 20:14:51*
%MOMM*%
%LPD*%
G01*
G04 APERTURE LIST*
%ADD10C,0.130000*%
%ADD11C,0.190000*%
%ADD12C,0.100000*%
%ADD13C,0.120000*%
%ADD14C,0.152400*%
G04 APERTURE END LIST*
D10*
X157980000Y-83687857D02*
X158034285Y-83687857D01*
X158088571Y-83715000D01*
X158115714Y-83742142D01*
X158142857Y-83796428D01*
X158170000Y-83905000D01*
X158170000Y-84040714D01*
X158142857Y-84149285D01*
X158115714Y-84203571D01*
X158088571Y-84230714D01*
X158034285Y-84257857D01*
X157980000Y-84257857D01*
X157925714Y-84230714D01*
X157898571Y-84203571D01*
X157871428Y-84149285D01*
X157844285Y-84040714D01*
X157844285Y-83905000D01*
X157871428Y-83796428D01*
X157898571Y-83742142D01*
X157925714Y-83715000D01*
X157980000Y-83687857D01*
X158712857Y-84257857D02*
X158387142Y-84257857D01*
X158550000Y-84257857D02*
X158550000Y-83687857D01*
X158495714Y-83769285D01*
X158441428Y-83823571D01*
X158387142Y-83850714D01*
X158957142Y-84203571D02*
X158984285Y-84230714D01*
X158957142Y-84257857D01*
X158930000Y-84230714D01*
X158957142Y-84203571D01*
X158957142Y-84257857D01*
X159201428Y-83742142D02*
X159228571Y-83715000D01*
X159282857Y-83687857D01*
X159418571Y-83687857D01*
X159472857Y-83715000D01*
X159500000Y-83742142D01*
X159527142Y-83796428D01*
X159527142Y-83850714D01*
X159500000Y-83932142D01*
X159174285Y-84257857D01*
X159527142Y-84257857D01*
X159880000Y-83687857D02*
X159934285Y-83687857D01*
X159988571Y-83715000D01*
X160015714Y-83742142D01*
X160042857Y-83796428D01*
X160070000Y-83905000D01*
X160070000Y-84040714D01*
X160042857Y-84149285D01*
X160015714Y-84203571D01*
X159988571Y-84230714D01*
X159934285Y-84257857D01*
X159880000Y-84257857D01*
X159825714Y-84230714D01*
X159798571Y-84203571D01*
X159771428Y-84149285D01*
X159744285Y-84040714D01*
X159744285Y-83905000D01*
X159771428Y-83796428D01*
X159798571Y-83742142D01*
X159825714Y-83715000D01*
X159880000Y-83687857D01*
X160287142Y-83742142D02*
X160314285Y-83715000D01*
X160368571Y-83687857D01*
X160504285Y-83687857D01*
X160558571Y-83715000D01*
X160585714Y-83742142D01*
X160612857Y-83796428D01*
X160612857Y-83850714D01*
X160585714Y-83932142D01*
X160260000Y-84257857D01*
X160612857Y-84257857D01*
X161128571Y-83687857D02*
X160857142Y-83687857D01*
X160830000Y-83959285D01*
X160857142Y-83932142D01*
X160911428Y-83905000D01*
X161047142Y-83905000D01*
X161101428Y-83932142D01*
X161128571Y-83959285D01*
X161155714Y-84013571D01*
X161155714Y-84149285D01*
X161128571Y-84203571D01*
X161101428Y-84230714D01*
X161047142Y-84257857D01*
X160911428Y-84257857D01*
X160857142Y-84230714D01*
X160830000Y-84203571D01*
D11*
%TO.C,Q1*%
X151247619Y-92446190D02*
X151175238Y-92410000D01*
X151102857Y-92337619D01*
X150994285Y-92229047D01*
X150921904Y-92192857D01*
X150849523Y-92192857D01*
X150885714Y-92373809D02*
X150813333Y-92337619D01*
X150740952Y-92265238D01*
X150704761Y-92120476D01*
X150704761Y-91867142D01*
X150740952Y-91722380D01*
X150813333Y-91650000D01*
X150885714Y-91613809D01*
X151030476Y-91613809D01*
X151102857Y-91650000D01*
X151175238Y-91722380D01*
X151211428Y-91867142D01*
X151211428Y-92120476D01*
X151175238Y-92265238D01*
X151102857Y-92337619D01*
X151030476Y-92373809D01*
X150885714Y-92373809D01*
X151935238Y-92373809D02*
X151500952Y-92373809D01*
X151718095Y-92373809D02*
X151718095Y-91613809D01*
X151645714Y-91722380D01*
X151573333Y-91794761D01*
X151500952Y-91830952D01*
%TO.C,R4*%
X155983333Y-85183809D02*
X155730000Y-84821904D01*
X155549047Y-85183809D02*
X155549047Y-84423809D01*
X155838571Y-84423809D01*
X155910952Y-84460000D01*
X155947142Y-84496190D01*
X155983333Y-84568571D01*
X155983333Y-84677142D01*
X155947142Y-84749523D01*
X155910952Y-84785714D01*
X155838571Y-84821904D01*
X155549047Y-84821904D01*
X156634761Y-84677142D02*
X156634761Y-85183809D01*
X156453809Y-84387619D02*
X156272857Y-84930476D01*
X156743333Y-84930476D01*
%TO.C,R3*%
X155833333Y-89623809D02*
X155580000Y-89261904D01*
X155399047Y-89623809D02*
X155399047Y-88863809D01*
X155688571Y-88863809D01*
X155760952Y-88900000D01*
X155797142Y-88936190D01*
X155833333Y-89008571D01*
X155833333Y-89117142D01*
X155797142Y-89189523D01*
X155760952Y-89225714D01*
X155688571Y-89261904D01*
X155399047Y-89261904D01*
X156086666Y-88863809D02*
X156557142Y-88863809D01*
X156303809Y-89153333D01*
X156412380Y-89153333D01*
X156484761Y-89189523D01*
X156520952Y-89225714D01*
X156557142Y-89298095D01*
X156557142Y-89479047D01*
X156520952Y-89551428D01*
X156484761Y-89587619D01*
X156412380Y-89623809D01*
X156195238Y-89623809D01*
X156122857Y-89587619D01*
X156086666Y-89551428D01*
%TO.C,C3*%
X154573333Y-91851428D02*
X154537142Y-91887619D01*
X154428571Y-91923809D01*
X154356190Y-91923809D01*
X154247619Y-91887619D01*
X154175238Y-91815238D01*
X154139047Y-91742857D01*
X154102857Y-91598095D01*
X154102857Y-91489523D01*
X154139047Y-91344761D01*
X154175238Y-91272380D01*
X154247619Y-91200000D01*
X154356190Y-91163809D01*
X154428571Y-91163809D01*
X154537142Y-91200000D01*
X154573333Y-91236190D01*
X154826666Y-91163809D02*
X155297142Y-91163809D01*
X155043809Y-91453333D01*
X155152380Y-91453333D01*
X155224761Y-91489523D01*
X155260952Y-91525714D01*
X155297142Y-91598095D01*
X155297142Y-91779047D01*
X155260952Y-91851428D01*
X155224761Y-91887619D01*
X155152380Y-91923809D01*
X154935238Y-91923809D01*
X154862857Y-91887619D01*
X154826666Y-91851428D01*
%TO.C,J2*%
X161996666Y-83083809D02*
X161996666Y-83626666D01*
X161960476Y-83735238D01*
X161888095Y-83807619D01*
X161779523Y-83843809D01*
X161707142Y-83843809D01*
X162322380Y-83156190D02*
X162358571Y-83120000D01*
X162430952Y-83083809D01*
X162611904Y-83083809D01*
X162684285Y-83120000D01*
X162720476Y-83156190D01*
X162756666Y-83228571D01*
X162756666Y-83300952D01*
X162720476Y-83409523D01*
X162286190Y-83843809D01*
X162756666Y-83843809D01*
%TO.C,C1*%
X155323333Y-96671428D02*
X155287142Y-96707619D01*
X155178571Y-96743809D01*
X155106190Y-96743809D01*
X154997619Y-96707619D01*
X154925238Y-96635238D01*
X154889047Y-96562857D01*
X154852857Y-96418095D01*
X154852857Y-96309523D01*
X154889047Y-96164761D01*
X154925238Y-96092380D01*
X154997619Y-96020000D01*
X155106190Y-95983809D01*
X155178571Y-95983809D01*
X155287142Y-96020000D01*
X155323333Y-96056190D01*
X156047142Y-96743809D02*
X155612857Y-96743809D01*
X155830000Y-96743809D02*
X155830000Y-95983809D01*
X155757619Y-96092380D01*
X155685238Y-96164761D01*
X155612857Y-96200952D01*
%TO.C,R2*%
X154733809Y-93216666D02*
X154371904Y-93470000D01*
X154733809Y-93650952D02*
X153973809Y-93650952D01*
X153973809Y-93361428D01*
X154010000Y-93289047D01*
X154046190Y-93252857D01*
X154118571Y-93216666D01*
X154227142Y-93216666D01*
X154299523Y-93252857D01*
X154335714Y-93289047D01*
X154371904Y-93361428D01*
X154371904Y-93650952D01*
X154046190Y-92927142D02*
X154010000Y-92890952D01*
X153973809Y-92818571D01*
X153973809Y-92637619D01*
X154010000Y-92565238D01*
X154046190Y-92529047D01*
X154118571Y-92492857D01*
X154190952Y-92492857D01*
X154299523Y-92529047D01*
X154733809Y-92963333D01*
X154733809Y-92492857D01*
%TO.C,R1*%
X157113809Y-95306666D02*
X156751904Y-95560000D01*
X157113809Y-95740952D02*
X156353809Y-95740952D01*
X156353809Y-95451428D01*
X156390000Y-95379047D01*
X156426190Y-95342857D01*
X156498571Y-95306666D01*
X156607142Y-95306666D01*
X156679523Y-95342857D01*
X156715714Y-95379047D01*
X156751904Y-95451428D01*
X156751904Y-95740952D01*
X157113809Y-94582857D02*
X157113809Y-95017142D01*
X157113809Y-94800000D02*
X156353809Y-94800000D01*
X156462380Y-94872380D01*
X156534761Y-94944761D01*
X156570952Y-95017142D01*
%TO.C,U1*%
X152200952Y-99083809D02*
X152200952Y-99699047D01*
X152237142Y-99771428D01*
X152273333Y-99807619D01*
X152345714Y-99843809D01*
X152490476Y-99843809D01*
X152562857Y-99807619D01*
X152599047Y-99771428D01*
X152635238Y-99699047D01*
X152635238Y-99083809D01*
X153395238Y-99843809D02*
X152960952Y-99843809D01*
X153178095Y-99843809D02*
X153178095Y-99083809D01*
X153105714Y-99192380D01*
X153033333Y-99264761D01*
X152960952Y-99300952D01*
%TO.C,C2*%
X156693333Y-98531428D02*
X156657142Y-98567619D01*
X156548571Y-98603809D01*
X156476190Y-98603809D01*
X156367619Y-98567619D01*
X156295238Y-98495238D01*
X156259047Y-98422857D01*
X156222857Y-98278095D01*
X156222857Y-98169523D01*
X156259047Y-98024761D01*
X156295238Y-97952380D01*
X156367619Y-97880000D01*
X156476190Y-97843809D01*
X156548571Y-97843809D01*
X156657142Y-97880000D01*
X156693333Y-97916190D01*
X156982857Y-97916190D02*
X157019047Y-97880000D01*
X157091428Y-97843809D01*
X157272380Y-97843809D01*
X157344761Y-97880000D01*
X157380952Y-97916190D01*
X157417142Y-97988571D01*
X157417142Y-98060952D01*
X157380952Y-98169523D01*
X156946666Y-98603809D01*
X157417142Y-98603809D01*
%TO.C,S1*%
X154867619Y-86759047D02*
X154903809Y-86650476D01*
X154903809Y-86469523D01*
X154867619Y-86397142D01*
X154831428Y-86360952D01*
X154759047Y-86324761D01*
X154686666Y-86324761D01*
X154614285Y-86360952D01*
X154578095Y-86397142D01*
X154541904Y-86469523D01*
X154505714Y-86614285D01*
X154469523Y-86686666D01*
X154433333Y-86722857D01*
X154360952Y-86759047D01*
X154288571Y-86759047D01*
X154216190Y-86722857D01*
X154180000Y-86686666D01*
X154143809Y-86614285D01*
X154143809Y-86433333D01*
X154180000Y-86324761D01*
X154903809Y-85600952D02*
X154903809Y-86035238D01*
X154903809Y-85818095D02*
X154143809Y-85818095D01*
X154252380Y-85890476D01*
X154324761Y-85962857D01*
X154360952Y-86035238D01*
D12*
%TO.C,Q1*%
X152250000Y-94200000D02*
X151950000Y-94200000D01*
X153150000Y-94200000D02*
X153550000Y-94200000D01*
X151950000Y-91800000D02*
X151950000Y-92100000D01*
X152250000Y-91800000D02*
X151950000Y-91800000D01*
X153550000Y-94200000D02*
X153550000Y-94000000D01*
X153550000Y-94000000D02*
X153750000Y-94000000D01*
X153550000Y-91800000D02*
X153250000Y-91800000D01*
X151950000Y-94200000D02*
X151950000Y-93900000D01*
X153550000Y-92000000D02*
X153550000Y-91800000D01*
D13*
%TO.C,R4*%
X155620000Y-86096359D02*
X155620000Y-86403641D01*
X156380000Y-86096359D02*
X156380000Y-86403641D01*
%TO.C,R3*%
X156380000Y-90903641D02*
X156380000Y-90596359D01*
X155620000Y-90903641D02*
X155620000Y-90596359D01*
%TO.C,C3*%
X155607836Y-92140000D02*
X155392164Y-92140000D01*
X155607836Y-92860000D02*
X155392164Y-92860000D01*
%TO.C,J2*%
X162685000Y-97690000D02*
X162685000Y-85810000D01*
X160715000Y-84640000D02*
X158215000Y-84640000D01*
X158215000Y-97810000D02*
X157225000Y-97810000D01*
X158215000Y-84640000D02*
X158215000Y-85690000D01*
X158215000Y-98860000D02*
X158215000Y-97810000D01*
X160715000Y-98860000D02*
X158215000Y-98860000D01*
%TO.C,C1*%
X155607836Y-95860000D02*
X155392164Y-95860000D01*
X155607836Y-95140000D02*
X155392164Y-95140000D01*
%TO.C,R2*%
X155653641Y-93120000D02*
X155346359Y-93120000D01*
X155653641Y-93880000D02*
X155346359Y-93880000D01*
%TO.C,R1*%
X155356359Y-94880000D02*
X155663641Y-94880000D01*
X155356359Y-94120000D02*
X155663641Y-94120000D01*
D14*
%TO.C,U1*%
X154401000Y-98253300D02*
X154401000Y-96246700D01*
X151099000Y-96246700D02*
X151099000Y-98253300D01*
X152361380Y-98253300D02*
X153138620Y-98253300D01*
D13*
%TO.C,C2*%
X156110000Y-97642164D02*
X156110000Y-97857836D01*
X155390000Y-97642164D02*
X155390000Y-97857836D01*
%TO.C,S1*%
X151020000Y-85600000D02*
X149730000Y-85600000D01*
X153870000Y-88400000D02*
X153870000Y-88600000D01*
X152820000Y-83550000D02*
X152030000Y-83550000D01*
X149730000Y-85600000D02*
X149520000Y-85800000D01*
X149730000Y-86900000D02*
X149520000Y-86700000D01*
X151020000Y-84150000D02*
X151020000Y-89850000D01*
X149730000Y-86900000D02*
X151020000Y-86900000D01*
X152030000Y-90450000D02*
X152820000Y-90450000D01*
X149520000Y-85800000D02*
X149520000Y-86700000D01*
X153870000Y-85400000D02*
X153870000Y-87100000D01*
%TD*%
M02*
