M48
; DRILL file {KiCad (6.0.5-0)} date Monday, January 27, 2025 at 08:15:11 PM
; FORMAT={-:-/ absolute / metric / decimal}
; #@! TF.CreationDate,2025-01-27T20:15:11-05:00
; #@! TF.GenerationSoftware,Kicad,Pcbnew,(6.0.5-0)
; #@! TF.FileFunction,Plated,1,2,PTH
FMAT,2
METRIC
; #@! TA.AperFunction,Plated,PTH,ViaDrill
T1C0.400
; #@! TA.AperFunction,Plated,PTH,ViaDrill
T2C0.600
; #@! TA.AperFunction,Plated,PTH,ComponentDrill
T3C0.600
%
G90
G05
T1
X154.46Y-96.01
X154.5Y-94.61
X156.532Y-94.31
X157.02Y-90.25
X158.57Y-98.52
X159.21Y-93.251
X159.765Y-86.885
X159.95Y-90.41
T2
X151.93Y-94.67
X152.01Y-100.36
X152.43Y-84.25
X153.096Y-87.506
X153.14Y-94.65
X156.0Y-87.997
X156.68Y-92.97
X159.42Y-97.3
X159.61Y-96.01
X160.57Y-83.11
X161.37Y-87.6
X162.5Y-100.09
T3
G00X154.968Y-83.535
M15
G01X156.832Y-83.535
M16
G05
G00X154.995Y-99.965
M15
G01X156.805Y-99.965
M16
G05
T0
M30
