%TF.GenerationSoftware,KiCad,Pcbnew,(6.0.5-0)*%
%TF.CreationDate,2025-01-27T20:14:51-05:00*%
%TF.ProjectId,PICOGAUGEADAPTER,5049434f-4741-4554-9745-414441505445,rev?*%
%TF.SameCoordinates,Original*%
%TF.FileFunction,Copper,L1,Top*%
%TF.FilePolarity,Positive*%
%FSLAX46Y46*%
G04 Gerber Fmt 4.6, Leading zero omitted, Abs format (unit mm)*
G04 Created by KiCad (PCBNEW (6.0.5-0)) date 2025-01-27 20:14:51*
%MOMM*%
%LPD*%
G01*
G04 APERTURE LIST*
G04 Aperture macros list*
%AMRoundRect*
0 Rectangle with rounded corners*
0 $1 Rounding radius*
0 $2 $3 $4 $5 $6 $7 $8 $9 X,Y pos of 4 corners*
0 Add a 4 corners polygon primitive as box body*
4,1,4,$2,$3,$4,$5,$6,$7,$8,$9,$2,$3,0*
0 Add four circle primitives for the rounded corners*
1,1,$1+$1,$2,$3*
1,1,$1+$1,$4,$5*
1,1,$1+$1,$6,$7*
1,1,$1+$1,$8,$9*
0 Add four rect primitives between the rounded corners*
20,1,$1+$1,$2,$3,$4,$5,0*
20,1,$1+$1,$4,$5,$6,$7,0*
20,1,$1+$1,$6,$7,$8,$9,0*
20,1,$1+$1,$8,$9,$2,$3,0*%
G04 Aperture macros list end*
%TA.AperFunction,SMDPad,CuDef*%
%ADD10R,0.550000X0.600000*%
%TD*%
%TA.AperFunction,SMDPad,CuDef*%
%ADD11RoundRect,0.135000X-0.185000X0.135000X-0.185000X-0.135000X0.185000X-0.135000X0.185000X0.135000X0*%
%TD*%
%TA.AperFunction,SMDPad,CuDef*%
%ADD12RoundRect,0.135000X0.185000X-0.135000X0.185000X0.135000X-0.185000X0.135000X-0.185000X-0.135000X0*%
%TD*%
%TA.AperFunction,SMDPad,CuDef*%
%ADD13RoundRect,0.140000X0.140000X0.170000X-0.140000X0.170000X-0.140000X-0.170000X0.140000X-0.170000X0*%
%TD*%
%TA.AperFunction,SMDPad,CuDef*%
%ADD14RoundRect,0.150000X0.625000X-0.150000X0.625000X0.150000X-0.625000X0.150000X-0.625000X-0.150000X0*%
%TD*%
%TA.AperFunction,SMDPad,CuDef*%
%ADD15RoundRect,0.250000X0.650000X-0.350000X0.650000X0.350000X-0.650000X0.350000X-0.650000X-0.350000X0*%
%TD*%
%TA.AperFunction,SMDPad,CuDef*%
%ADD16RoundRect,0.135000X0.135000X0.185000X-0.135000X0.185000X-0.135000X-0.185000X0.135000X-0.185000X0*%
%TD*%
%TA.AperFunction,SMDPad,CuDef*%
%ADD17RoundRect,0.135000X-0.135000X-0.185000X0.135000X-0.185000X0.135000X0.185000X-0.135000X0.185000X0*%
%TD*%
%TA.AperFunction,SMDPad,CuDef*%
%ADD18R,0.457200X0.977900*%
%TD*%
%TA.AperFunction,SMDPad,CuDef*%
%ADD19RoundRect,0.140000X-0.170000X0.140000X-0.170000X-0.140000X0.170000X-0.140000X0.170000X0.140000X0*%
%TD*%
%TA.AperFunction,SMDPad,CuDef*%
%ADD20R,0.800000X1.000000*%
%TD*%
%TA.AperFunction,SMDPad,CuDef*%
%ADD21R,1.500000X0.700000*%
%TD*%
%TA.AperFunction,ComponentPad*%
%ADD22O,3.000000X1.100000*%
%TD*%
%TA.AperFunction,ViaPad*%
%ADD23C,0.800000*%
%TD*%
%TA.AperFunction,ViaPad*%
%ADD24C,1.000000*%
%TD*%
%TA.AperFunction,Conductor*%
%ADD25C,0.500000*%
%TD*%
%TA.AperFunction,Conductor*%
%ADD26C,0.203200*%
%TD*%
%TA.AperFunction,Conductor*%
%ADD27C,0.300000*%
%TD*%
G04 APERTURE END LIST*
D10*
%TO.P,Q1,1,G*%
%TO.N,3V3*%
X153675000Y-93650000D03*
%TO.P,Q1,2,S*%
%TO.N,RP_TX*%
X153675000Y-92350000D03*
%TO.P,Q1,3,D*%
%TO.N,ELM_RX*%
X151825000Y-93000000D03*
%TD*%
D11*
%TO.P,R4,1*%
%TO.N,ELM_RX*%
X156000000Y-85740000D03*
%TO.P,R4,2*%
%TO.N,+5V*%
X156000000Y-86760000D03*
%TD*%
D12*
%TO.P,R3,1*%
%TO.N,3V3*%
X156000000Y-91260000D03*
%TO.P,R3,2*%
%TO.N,RP_TX*%
X156000000Y-90240000D03*
%TD*%
D13*
%TO.P,C3,1*%
%TO.N,GND*%
X155980000Y-92500000D03*
%TO.P,C3,2*%
%TO.N,3V3*%
X155020000Y-92500000D03*
%TD*%
D14*
%TO.P,J2,1,1*%
%TO.N,GND*%
X158000000Y-97250000D03*
%TO.P,J2,2,2*%
%TO.N,+5V*%
X158000000Y-96250000D03*
%TO.P,J2,3,3*%
%TO.N,unconnected-(J2-Pad3)*%
X158000000Y-95250000D03*
%TO.P,J2,4,4*%
%TO.N,unconnected-(J2-Pad4)*%
X158000000Y-94250000D03*
%TO.P,J2,5,5*%
%TO.N,GND*%
X158000000Y-93250000D03*
%TO.P,J2,6,6*%
%TO.N,unconnected-(J2-Pad6)*%
X158000000Y-92250000D03*
%TO.P,J2,7,7*%
%TO.N,3V3*%
X158000000Y-91250000D03*
%TO.P,J2,8,8*%
%TO.N,/RP_RX*%
X158000000Y-90250000D03*
%TO.P,J2,9,9*%
%TO.N,RP_TX*%
X158000000Y-89250000D03*
%TO.P,J2,10,10*%
%TO.N,unconnected-(J2-Pad10)*%
X158000000Y-88250000D03*
%TO.P,J2,11,11*%
%TO.N,unconnected-(J2-Pad11)*%
X158000000Y-87250000D03*
%TO.P,J2,12,12*%
%TO.N,unconnected-(J2-Pad12)*%
X158000000Y-86250000D03*
D15*
%TO.P,J2,MP,MP*%
%TO.N,GND*%
X161875000Y-84950000D03*
X161875000Y-98550000D03*
%TD*%
D13*
%TO.P,C1,1*%
%TO.N,GND*%
X155980000Y-95500000D03*
%TO.P,C1,2*%
%TO.N,+12V*%
X155020000Y-95500000D03*
%TD*%
D16*
%TO.P,R2,1*%
%TO.N,GND*%
X156010000Y-93500000D03*
%TO.P,R2,2*%
%TO.N,/RP_RX*%
X154990000Y-93500000D03*
%TD*%
D17*
%TO.P,R1,1*%
%TO.N,/RP_RX*%
X155000000Y-94500000D03*
%TO.P,R1,2*%
%TO.N,ELM_TX*%
X156020000Y-94500000D03*
%TD*%
D18*
%TO.P,U1,5,Vout*%
%TO.N,+5V*%
X153699960Y-98615250D03*
%TO.P,U1,4,NC*%
%TO.N,unconnected-(U1-Pad4)*%
X151800040Y-98615250D03*
%TO.P,U1,3,EN*%
%TO.N,Net-(S1-Pad2)*%
X151799999Y-95884750D03*
%TO.P,U1,2,GND*%
%TO.N,GND*%
X152750000Y-95884750D03*
%TO.P,U1,1,Vin*%
%TO.N,+12V*%
X153700001Y-95884750D03*
%TD*%
D19*
%TO.P,C2,1*%
%TO.N,+5V*%
X155750000Y-97270000D03*
%TO.P,C2,2*%
%TO.N,GND*%
X155750000Y-98230000D03*
%TD*%
D20*
%TO.P,S1,*%
%TO.N,GND*%
X153530000Y-90650000D03*
X151320000Y-90650000D03*
X151320000Y-83350000D03*
X153530000Y-83350000D03*
D21*
%TO.P,S1,1*%
X154180000Y-84750000D03*
%TO.P,S1,2,Com*%
%TO.N,Net-(S1-Pad2)*%
X154180000Y-87750000D03*
%TO.P,S1,3*%
%TO.N,+5V*%
X154180000Y-89250000D03*
%TD*%
D22*
%TO.P,J1,6,P1*%
%TO.N,GND*%
X155900000Y-99965000D03*
%TO.P,J1,7,P2*%
X155900000Y-83535000D03*
%TD*%
D23*
%TO.N,GND*%
X159210500Y-93250795D03*
%TO.N,+12V*%
X159765000Y-86885000D03*
X154460000Y-96010000D03*
X158570000Y-98520000D03*
D24*
%TO.N,GND*%
X162500000Y-100090000D03*
X159420000Y-97300000D03*
X160570000Y-83110000D03*
X152010000Y-100360000D03*
X153140000Y-94650000D03*
X152430000Y-84250000D03*
X156680000Y-92970000D03*
D23*
%TO.N,+5V*%
X159950000Y-90410000D03*
D24*
X159610000Y-96010000D03*
X156000000Y-87996741D03*
%TO.N,ELM_RX*%
X161370000Y-87600000D03*
D23*
%TO.N,ELM_TX*%
X156531608Y-94309520D03*
%TO.N,/RP_RX*%
X154500000Y-94610000D03*
X157020000Y-90250000D03*
D24*
%TO.N,Net-(S1-Pad2)*%
X151930000Y-94670000D03*
X153096464Y-87506464D03*
%TD*%
D25*
%TO.N,GND*%
X159210507Y-93250788D02*
G75*
G03*
X159208581Y-93250000I-1907J-1912D01*
G01*
X158000000Y-93250000D02*
X159208581Y-93250000D01*
%TO.N,+12V*%
X159764998Y-87123996D02*
G75*
G03*
X160536457Y-88986457I2633902J-4D01*
G01*
X159765000Y-87123996D02*
X159765000Y-86885000D01*
%TO.N,+5V*%
X155272549Y-88797452D02*
X155370000Y-88700000D01*
X155272549Y-88797452D02*
G75*
G02*
X154180000Y-89250000I-1092549J1092552D01*
G01*
X155370000Y-88700000D02*
X155948198Y-88121802D01*
X156000018Y-87996741D02*
G75*
G02*
X155948198Y-88121802I-176918J41D01*
G01*
D26*
%TO.N,ELM_RX*%
X160655831Y-85875813D02*
G75*
G02*
X161370000Y-87600000I-1724231J-1724187D01*
G01*
X158383604Y-84800011D02*
G75*
G02*
X160425979Y-85645981I-4J-2888389D01*
G01*
X156000011Y-85740011D02*
G75*
G02*
X158269360Y-84800000I2269389J-2269389D01*
G01*
X160655822Y-85875822D02*
X160425980Y-85645980D01*
X158383604Y-84800000D02*
X158269360Y-84800000D01*
D25*
%TO.N,+12V*%
X154152721Y-95882721D02*
X153920000Y-95650000D01*
X161650000Y-94719391D02*
X161650000Y-94525665D01*
X158570000Y-98520000D02*
X159475736Y-98520000D01*
X160536457Y-88986457D02*
X160610000Y-89060000D01*
X154460000Y-96010000D02*
X154219705Y-96010000D01*
X155020000Y-95500000D02*
X154532548Y-95500000D01*
X161650000Y-91800000D02*
X161650000Y-91342325D01*
X161650000Y-94525665D02*
X161650000Y-91800000D01*
X155020000Y-95500000D02*
X154545356Y-95974644D01*
X155020000Y-95500000D02*
X154679914Y-95840086D01*
X153980000Y-96130008D02*
G75*
G03*
X154679914Y-95840086I0J989808D01*
G01*
X161650007Y-91570782D02*
G75*
G03*
X160610000Y-89060000I-3550807J-18D01*
G01*
X160199989Y-98219989D02*
G75*
G02*
X159475736Y-98520000I-724289J724289D01*
G01*
X153759986Y-95819986D02*
G75*
G02*
X154532548Y-95500000I772514J-772514D01*
G01*
X154152712Y-95882730D02*
G75*
G03*
X154460000Y-96010000I307288J307330D01*
G01*
X154460000Y-96010003D02*
G75*
G03*
X154545356Y-95974644I0J120703D01*
G01*
X161649995Y-94719391D02*
G75*
G02*
X160199999Y-98219999I-4950595J-9D01*
G01*
%TO.N,GND*%
X152750000Y-95884750D02*
X152750000Y-95591543D01*
X155900000Y-83535000D02*
X154076923Y-83535000D01*
X158000000Y-93250000D02*
X157854974Y-93250000D01*
X158000000Y-93250000D02*
X157963969Y-93250000D01*
X157010007Y-93600007D02*
G75*
G02*
X157854974Y-93250000I844993J-844993D01*
G01*
X153139987Y-94649987D02*
G75*
G03*
X152750000Y-95591543I941513J-941513D01*
G01*
X153919993Y-83599993D02*
G75*
G02*
X154076923Y-83535000I156907J-156907D01*
G01*
X156950009Y-92829991D02*
G75*
G03*
X157963969Y-93250000I1013991J1013991D01*
G01*
%TO.N,+5V*%
X160060000Y-91480000D02*
X160060000Y-90675563D01*
X155900258Y-97119741D02*
X155750000Y-97270000D01*
X156000000Y-87996741D02*
X156000000Y-86760000D01*
X160060000Y-94923604D02*
X160060000Y-92940000D01*
X153859208Y-98230793D02*
X154410000Y-97680000D01*
X158000000Y-96250000D02*
X159030589Y-96250000D01*
X160060000Y-91480000D02*
X160060000Y-90992842D01*
X160060000Y-92940000D02*
X160060000Y-91480000D01*
X155399827Y-97270000D02*
X155750000Y-97270000D01*
X160060001Y-94923604D02*
G75*
G02*
X159610000Y-96010000I-1536401J4D01*
G01*
X155900255Y-97119738D02*
G75*
G02*
X158000000Y-96250000I2099745J-2099762D01*
G01*
X159610003Y-96010003D02*
G75*
G02*
X159030589Y-96250000I-579403J579403D01*
G01*
X159860013Y-90509987D02*
G75*
G02*
X160060000Y-90992842I-482813J-482813D01*
G01*
X155399827Y-97270012D02*
G75*
G03*
X154410000Y-97680000I-27J-1399788D01*
G01*
X159949989Y-90410011D02*
G75*
G02*
X160060000Y-90675563I-265589J-265589D01*
G01*
X153859175Y-98230760D02*
G75*
G03*
X153699960Y-98615250I384525J-384440D01*
G01*
D26*
%TO.N,ELM_RX*%
X151430000Y-88660000D02*
X151430000Y-88722894D01*
X152040000Y-90195563D02*
X152040000Y-92480945D01*
X156000000Y-85740000D02*
X154705807Y-85740000D01*
X153040000Y-86430000D02*
X151868407Y-87601593D01*
X151929998Y-89930002D02*
G75*
G02*
X151430000Y-88722894I1207102J1207102D01*
G01*
X151824987Y-92999987D02*
G75*
G03*
X152040000Y-92480945I-519087J519087D01*
G01*
X151429997Y-88660000D02*
G75*
G02*
X151868407Y-87601593I1496803J0D01*
G01*
X153039998Y-86429998D02*
G75*
G02*
X154705807Y-85740000I1665802J-1665802D01*
G01*
X152040015Y-90195563D02*
G75*
G03*
X151930000Y-89930000I-375615J-37D01*
G01*
D25*
%TO.N,ELM_TX*%
X156020000Y-94500000D02*
X156071749Y-94500000D01*
X156531576Y-94309488D02*
G75*
G02*
X156071749Y-94500000I-459876J459788D01*
G01*
D26*
%TO.N,/RP_RX*%
X154848492Y-94348493D02*
X155000000Y-94500000D01*
D25*
X155000000Y-94500000D02*
X154765563Y-94500000D01*
D26*
X154593934Y-94246066D02*
X154500000Y-94340000D01*
D25*
X158000000Y-90250000D02*
X157020000Y-90250000D01*
D26*
X154990000Y-93500000D02*
X154841422Y-93648578D01*
X154699988Y-93990000D02*
G75*
G02*
X154841422Y-93648578I482812J0D01*
G01*
D25*
X154500011Y-94610011D02*
G75*
G02*
X154765563Y-94500000I265589J-265589D01*
G01*
D26*
X154848489Y-94348496D02*
G75*
G02*
X154700000Y-93990000I358511J358496D01*
G01*
X154593927Y-94246059D02*
G75*
G03*
X154700000Y-93990000I-256027J256059D01*
G01*
D25*
%TO.N,3V3*%
X154245000Y-93035000D02*
X154564436Y-92715564D01*
X154245000Y-93035000D02*
X153690000Y-93590000D01*
X158000000Y-91250000D02*
X155750000Y-91250000D01*
X154802010Y-92477990D02*
X154245000Y-93035000D01*
X154940000Y-92559993D02*
G75*
G03*
X154564437Y-92715565I0J-531107D01*
G01*
X155000000Y-92000000D02*
G75*
G02*
X155750000Y-91250000I750000J0D01*
G01*
X154802014Y-92477994D02*
G75*
G03*
X155000000Y-92000000I-478014J477994D01*
G01*
D27*
%TO.N,RP_TX*%
X154910000Y-90930361D02*
X155204844Y-90635517D01*
X154910000Y-90930361D02*
X153805560Y-92034801D01*
D25*
X158000000Y-89250000D02*
X157010000Y-89250000D01*
D27*
X155204844Y-90635517D02*
X155600408Y-90239953D01*
X156000002Y-90240002D02*
G75*
G02*
X155710295Y-90360000I-289702J289702D01*
G01*
X155870000Y-90360009D02*
G75*
G03*
X155204845Y-90635518I0J-940691D01*
G01*
X153675013Y-92350000D02*
G75*
G02*
X153805560Y-92034801I445787J0D01*
G01*
X155890000Y-90119987D02*
G75*
G03*
X155600408Y-90239953I0J-409513D01*
G01*
D25*
X156050000Y-90210000D02*
G75*
G02*
X157010000Y-89250000I960000J0D01*
G01*
%TO.N,Net-(S1-Pad2)*%
X151799999Y-95884750D02*
X151799999Y-94983850D01*
X154180000Y-87750000D02*
X153684411Y-87750000D01*
X151799999Y-95884750D02*
X151799999Y-95451840D01*
X154180000Y-87750000D02*
X153170710Y-87750000D01*
X151930035Y-94670035D02*
G75*
G03*
X151799999Y-94983850I313765J-313865D01*
G01*
X153049997Y-87700003D02*
G75*
G03*
X153170710Y-87750000I120703J120703D01*
G01*
X152069988Y-94799988D02*
G75*
G03*
X151799999Y-95451840I651812J-651812D01*
G01*
X153096455Y-87506473D02*
G75*
G03*
X153684411Y-87750000I587945J587973D01*
G01*
%TD*%
%TA.AperFunction,Conductor*%
%TO.N,GND*%
G36*
X163504831Y-82222913D02*
G01*
X163541376Y-82273213D01*
X163546300Y-82304300D01*
X163546300Y-101195700D01*
X163527087Y-101254831D01*
X163476787Y-101291376D01*
X163445700Y-101296300D01*
X150554300Y-101296300D01*
X150495169Y-101277087D01*
X150458624Y-101226787D01*
X150453700Y-101195700D01*
X150453700Y-100222498D01*
X154192278Y-100222498D01*
X154192361Y-100234426D01*
X154216103Y-100304167D01*
X154220863Y-100314282D01*
X154309487Y-100458338D01*
X154316364Y-100467140D01*
X154434696Y-100587978D01*
X154443362Y-100595046D01*
X154585525Y-100686663D01*
X154595535Y-100691632D01*
X154754465Y-100749477D01*
X154765329Y-100752106D01*
X154895921Y-100768603D01*
X154902228Y-100769000D01*
X155630067Y-100769000D01*
X155642957Y-100764812D01*
X155646000Y-100760623D01*
X155646000Y-100753067D01*
X156154000Y-100753067D01*
X156158188Y-100765957D01*
X156162377Y-100769000D01*
X156892544Y-100769000D01*
X156898143Y-100768687D01*
X157023660Y-100754608D01*
X157034567Y-100752130D01*
X157194280Y-100696512D01*
X157204365Y-100691680D01*
X157347791Y-100602058D01*
X157356556Y-100595110D01*
X157476563Y-100475939D01*
X157483566Y-100467228D01*
X157574189Y-100324430D01*
X157579090Y-100314382D01*
X157607708Y-100234011D01*
X157608017Y-100222955D01*
X157596400Y-100219000D01*
X156169933Y-100219000D01*
X156157043Y-100223188D01*
X156154000Y-100227377D01*
X156154000Y-100753067D01*
X155646000Y-100753067D01*
X155646000Y-100234933D01*
X155641812Y-100222043D01*
X155637623Y-100219000D01*
X154203043Y-100219000D01*
X154192278Y-100222498D01*
X150453700Y-100222498D01*
X150453700Y-99707045D01*
X154191983Y-99707045D01*
X154203600Y-99711000D01*
X155630067Y-99711000D01*
X155642957Y-99706812D01*
X155646000Y-99702623D01*
X155646000Y-99695067D01*
X156154000Y-99695067D01*
X156158188Y-99707957D01*
X156162377Y-99711000D01*
X157596957Y-99711000D01*
X157607722Y-99707502D01*
X157607639Y-99695574D01*
X157583897Y-99625833D01*
X157579137Y-99615718D01*
X157490513Y-99471662D01*
X157483636Y-99462860D01*
X157365304Y-99342022D01*
X157356638Y-99334954D01*
X157214475Y-99243337D01*
X157204465Y-99238368D01*
X157045535Y-99180523D01*
X157034671Y-99177894D01*
X156904079Y-99161397D01*
X156897772Y-99161000D01*
X156169933Y-99161000D01*
X156157043Y-99165188D01*
X156154000Y-99169377D01*
X156154000Y-99695067D01*
X155646000Y-99695067D01*
X155646000Y-99176933D01*
X155641812Y-99164043D01*
X155637623Y-99161000D01*
X154907456Y-99161000D01*
X154901857Y-99161313D01*
X154776340Y-99175392D01*
X154765433Y-99177870D01*
X154605720Y-99233488D01*
X154595635Y-99238320D01*
X154452209Y-99327942D01*
X154443444Y-99334890D01*
X154323437Y-99454061D01*
X154316434Y-99462772D01*
X154225811Y-99605570D01*
X154220910Y-99615618D01*
X154192292Y-99695989D01*
X154191983Y-99707045D01*
X150453700Y-99707045D01*
X150453700Y-99124264D01*
X151367740Y-99124264D01*
X151379559Y-99183680D01*
X151424580Y-99251060D01*
X151491960Y-99296081D01*
X151551376Y-99307900D01*
X152048704Y-99307900D01*
X152108120Y-99296081D01*
X152175500Y-99251060D01*
X152220521Y-99183680D01*
X152232340Y-99124264D01*
X152232340Y-98106236D01*
X152220521Y-98046820D01*
X152175500Y-97979440D01*
X152108120Y-97934419D01*
X152048704Y-97922600D01*
X151551376Y-97922600D01*
X151491960Y-97934419D01*
X151424580Y-97979440D01*
X151379559Y-98046820D01*
X151367740Y-98106236D01*
X151367740Y-99124264D01*
X150453700Y-99124264D01*
X150453700Y-94662577D01*
X151221171Y-94662577D01*
X151221836Y-94668601D01*
X151221836Y-94668605D01*
X151230824Y-94750017D01*
X151239861Y-94831871D01*
X151245567Y-94847464D01*
X151294908Y-94982292D01*
X151298394Y-94991819D01*
X151301774Y-94996849D01*
X151301776Y-94996853D01*
X151329198Y-95037662D01*
X151346299Y-95093771D01*
X151346299Y-95403508D01*
X151346084Y-95410082D01*
X151345888Y-95413075D01*
X151344710Y-95423185D01*
X151342971Y-95433527D01*
X151341771Y-95440661D01*
X151341634Y-95451860D01*
X151342185Y-95455705D01*
X151342185Y-95455708D01*
X151345282Y-95477324D01*
X151346299Y-95491590D01*
X151346299Y-95918839D01*
X151346857Y-95922550D01*
X151346857Y-95922551D01*
X151359511Y-96006722D01*
X151361457Y-96019663D01*
X151363625Y-96024177D01*
X151367699Y-96051274D01*
X151367699Y-96393764D01*
X151379518Y-96453180D01*
X151424539Y-96520560D01*
X151491919Y-96565581D01*
X151551335Y-96577400D01*
X152048663Y-96577400D01*
X152108079Y-96565581D01*
X152175459Y-96520560D01*
X152175895Y-96519908D01*
X152226160Y-96494297D01*
X152287568Y-96504023D01*
X152325542Y-96537767D01*
X152332769Y-96548583D01*
X152346515Y-96562329D01*
X152414057Y-96607459D01*
X152432011Y-96614896D01*
X152491531Y-96626735D01*
X152501330Y-96627700D01*
X152505467Y-96627700D01*
X152518357Y-96623512D01*
X152521400Y-96619323D01*
X152521400Y-96611766D01*
X152978600Y-96611766D01*
X152982788Y-96624656D01*
X152986977Y-96627699D01*
X152998678Y-96627699D01*
X153008461Y-96626735D01*
X153067986Y-96614896D01*
X153085945Y-96607458D01*
X153153485Y-96562329D01*
X153167231Y-96548583D01*
X153174458Y-96537767D01*
X153223284Y-96499276D01*
X153285411Y-96496835D01*
X153323673Y-96519261D01*
X153324541Y-96520560D01*
X153391921Y-96565581D01*
X153451337Y-96577400D01*
X153896035Y-96577400D01*
X153912725Y-96578794D01*
X153964970Y-96587584D01*
X153964977Y-96587585D01*
X153968801Y-96588228D01*
X153972683Y-96588275D01*
X153972689Y-96588276D01*
X153974554Y-96588298D01*
X153980000Y-96588365D01*
X153996266Y-96586035D01*
X154003938Y-96585236D01*
X154147054Y-96575855D01*
X154165546Y-96574643D01*
X154165547Y-96574643D01*
X154168825Y-96574428D01*
X154172049Y-96573787D01*
X154172054Y-96573786D01*
X154190429Y-96570131D01*
X154248551Y-96575855D01*
X154302403Y-96598161D01*
X154308939Y-96599021D01*
X154308941Y-96599022D01*
X154453460Y-96618048D01*
X154460000Y-96618909D01*
X154466540Y-96618048D01*
X154611059Y-96599022D01*
X154611061Y-96599021D01*
X154617597Y-96598161D01*
X154764455Y-96537331D01*
X154890564Y-96440564D01*
X154987331Y-96314454D01*
X155048161Y-96167597D01*
X155051910Y-96139119D01*
X155080514Y-96081115D01*
X155118464Y-96043165D01*
X155173862Y-96014939D01*
X155189599Y-96013700D01*
X155200272Y-96013700D01*
X155203527Y-96013271D01*
X155203534Y-96013271D01*
X155232095Y-96009510D01*
X155250328Y-96007110D01*
X155360179Y-95955886D01*
X155376912Y-95939153D01*
X155393299Y-95922767D01*
X155448697Y-95894541D01*
X155510106Y-95904268D01*
X155535568Y-95922768D01*
X155599927Y-95987127D01*
X155612582Y-95996321D01*
X155709674Y-96045792D01*
X155715187Y-96047583D01*
X155723649Y-96046242D01*
X155724439Y-96045452D01*
X155726000Y-96038951D01*
X155726000Y-96034922D01*
X156234000Y-96034922D01*
X156238188Y-96047812D01*
X156239091Y-96048468D01*
X156241507Y-96048658D01*
X156249671Y-96046005D01*
X156311845Y-96046005D01*
X156322599Y-96053818D01*
X156328620Y-96021917D01*
X156357743Y-95988820D01*
X156360072Y-95987128D01*
X156437127Y-95910073D01*
X156446321Y-95897418D01*
X156495792Y-95800326D01*
X156500626Y-95785448D01*
X156503114Y-95769738D01*
X156500994Y-95756350D01*
X156500206Y-95755562D01*
X156493701Y-95754000D01*
X156249933Y-95754000D01*
X156237043Y-95758188D01*
X156234000Y-95762377D01*
X156234000Y-96034922D01*
X155726000Y-96034922D01*
X155726000Y-95346600D01*
X155745213Y-95287469D01*
X155795513Y-95250924D01*
X155826600Y-95246000D01*
X156489673Y-95246000D01*
X156502563Y-95241812D01*
X156503219Y-95240909D01*
X156503744Y-95234240D01*
X156500625Y-95214551D01*
X156495792Y-95199674D01*
X156446321Y-95102582D01*
X156437127Y-95089927D01*
X156434860Y-95087660D01*
X156433404Y-95084803D01*
X156432473Y-95083521D01*
X156432676Y-95083374D01*
X156406634Y-95032262D01*
X156416360Y-94970854D01*
X156460324Y-94926890D01*
X156519122Y-94916785D01*
X156531608Y-94918429D01*
X156538148Y-94917568D01*
X156682667Y-94898542D01*
X156682669Y-94898541D01*
X156689205Y-94897681D01*
X156836063Y-94836851D01*
X156937928Y-94758687D01*
X156996533Y-94737933D01*
X157056147Y-94755592D01*
X157093997Y-94804918D01*
X157095624Y-94867070D01*
X157084073Y-94890756D01*
X157083066Y-94891765D01*
X157079416Y-94899233D01*
X157079414Y-94899235D01*
X157055903Y-94947334D01*
X157031354Y-94997555D01*
X157028487Y-95017206D01*
X157021831Y-95062835D01*
X157021300Y-95066473D01*
X157021301Y-95433526D01*
X157031533Y-95503045D01*
X157083429Y-95608744D01*
X157089313Y-95614618D01*
X157089314Y-95614619D01*
X157153560Y-95678753D01*
X157181835Y-95734126D01*
X157172162Y-95795543D01*
X157153684Y-95821023D01*
X157083066Y-95891765D01*
X157080679Y-95896647D01*
X157031927Y-95932720D01*
X157024454Y-95934903D01*
X157005104Y-95939750D01*
X156976826Y-95949868D01*
X156690752Y-96052226D01*
X156690745Y-96052229D01*
X156688425Y-96053059D01*
X156459881Y-96161151D01*
X156398214Y-96169064D01*
X156376348Y-96157099D01*
X156362145Y-96200812D01*
X156332477Y-96227969D01*
X156095887Y-96369775D01*
X156093909Y-96371242D01*
X156093903Y-96371246D01*
X155839295Y-96560076D01*
X155825736Y-96570132D01*
X155691365Y-96691917D01*
X155615981Y-96760240D01*
X155559265Y-96785714D01*
X155548423Y-96786300D01*
X155539728Y-96786300D01*
X155536473Y-96786729D01*
X155536466Y-96786729D01*
X155507905Y-96790490D01*
X155489672Y-96792890D01*
X155482697Y-96796143D01*
X155482692Y-96796144D01*
X155467020Y-96803452D01*
X155415526Y-96812475D01*
X155414857Y-96812415D01*
X155411035Y-96811772D01*
X155399836Y-96811635D01*
X155395994Y-96812185D01*
X155395985Y-96812186D01*
X155394654Y-96812377D01*
X155386973Y-96813178D01*
X155256884Y-96821702D01*
X155157382Y-96828222D01*
X155154151Y-96828865D01*
X155154148Y-96828865D01*
X154999746Y-96859575D01*
X154919076Y-96875620D01*
X154688995Y-96953719D01*
X154471078Y-97061182D01*
X154269052Y-97196170D01*
X154266573Y-97198344D01*
X154142579Y-97307083D01*
X154140427Y-97308742D01*
X154140309Y-97308803D01*
X154139958Y-97309103D01*
X154136730Y-97311860D01*
X154136724Y-97311866D01*
X154135231Y-97313141D01*
X154133837Y-97314535D01*
X154132390Y-97315873D01*
X154132380Y-97315862D01*
X154129613Y-97318454D01*
X154108077Y-97337341D01*
X154100103Y-97343650D01*
X154093903Y-97348065D01*
X154091128Y-97350773D01*
X154091123Y-97350777D01*
X154089895Y-97351976D01*
X154085887Y-97355887D01*
X154073466Y-97372460D01*
X154070449Y-97376486D01*
X154061083Y-97387289D01*
X153571267Y-97877106D01*
X153558488Y-97887915D01*
X153546242Y-97896636D01*
X153546234Y-97896642D01*
X153543074Y-97898893D01*
X153542473Y-97899480D01*
X153485483Y-97922369D01*
X153478672Y-97922600D01*
X153451296Y-97922600D01*
X153391880Y-97934419D01*
X153324500Y-97979440D01*
X153279479Y-98046820D01*
X153267660Y-98106236D01*
X153267660Y-98396115D01*
X153264883Y-98419590D01*
X153255479Y-98458778D01*
X153255170Y-98462710D01*
X153255169Y-98462716D01*
X153246445Y-98573705D01*
X153245361Y-98582503D01*
X153241731Y-98604093D01*
X153241595Y-98615292D01*
X153260031Y-98743938D01*
X153262996Y-98750458D01*
X153263614Y-98752570D01*
X153267660Y-98780813D01*
X153267660Y-99124264D01*
X153279479Y-99183680D01*
X153324500Y-99251060D01*
X153391880Y-99296081D01*
X153451296Y-99307900D01*
X153948624Y-99307900D01*
X154008040Y-99296081D01*
X154075420Y-99251060D01*
X154120441Y-99183680D01*
X154132260Y-99124264D01*
X154132260Y-98780570D01*
X154136306Y-98753491D01*
X154138309Y-98749223D01*
X154139796Y-98739673D01*
X154157190Y-98627891D01*
X154157190Y-98627890D01*
X154158292Y-98620808D01*
X154157946Y-98618164D01*
X154177212Y-98561226D01*
X154179254Y-98558893D01*
X154179373Y-98558806D01*
X154197127Y-98535705D01*
X154205757Y-98525872D01*
X154240123Y-98491506D01*
X155201342Y-98491506D01*
X155204208Y-98500326D01*
X155253679Y-98597418D01*
X155262873Y-98610073D01*
X155339927Y-98687127D01*
X155352582Y-98696321D01*
X155449674Y-98745792D01*
X155464552Y-98750626D01*
X155480262Y-98753114D01*
X155493650Y-98750994D01*
X155494438Y-98750206D01*
X155496000Y-98743701D01*
X155496000Y-98739673D01*
X156004000Y-98739673D01*
X156008188Y-98752563D01*
X156009091Y-98753219D01*
X156015760Y-98753744D01*
X156035449Y-98750625D01*
X156050326Y-98745792D01*
X156147418Y-98696321D01*
X156160073Y-98687127D01*
X156237127Y-98610073D01*
X156246321Y-98597418D01*
X156285768Y-98520000D01*
X157961091Y-98520000D01*
X157961952Y-98526540D01*
X157980657Y-98668616D01*
X157981839Y-98677597D01*
X157989595Y-98696321D01*
X158037667Y-98812377D01*
X158042669Y-98824454D01*
X158139436Y-98950564D01*
X158265545Y-99047331D01*
X158412403Y-99108161D01*
X158418939Y-99109021D01*
X158418941Y-99109022D01*
X158563460Y-99128048D01*
X158570000Y-99128909D01*
X158576540Y-99128048D01*
X158721059Y-99109022D01*
X158721061Y-99109021D01*
X158727597Y-99108161D01*
X158874455Y-99047331D01*
X158943320Y-98994489D01*
X159004561Y-98973700D01*
X159429228Y-98973700D01*
X159445914Y-98975093D01*
X159464553Y-98978228D01*
X159475752Y-98978365D01*
X159479604Y-98977813D01*
X159479607Y-98977813D01*
X159491169Y-98976157D01*
X159498844Y-98975357D01*
X159641427Y-98966007D01*
X159665782Y-98964410D01*
X159665783Y-98964410D01*
X159669075Y-98964194D01*
X159765610Y-98944989D01*
X160721001Y-98944989D01*
X160721295Y-98950413D01*
X160727014Y-99003070D01*
X160729910Y-99015249D01*
X160775855Y-99137807D01*
X160782672Y-99150259D01*
X160860654Y-99254311D01*
X160870689Y-99264346D01*
X160974741Y-99342328D01*
X160987193Y-99349145D01*
X161109749Y-99395089D01*
X161121932Y-99397986D01*
X161174589Y-99403707D01*
X161180009Y-99404000D01*
X161605067Y-99404000D01*
X161617957Y-99399812D01*
X161621000Y-99395623D01*
X161621000Y-99388066D01*
X162129000Y-99388066D01*
X162133188Y-99400956D01*
X162137377Y-99403999D01*
X162569989Y-99403999D01*
X162575413Y-99403705D01*
X162628070Y-99397986D01*
X162640249Y-99395090D01*
X162762807Y-99349145D01*
X162775259Y-99342328D01*
X162879311Y-99264346D01*
X162889346Y-99254311D01*
X162967328Y-99150259D01*
X162974145Y-99137807D01*
X163020089Y-99015251D01*
X163022986Y-99003068D01*
X163028707Y-98950411D01*
X163029000Y-98944991D01*
X163029000Y-98819933D01*
X163024812Y-98807043D01*
X163020623Y-98804000D01*
X162144933Y-98804000D01*
X162132043Y-98808188D01*
X162129000Y-98812377D01*
X162129000Y-99388066D01*
X161621000Y-99388066D01*
X161621000Y-98819933D01*
X161616812Y-98807043D01*
X161612623Y-98804000D01*
X160736934Y-98804000D01*
X160724044Y-98808188D01*
X160721001Y-98812377D01*
X160721001Y-98944989D01*
X159765610Y-98944989D01*
X159859089Y-98926392D01*
X159862203Y-98925335D01*
X159862210Y-98925333D01*
X160039433Y-98865170D01*
X160042544Y-98864114D01*
X160211455Y-98780813D01*
X160213347Y-98779880D01*
X160213349Y-98779879D01*
X160216301Y-98778423D01*
X160219039Y-98776593D01*
X160219045Y-98776590D01*
X160374644Y-98672620D01*
X160374646Y-98672619D01*
X160377387Y-98670787D01*
X160426300Y-98627891D01*
X160495331Y-98567352D01*
X160503303Y-98561044D01*
X160516097Y-98551935D01*
X160524113Y-98544113D01*
X160526434Y-98541017D01*
X160528092Y-98539128D01*
X160529816Y-98537214D01*
X160722921Y-98328313D01*
X160777168Y-98297933D01*
X160796794Y-98296000D01*
X161605067Y-98296000D01*
X161617957Y-98291812D01*
X161621000Y-98287623D01*
X161621000Y-98280067D01*
X162129000Y-98280067D01*
X162133188Y-98292957D01*
X162137377Y-98296000D01*
X163013066Y-98296000D01*
X163025956Y-98291812D01*
X163028999Y-98287623D01*
X163028999Y-98155011D01*
X163028705Y-98149587D01*
X163022986Y-98096930D01*
X163020090Y-98084751D01*
X162974145Y-97962193D01*
X162967328Y-97949741D01*
X162889346Y-97845689D01*
X162879311Y-97835654D01*
X162775259Y-97757672D01*
X162762807Y-97750855D01*
X162640251Y-97704911D01*
X162628068Y-97702014D01*
X162575411Y-97696293D01*
X162569991Y-97696000D01*
X162144933Y-97696000D01*
X162132043Y-97700188D01*
X162129000Y-97704377D01*
X162129000Y-98280067D01*
X161621000Y-98280067D01*
X161621000Y-97711934D01*
X161616812Y-97699044D01*
X161612623Y-97696001D01*
X161398077Y-97696001D01*
X161338946Y-97676788D01*
X161302401Y-97626488D01*
X161302401Y-97564314D01*
X161311104Y-97545441D01*
X161310876Y-97545313D01*
X161422598Y-97345818D01*
X161518379Y-97174788D01*
X161610018Y-96976007D01*
X161695341Y-96790928D01*
X161695343Y-96790924D01*
X161696172Y-96789125D01*
X161698382Y-96783136D01*
X161757270Y-96623512D01*
X161843158Y-96390702D01*
X161938886Y-96051274D01*
X161957891Y-95983886D01*
X161957892Y-95983880D01*
X161958430Y-95981974D01*
X161958815Y-95980039D01*
X161958818Y-95980026D01*
X162040893Y-95567403D01*
X162041279Y-95565463D01*
X162091193Y-95143734D01*
X162103408Y-94832836D01*
X162106934Y-94743081D01*
X162107258Y-94738044D01*
X162107583Y-94734421D01*
X162108228Y-94730589D01*
X162108365Y-94719390D01*
X162104716Y-94693909D01*
X162103700Y-94679648D01*
X162103700Y-91617298D01*
X162105094Y-91600609D01*
X162107583Y-91585812D01*
X162108228Y-91581979D01*
X162108365Y-91570780D01*
X162107814Y-91566936D01*
X162107779Y-91566392D01*
X162106935Y-91557343D01*
X162103796Y-91485452D01*
X162103700Y-91481064D01*
X162103700Y-91308236D01*
X162093720Y-91241852D01*
X162092698Y-91231286D01*
X162092364Y-91223630D01*
X162092364Y-91223627D01*
X162092268Y-91221434D01*
X162072351Y-91070154D01*
X162046913Y-90876939D01*
X162046911Y-90876930D01*
X162046624Y-90874747D01*
X162045523Y-90869778D01*
X161978529Y-90567597D01*
X161970938Y-90533357D01*
X161963404Y-90509460D01*
X161875621Y-90231053D01*
X161865787Y-90199863D01*
X161731970Y-89876802D01*
X161718089Y-89850136D01*
X161571516Y-89568575D01*
X161571515Y-89568574D01*
X161570505Y-89566633D01*
X161448001Y-89374340D01*
X161383802Y-89273567D01*
X161383797Y-89273560D01*
X161382623Y-89271717D01*
X161169751Y-88994299D01*
X161125942Y-88946489D01*
X160990676Y-88798872D01*
X160951795Y-88756440D01*
X160944952Y-88747983D01*
X160944194Y-88747075D01*
X160941935Y-88743903D01*
X160934113Y-88735887D01*
X160913518Y-88720452D01*
X160902715Y-88711086D01*
X160887769Y-88696140D01*
X160877673Y-88684350D01*
X160868734Y-88672115D01*
X160868732Y-88672113D01*
X160864505Y-88666327D01*
X160850796Y-88655789D01*
X160837096Y-88643067D01*
X160698119Y-88487552D01*
X160691086Y-88478733D01*
X160556140Y-88288546D01*
X160550138Y-88278993D01*
X160437341Y-88074903D01*
X160432446Y-88064739D01*
X160343206Y-87849297D01*
X160339480Y-87838649D01*
X160337438Y-87831560D01*
X160274923Y-87614566D01*
X160272414Y-87603576D01*
X160272367Y-87603295D01*
X160233352Y-87373669D01*
X160232089Y-87362462D01*
X160231985Y-87360601D01*
X160229237Y-87311675D01*
X160245105Y-87251560D01*
X160249868Y-87244794D01*
X160288313Y-87194691D01*
X160288315Y-87194688D01*
X160292331Y-87189454D01*
X160353161Y-87042597D01*
X160354340Y-87033646D01*
X160373048Y-86891540D01*
X160373909Y-86885000D01*
X160363828Y-86808429D01*
X160354022Y-86733941D01*
X160354021Y-86733939D01*
X160353161Y-86727403D01*
X160310572Y-86624584D01*
X160294854Y-86586636D01*
X160294852Y-86586633D01*
X160292331Y-86580546D01*
X160195564Y-86454436D01*
X160069455Y-86357669D01*
X159922597Y-86296839D01*
X159916061Y-86295979D01*
X159916059Y-86295978D01*
X159771540Y-86276952D01*
X159765000Y-86276091D01*
X159758460Y-86276952D01*
X159613941Y-86295978D01*
X159613939Y-86295979D01*
X159607403Y-86296839D01*
X159523112Y-86331753D01*
X159466636Y-86355146D01*
X159466633Y-86355148D01*
X159460546Y-86357669D01*
X159334436Y-86454436D01*
X159237669Y-86580546D01*
X159235148Y-86586633D01*
X159235146Y-86586636D01*
X159219428Y-86624584D01*
X159176839Y-86727403D01*
X159175979Y-86733939D01*
X159175978Y-86733941D01*
X159166172Y-86808429D01*
X159156091Y-86885000D01*
X159156952Y-86891540D01*
X159166760Y-86966041D01*
X159159534Y-87005030D01*
X159176054Y-87036634D01*
X159176839Y-87042597D01*
X159237669Y-87189454D01*
X159292859Y-87261379D01*
X159296665Y-87266339D01*
X159317332Y-87322643D01*
X159322297Y-87423712D01*
X159322459Y-87427000D01*
X159366973Y-87727087D01*
X159387257Y-87808066D01*
X159440087Y-88018977D01*
X159440090Y-88018988D01*
X159440686Y-88021366D01*
X159441517Y-88023688D01*
X159541708Y-88303700D01*
X159542889Y-88307002D01*
X159672596Y-88581246D01*
X159828561Y-88841455D01*
X160009279Y-89085124D01*
X160046936Y-89126672D01*
X160193854Y-89288770D01*
X160201262Y-89297977D01*
X160202265Y-89299385D01*
X160202272Y-89299393D01*
X160204523Y-89302555D01*
X160212345Y-89310571D01*
X160215451Y-89312899D01*
X160215458Y-89312905D01*
X160232944Y-89326010D01*
X160243747Y-89335376D01*
X160258687Y-89350316D01*
X160268783Y-89362105D01*
X160281951Y-89380129D01*
X160296598Y-89391388D01*
X160309815Y-89403576D01*
X160461359Y-89570779D01*
X160489978Y-89602355D01*
X160496239Y-89609985D01*
X160532031Y-89658245D01*
X160671406Y-89846170D01*
X160676890Y-89854378D01*
X160828061Y-90106590D01*
X160832715Y-90115297D01*
X160958438Y-90381114D01*
X160962216Y-90390235D01*
X161061278Y-90667093D01*
X161064144Y-90676540D01*
X161135594Y-90961780D01*
X161137520Y-90971463D01*
X161180666Y-91262325D01*
X161181634Y-91272149D01*
X161187963Y-91400956D01*
X161192570Y-91494718D01*
X161194481Y-91533622D01*
X161193404Y-91554035D01*
X161192772Y-91558097D01*
X161191669Y-91565184D01*
X161192598Y-91572288D01*
X161192598Y-91572291D01*
X161195451Y-91594104D01*
X161196300Y-91607149D01*
X161196300Y-94676266D01*
X161195102Y-94691743D01*
X161191669Y-94713792D01*
X161193865Y-94730589D01*
X161194185Y-94733034D01*
X161194938Y-94750465D01*
X161179864Y-95095769D01*
X161179376Y-95106936D01*
X161178612Y-95115668D01*
X161160805Y-95250924D01*
X161128551Y-95495916D01*
X161127027Y-95504559D01*
X161105585Y-95601280D01*
X161052461Y-95840911D01*
X161044020Y-95878985D01*
X161041752Y-95887451D01*
X160947159Y-96187464D01*
X160926421Y-96253238D01*
X160923420Y-96261483D01*
X160785008Y-96595638D01*
X160776653Y-96615809D01*
X160772945Y-96623761D01*
X160728974Y-96708228D01*
X160595854Y-96963951D01*
X160591466Y-96971551D01*
X160385401Y-97295009D01*
X160380367Y-97302198D01*
X160146902Y-97606455D01*
X160141261Y-97613178D01*
X159904600Y-97871448D01*
X159889775Y-97884715D01*
X159879871Y-97891951D01*
X159873039Y-97900838D01*
X159857105Y-97917287D01*
X159800371Y-97963848D01*
X159783974Y-97974805D01*
X159702808Y-98018190D01*
X159684590Y-98025736D01*
X159596511Y-98052457D01*
X159577171Y-98056305D01*
X159556204Y-98058370D01*
X159510082Y-98062914D01*
X159495573Y-98062507D01*
X159495569Y-98062859D01*
X159488405Y-98062772D01*
X159481320Y-98061669D01*
X159474210Y-98062599D01*
X159474209Y-98062599D01*
X159452413Y-98065450D01*
X159439366Y-98066300D01*
X159004561Y-98066300D01*
X158943320Y-98045511D01*
X158913803Y-98022862D01*
X158874455Y-97992669D01*
X158831327Y-97974805D01*
X158787719Y-97956742D01*
X158740442Y-97916364D01*
X158725927Y-97855907D01*
X158749720Y-97798466D01*
X158780546Y-97774165D01*
X158858369Y-97734512D01*
X158871024Y-97725318D01*
X158950318Y-97646024D01*
X158959512Y-97633369D01*
X159010420Y-97533457D01*
X159015008Y-97519338D01*
X159012951Y-97506350D01*
X159012162Y-97505561D01*
X159005660Y-97504000D01*
X158269933Y-97504000D01*
X158257043Y-97508188D01*
X158254000Y-97512377D01*
X158254000Y-97788066D01*
X158258188Y-97800956D01*
X158282044Y-97818288D01*
X158280468Y-97820457D01*
X158297362Y-97829064D01*
X158325589Y-97884461D01*
X158315864Y-97945870D01*
X158276527Y-97987323D01*
X158271638Y-97990145D01*
X158265546Y-97992669D01*
X158139436Y-98089436D01*
X158042669Y-98215546D01*
X157981839Y-98362403D01*
X157980979Y-98368939D01*
X157980978Y-98368941D01*
X157965830Y-98484000D01*
X157961091Y-98520000D01*
X156285768Y-98520000D01*
X156295792Y-98500326D01*
X156297583Y-98494813D01*
X156296242Y-98486351D01*
X156295452Y-98485561D01*
X156288951Y-98484000D01*
X156019933Y-98484000D01*
X156007043Y-98488188D01*
X156004000Y-98492377D01*
X156004000Y-98739673D01*
X155496000Y-98739673D01*
X155496000Y-98499933D01*
X155491812Y-98487043D01*
X155487623Y-98484000D01*
X155215078Y-98484000D01*
X155202188Y-98488188D01*
X155201532Y-98489091D01*
X155201342Y-98491506D01*
X154240123Y-98491506D01*
X154700316Y-98031313D01*
X154712106Y-98021217D01*
X154724337Y-98012282D01*
X154724343Y-98012276D01*
X154730129Y-98008049D01*
X154738595Y-97997036D01*
X154753014Y-97981855D01*
X154755842Y-97979440D01*
X154837686Y-97909538D01*
X154850455Y-97900261D01*
X154963546Y-97830960D01*
X154977601Y-97823799D01*
X155058584Y-97790255D01*
X155100139Y-97773043D01*
X155114990Y-97768205D01*
X155115449Y-97768094D01*
X155177439Y-97772869D01*
X155224783Y-97813170D01*
X155239398Y-97873602D01*
X155228731Y-97911546D01*
X155204207Y-97959679D01*
X155202417Y-97965187D01*
X155203758Y-97973649D01*
X155204548Y-97974439D01*
X155211049Y-97976000D01*
X156284922Y-97976000D01*
X156297812Y-97971812D01*
X156298468Y-97970909D01*
X156298658Y-97968494D01*
X156295792Y-97959674D01*
X156246321Y-97862582D01*
X156237127Y-97849927D01*
X156172768Y-97785568D01*
X156144542Y-97730170D01*
X156154268Y-97668762D01*
X156172767Y-97643299D01*
X156199661Y-97616404D01*
X156205886Y-97610179D01*
X156249914Y-97515761D01*
X156984299Y-97515761D01*
X156984746Y-97518579D01*
X156989579Y-97533454D01*
X157040488Y-97633369D01*
X157049682Y-97646024D01*
X157128976Y-97725318D01*
X157141631Y-97734512D01*
X157241545Y-97785421D01*
X157256423Y-97790255D01*
X157339294Y-97803381D01*
X157347162Y-97804000D01*
X157730067Y-97804000D01*
X157742957Y-97799812D01*
X157746000Y-97795623D01*
X157746000Y-97519933D01*
X157741812Y-97507043D01*
X157737623Y-97504000D01*
X156998370Y-97504000D01*
X156985480Y-97508188D01*
X156984824Y-97509091D01*
X156984299Y-97515761D01*
X156249914Y-97515761D01*
X156257110Y-97500328D01*
X156263700Y-97450272D01*
X156263700Y-97446987D01*
X156263916Y-97443690D01*
X156264908Y-97443755D01*
X156282913Y-97388341D01*
X156297266Y-97372460D01*
X156427217Y-97256329D01*
X156436037Y-97249295D01*
X156656912Y-97092577D01*
X156666464Y-97086575D01*
X156751577Y-97039535D01*
X156866524Y-96976007D01*
X156927569Y-96964220D01*
X156986321Y-96992922D01*
X156987838Y-96994439D01*
X156994340Y-96996000D01*
X159001630Y-96996000D01*
X159014520Y-96991812D01*
X159015176Y-96990909D01*
X159015701Y-96984239D01*
X159015254Y-96981421D01*
X159010421Y-96966546D01*
X158955917Y-96859575D01*
X158957266Y-96858887D01*
X158940789Y-96808173D01*
X158960002Y-96749042D01*
X159010303Y-96712497D01*
X159030618Y-96708599D01*
X159030585Y-96708365D01*
X159038694Y-96707204D01*
X159045060Y-96706498D01*
X159155852Y-96697780D01*
X159230359Y-96691917D01*
X159313204Y-96672029D01*
X159362214Y-96672543D01*
X159507928Y-96710770D01*
X159507931Y-96710770D01*
X159513796Y-96712309D01*
X159596710Y-96713612D01*
X159678033Y-96714890D01*
X159678035Y-96714890D01*
X159684097Y-96714985D01*
X159690008Y-96713631D01*
X159690010Y-96713631D01*
X159844210Y-96678314D01*
X159844213Y-96678313D01*
X159850120Y-96676960D01*
X160002282Y-96600431D01*
X160006894Y-96596492D01*
X160006897Y-96596490D01*
X160127184Y-96493755D01*
X160131796Y-96489816D01*
X160197331Y-96398614D01*
X160227649Y-96356423D01*
X160227651Y-96356420D01*
X160231186Y-96351500D01*
X160280845Y-96227969D01*
X160292452Y-96199097D01*
X160292453Y-96199094D01*
X160294714Y-96193469D01*
X160298188Y-96169064D01*
X160314589Y-96053818D01*
X160318713Y-96024845D01*
X160318789Y-96017591D01*
X160318834Y-96013295D01*
X160318834Y-96013289D01*
X160318868Y-96010000D01*
X160300882Y-95861374D01*
X160312708Y-95800623D01*
X160318078Y-95790907D01*
X160318080Y-95790904D01*
X160319444Y-95788435D01*
X160404982Y-95581927D01*
X160409167Y-95567403D01*
X160442454Y-95451860D01*
X160466862Y-95367141D01*
X160470352Y-95346600D01*
X160503830Y-95149561D01*
X160503830Y-95149558D01*
X160504303Y-95146776D01*
X160511901Y-95011500D01*
X160512540Y-95000115D01*
X160513103Y-94995610D01*
X160513176Y-94995380D01*
X160513700Y-94988722D01*
X160513700Y-94982292D01*
X160513858Y-94976651D01*
X160514884Y-94958382D01*
X160516120Y-94947334D01*
X160517583Y-94938637D01*
X160518228Y-94934804D01*
X160518365Y-94923605D01*
X160516182Y-94908364D01*
X160514716Y-94898124D01*
X160513700Y-94883863D01*
X160513700Y-91039374D01*
X160515095Y-91022677D01*
X160518227Y-91004069D01*
X160518365Y-90992870D01*
X160516263Y-90978180D01*
X160515560Y-90971831D01*
X160514010Y-90952127D01*
X160513700Y-90944238D01*
X160513700Y-90722055D01*
X160515092Y-90705375D01*
X160517585Y-90690549D01*
X160517585Y-90690545D01*
X160518229Y-90686717D01*
X160518365Y-90675518D01*
X160515874Y-90658139D01*
X160522514Y-90605372D01*
X160524422Y-90600766D01*
X160538161Y-90567597D01*
X160539892Y-90554454D01*
X160558048Y-90416540D01*
X160558909Y-90410000D01*
X160554862Y-90379259D01*
X160539022Y-90258941D01*
X160539021Y-90258939D01*
X160538161Y-90252403D01*
X160483376Y-90120139D01*
X160479854Y-90111636D01*
X160479852Y-90111633D01*
X160477331Y-90105546D01*
X160380564Y-89979436D01*
X160254455Y-89882669D01*
X160107597Y-89821839D01*
X160101061Y-89820979D01*
X160101059Y-89820978D01*
X159956540Y-89801952D01*
X159950000Y-89801091D01*
X159943460Y-89801952D01*
X159798941Y-89820978D01*
X159798939Y-89820979D01*
X159792403Y-89821839D01*
X159733663Y-89846170D01*
X159651636Y-89880146D01*
X159651633Y-89880148D01*
X159645546Y-89882669D01*
X159519436Y-89979436D01*
X159422669Y-90105546D01*
X159420148Y-90111633D01*
X159420146Y-90111636D01*
X159416624Y-90120139D01*
X159361839Y-90252403D01*
X159360979Y-90258939D01*
X159360978Y-90258941D01*
X159345138Y-90379259D01*
X159341091Y-90410000D01*
X159341952Y-90416540D01*
X159360109Y-90554454D01*
X159361839Y-90567597D01*
X159396753Y-90651888D01*
X159419667Y-90707206D01*
X159422669Y-90714454D01*
X159519436Y-90840564D01*
X159557510Y-90869780D01*
X159589209Y-90911092D01*
X159593431Y-90921286D01*
X159600224Y-90946644D01*
X159601990Y-90960063D01*
X159602842Y-90974427D01*
X159602772Y-90980136D01*
X159601669Y-90987214D01*
X159602597Y-90994314D01*
X159602597Y-90994316D01*
X159605452Y-91016157D01*
X159606300Y-91029195D01*
X159606300Y-94880477D01*
X159605102Y-94895954D01*
X159603170Y-94908364D01*
X159601669Y-94918003D01*
X159602598Y-94925107D01*
X159602598Y-94925109D01*
X159603470Y-94931778D01*
X159604010Y-94952716D01*
X159596808Y-95044222D01*
X159593592Y-95085083D01*
X159591122Y-95100675D01*
X159557075Y-95242487D01*
X159524589Y-95295499D01*
X159482740Y-95316822D01*
X159362908Y-95345591D01*
X159357522Y-95348371D01*
X159357519Y-95348372D01*
X159237959Y-95410082D01*
X159211557Y-95423709D01*
X159145431Y-95481394D01*
X159088243Y-95505788D01*
X159027638Y-95491908D01*
X158986766Y-95445056D01*
X158978700Y-95405586D01*
X158978699Y-95070154D01*
X158978699Y-95066474D01*
X158968467Y-94996955D01*
X158937952Y-94934804D01*
X158920236Y-94898720D01*
X158920235Y-94898719D01*
X158916571Y-94891256D01*
X158909165Y-94883863D01*
X158846440Y-94821247D01*
X158818165Y-94765874D01*
X158827838Y-94704457D01*
X158846316Y-94678977D01*
X158868689Y-94656565D01*
X158916934Y-94608235D01*
X158968646Y-94502445D01*
X158974993Y-94458941D01*
X158978174Y-94437136D01*
X158978174Y-94437129D01*
X158978700Y-94433527D01*
X158978699Y-94066474D01*
X158968467Y-93996955D01*
X158916571Y-93891256D01*
X158904250Y-93878956D01*
X158881996Y-93856742D01*
X158853720Y-93801369D01*
X158863392Y-93739952D01*
X158881933Y-93714409D01*
X158950318Y-93646024D01*
X158959512Y-93633369D01*
X159010420Y-93533457D01*
X159015008Y-93519338D01*
X159012951Y-93506350D01*
X159012162Y-93505561D01*
X159005660Y-93504000D01*
X156998370Y-93504000D01*
X156985480Y-93508188D01*
X156984824Y-93509091D01*
X156984299Y-93515761D01*
X156984746Y-93518579D01*
X156989579Y-93533454D01*
X157040488Y-93633369D01*
X157049682Y-93646024D01*
X157118079Y-93714421D01*
X157146305Y-93769819D01*
X157136579Y-93831227D01*
X157118141Y-93856628D01*
X157118028Y-93856742D01*
X157099596Y-93875206D01*
X157044223Y-93903480D01*
X156982806Y-93893807D01*
X156962235Y-93878874D01*
X156962172Y-93878956D01*
X156959106Y-93876603D01*
X156959097Y-93876597D01*
X156836063Y-93782189D01*
X156689205Y-93721359D01*
X156682669Y-93720499D01*
X156682667Y-93720498D01*
X156538148Y-93701472D01*
X156531608Y-93700611D01*
X156525068Y-93701472D01*
X156380549Y-93720498D01*
X156380547Y-93720499D01*
X156374011Y-93721359D01*
X156342161Y-93734552D01*
X156313696Y-93746342D01*
X156275198Y-93754000D01*
X155856600Y-93754000D01*
X155797469Y-93734787D01*
X155760924Y-93684487D01*
X155756000Y-93653400D01*
X155756000Y-93119933D01*
X155745832Y-93088638D01*
X155730924Y-93068120D01*
X155726000Y-93037032D01*
X155726000Y-92870067D01*
X156234000Y-92870067D01*
X156244168Y-92901362D01*
X156259076Y-92921880D01*
X156264000Y-92952968D01*
X156264000Y-93230067D01*
X156268188Y-93242957D01*
X156272377Y-93246000D01*
X156511988Y-93246000D01*
X156524878Y-93241812D01*
X156525533Y-93240910D01*
X156526058Y-93234238D01*
X156520812Y-93201116D01*
X156515978Y-93186237D01*
X156467226Y-93090557D01*
X156458032Y-93077902D01*
X156434800Y-93054670D01*
X156406574Y-92999272D01*
X156416300Y-92937864D01*
X156434800Y-92912400D01*
X156437127Y-92910073D01*
X156446321Y-92897418D01*
X156495792Y-92800326D01*
X156500626Y-92785448D01*
X156503114Y-92769738D01*
X156500994Y-92756350D01*
X156500206Y-92755562D01*
X156493701Y-92754000D01*
X156249933Y-92754000D01*
X156237043Y-92758188D01*
X156234000Y-92762377D01*
X156234000Y-92870067D01*
X155726000Y-92870067D01*
X155726000Y-92230067D01*
X156234000Y-92230067D01*
X156238188Y-92242957D01*
X156242377Y-92246000D01*
X156489673Y-92246000D01*
X156502563Y-92241812D01*
X156503219Y-92240909D01*
X156503744Y-92234240D01*
X156500625Y-92214551D01*
X156495792Y-92199674D01*
X156446321Y-92102582D01*
X156437127Y-92089927D01*
X156360073Y-92012873D01*
X156347418Y-92003679D01*
X156250326Y-91954208D01*
X156244813Y-91952417D01*
X156236351Y-91953758D01*
X156235561Y-91954548D01*
X156234000Y-91961049D01*
X156234000Y-92230067D01*
X155726000Y-92230067D01*
X155726000Y-91965078D01*
X155721812Y-91952188D01*
X155720909Y-91951532D01*
X155718494Y-91951342D01*
X155709674Y-91954208D01*
X155627898Y-91995875D01*
X155566490Y-92005601D01*
X155511092Y-91977375D01*
X155482866Y-91921977D01*
X155492591Y-91860571D01*
X155503057Y-91840031D01*
X155521554Y-91814573D01*
X155564573Y-91771554D01*
X155590035Y-91753055D01*
X155637772Y-91728732D01*
X155699179Y-91719005D01*
X155711326Y-91722808D01*
X155711620Y-91721799D01*
X155719008Y-91723952D01*
X155725986Y-91727206D01*
X155744627Y-91729660D01*
X155772050Y-91733271D01*
X155772057Y-91733271D01*
X155775312Y-91733700D01*
X156224688Y-91733700D01*
X156227943Y-91733271D01*
X156227950Y-91733271D01*
X156255373Y-91729660D01*
X156274014Y-91727206D01*
X156304211Y-91713125D01*
X156346726Y-91703700D01*
X157028232Y-91703700D01*
X157087363Y-91722913D01*
X157123908Y-91773213D01*
X157123908Y-91835387D01*
X157099430Y-91875372D01*
X157083066Y-91891765D01*
X157031354Y-91997555D01*
X157028830Y-92014857D01*
X157021831Y-92062835D01*
X157021300Y-92066473D01*
X157021301Y-92433526D01*
X157031533Y-92503045D01*
X157083429Y-92608744D01*
X157089313Y-92614618D01*
X157089314Y-92614619D01*
X157118004Y-92643258D01*
X157146280Y-92698631D01*
X157136608Y-92760048D01*
X157118067Y-92785591D01*
X157049682Y-92853976D01*
X157040488Y-92866631D01*
X156989580Y-92966543D01*
X156984992Y-92980662D01*
X156987049Y-92993650D01*
X156987838Y-92994439D01*
X156994340Y-92996000D01*
X159001630Y-92996000D01*
X159014520Y-92991812D01*
X159015176Y-92990909D01*
X159015701Y-92984239D01*
X159015254Y-92981421D01*
X159010421Y-92966546D01*
X158959512Y-92866631D01*
X158950318Y-92853976D01*
X158881921Y-92785579D01*
X158853695Y-92730181D01*
X158863421Y-92668773D01*
X158881858Y-92643373D01*
X158904671Y-92620520D01*
X158911062Y-92614118D01*
X158911064Y-92614116D01*
X158916934Y-92608235D01*
X158959199Y-92521771D01*
X158965217Y-92509460D01*
X158968646Y-92502445D01*
X158976962Y-92445443D01*
X158978174Y-92437136D01*
X158978174Y-92437129D01*
X158978700Y-92433527D01*
X158978699Y-92066474D01*
X158968467Y-91996955D01*
X158943444Y-91945989D01*
X158920236Y-91898720D01*
X158920235Y-91898719D01*
X158916571Y-91891256D01*
X158910686Y-91885381D01*
X158846440Y-91821247D01*
X158818165Y-91765874D01*
X158827838Y-91704457D01*
X158846316Y-91678977D01*
X158911061Y-91614118D01*
X158916934Y-91608235D01*
X158920668Y-91600596D01*
X158965217Y-91509460D01*
X158968646Y-91502445D01*
X158978700Y-91433527D01*
X158978699Y-91066474D01*
X158968467Y-90996955D01*
X158926313Y-90911097D01*
X158920236Y-90898720D01*
X158920235Y-90898719D01*
X158916571Y-90891256D01*
X158900033Y-90874747D01*
X158846440Y-90821247D01*
X158818165Y-90765874D01*
X158827838Y-90704457D01*
X158846316Y-90678977D01*
X158911061Y-90614118D01*
X158916934Y-90608235D01*
X158968646Y-90502445D01*
X158978700Y-90433527D01*
X158978699Y-90066474D01*
X158968467Y-89996955D01*
X158928839Y-89916242D01*
X158920236Y-89898720D01*
X158920235Y-89898719D01*
X158916571Y-89891256D01*
X158905442Y-89880146D01*
X158846440Y-89821247D01*
X158818165Y-89765874D01*
X158827838Y-89704457D01*
X158846316Y-89678977D01*
X158900284Y-89624914D01*
X158916934Y-89608235D01*
X158968646Y-89502445D01*
X158972536Y-89475779D01*
X158978174Y-89437136D01*
X158978174Y-89437129D01*
X158978700Y-89433527D01*
X158978699Y-89066474D01*
X158968467Y-88996955D01*
X158916571Y-88891256D01*
X158890184Y-88864915D01*
X158846440Y-88821247D01*
X158818165Y-88765874D01*
X158827838Y-88704457D01*
X158846316Y-88678977D01*
X158911061Y-88614118D01*
X158916934Y-88608235D01*
X158968646Y-88502445D01*
X158973466Y-88469403D01*
X158978174Y-88437136D01*
X158978174Y-88437129D01*
X158978700Y-88433527D01*
X158978699Y-88066474D01*
X158968467Y-87996955D01*
X158916571Y-87891256D01*
X158899941Y-87874655D01*
X158846440Y-87821247D01*
X158818165Y-87765874D01*
X158827838Y-87704457D01*
X158846316Y-87678977D01*
X158857856Y-87667417D01*
X158916934Y-87608235D01*
X158968646Y-87502445D01*
X158973081Y-87472044D01*
X158978174Y-87437136D01*
X158978174Y-87437129D01*
X158978700Y-87433527D01*
X158978699Y-87066474D01*
X158979661Y-87066474D01*
X158987037Y-87036461D01*
X158970952Y-87009023D01*
X158969605Y-87004689D01*
X158968467Y-86996955D01*
X158953289Y-86966041D01*
X158920236Y-86898720D01*
X158920235Y-86898719D01*
X158916571Y-86891256D01*
X158903753Y-86878460D01*
X158846440Y-86821247D01*
X158818165Y-86765874D01*
X158827838Y-86704457D01*
X158846316Y-86678977D01*
X158863550Y-86661713D01*
X158916934Y-86608235D01*
X158968646Y-86502445D01*
X158972536Y-86475779D01*
X158978174Y-86437136D01*
X158978174Y-86437129D01*
X158978700Y-86433527D01*
X158978699Y-86066474D01*
X158968467Y-85996955D01*
X158928076Y-85914688D01*
X158920236Y-85898720D01*
X158920235Y-85898719D01*
X158916571Y-85891256D01*
X158908806Y-85883504D01*
X158839118Y-85813939D01*
X158833235Y-85808066D01*
X158824915Y-85803999D01*
X158734460Y-85759783D01*
X158727445Y-85756354D01*
X158693192Y-85751357D01*
X158662136Y-85746826D01*
X158662129Y-85746826D01*
X158658527Y-85746300D01*
X158003147Y-85746300D01*
X157341474Y-85746301D01*
X157271955Y-85756533D01*
X157256861Y-85763944D01*
X157173720Y-85804764D01*
X157173719Y-85804765D01*
X157166256Y-85808429D01*
X157083066Y-85891765D01*
X157079415Y-85899234D01*
X157077711Y-85902721D01*
X157031354Y-85997555D01*
X157030227Y-86005282D01*
X157021831Y-86062835D01*
X157021300Y-86066473D01*
X157021301Y-86433526D01*
X157031533Y-86503045D01*
X157034979Y-86510063D01*
X157073539Y-86588600D01*
X157083429Y-86608744D01*
X157089313Y-86614618D01*
X157089314Y-86614619D01*
X157153560Y-86678753D01*
X157181835Y-86734126D01*
X157172162Y-86795543D01*
X157153684Y-86821023D01*
X157083066Y-86891765D01*
X157031354Y-86997555D01*
X157028798Y-87015076D01*
X157023618Y-87050587D01*
X157021300Y-87066473D01*
X157021301Y-87433526D01*
X157031533Y-87503045D01*
X157041044Y-87522416D01*
X157072540Y-87586565D01*
X157083429Y-87608744D01*
X157089313Y-87614618D01*
X157089314Y-87614619D01*
X157153560Y-87678753D01*
X157181835Y-87734126D01*
X157172162Y-87795543D01*
X157153684Y-87821023D01*
X157083066Y-87891765D01*
X157031354Y-87997555D01*
X157029307Y-88011586D01*
X157021831Y-88062835D01*
X157021300Y-88066473D01*
X157021301Y-88433526D01*
X157031533Y-88503045D01*
X157034979Y-88510063D01*
X157076347Y-88594319D01*
X157083429Y-88608744D01*
X157089313Y-88614618D01*
X157089314Y-88614619D01*
X157094804Y-88620099D01*
X157123080Y-88675472D01*
X157113407Y-88736890D01*
X157069482Y-88780892D01*
X157021218Y-88790237D01*
X157021199Y-88791772D01*
X157010000Y-88791635D01*
X157006148Y-88792187D01*
X157004394Y-88792301D01*
X157002244Y-88792540D01*
X156788165Y-88809388D01*
X156784319Y-88810311D01*
X156784315Y-88810312D01*
X156693907Y-88832017D01*
X156571792Y-88861334D01*
X156568140Y-88862847D01*
X156568136Y-88862848D01*
X156392468Y-88935612D01*
X156366209Y-88946489D01*
X156271234Y-89004690D01*
X156231055Y-89029312D01*
X156176479Y-89062756D01*
X156007272Y-89207272D01*
X156004703Y-89210280D01*
X155875033Y-89362105D01*
X155862756Y-89376479D01*
X155746489Y-89566209D01*
X155679113Y-89728871D01*
X155665557Y-89761597D01*
X155625178Y-89808875D01*
X155605760Y-89817596D01*
X155605785Y-89817657D01*
X155603720Y-89818513D01*
X155601819Y-89819366D01*
X155596490Y-89820983D01*
X155463893Y-89891866D01*
X155407446Y-89938197D01*
X155399340Y-89944111D01*
X155394216Y-89946572D01*
X155390233Y-89949920D01*
X155380297Y-89959856D01*
X155372998Y-89966472D01*
X155359256Y-89977751D01*
X155354583Y-89981362D01*
X155353572Y-89982096D01*
X155353568Y-89982100D01*
X155347167Y-89986751D01*
X155342515Y-89993155D01*
X155342514Y-89993156D01*
X155335266Y-90003134D01*
X155325009Y-90015144D01*
X154994669Y-90345485D01*
X154993496Y-90346658D01*
X154987693Y-90352022D01*
X154959984Y-90375686D01*
X154959980Y-90375690D01*
X154955801Y-90379259D01*
X154951628Y-90382291D01*
X154946975Y-90388695D01*
X154939713Y-90398690D01*
X154929462Y-90410692D01*
X154699831Y-90640323D01*
X154699825Y-90640328D01*
X154355735Y-90984418D01*
X154300337Y-91012644D01*
X154238929Y-91002918D01*
X154194965Y-90958954D01*
X154189212Y-90934993D01*
X154188924Y-90935087D01*
X154179812Y-90907043D01*
X154175623Y-90904000D01*
X153799933Y-90904000D01*
X153787043Y-90908188D01*
X153784000Y-90912377D01*
X153784000Y-91388066D01*
X153791178Y-91410158D01*
X153816905Y-91445567D01*
X153816906Y-91507741D01*
X153792364Y-91547790D01*
X153580731Y-91759423D01*
X153568732Y-91769672D01*
X153558726Y-91776942D01*
X153558724Y-91776944D01*
X153552322Y-91781596D01*
X153547670Y-91788000D01*
X153540178Y-91798313D01*
X153535293Y-91804510D01*
X153529730Y-91811025D01*
X153476721Y-91843518D01*
X153453225Y-91846300D01*
X153379936Y-91846300D01*
X153320520Y-91858119D01*
X153253140Y-91903140D01*
X153208119Y-91970520D01*
X153196300Y-92029936D01*
X153196300Y-92670064D01*
X153208119Y-92729480D01*
X153253140Y-92796860D01*
X153320520Y-92841881D01*
X153379936Y-92853700D01*
X153541801Y-92853700D01*
X153600932Y-92872913D01*
X153637477Y-92923213D01*
X153637477Y-92985387D01*
X153612936Y-93025435D01*
X153521536Y-93116835D01*
X153466138Y-93145061D01*
X153450401Y-93146300D01*
X153379936Y-93146300D01*
X153320520Y-93158119D01*
X153253140Y-93203140D01*
X153208119Y-93270520D01*
X153196300Y-93329936D01*
X153196300Y-93970064D01*
X153208119Y-94029480D01*
X153253140Y-94096860D01*
X153320520Y-94141881D01*
X153379936Y-94153700D01*
X153887087Y-94153700D01*
X153946218Y-94172913D01*
X153982763Y-94223213D01*
X153982763Y-94285387D01*
X153975334Y-94302073D01*
X153972669Y-94305546D01*
X153911839Y-94452403D01*
X153910979Y-94458939D01*
X153910978Y-94458941D01*
X153905608Y-94499731D01*
X153891091Y-94610000D01*
X153891952Y-94616540D01*
X153910259Y-94755592D01*
X153911839Y-94767597D01*
X153938462Y-94831871D01*
X153968001Y-94903184D01*
X153972669Y-94914454D01*
X153976683Y-94919685D01*
X153976684Y-94919687D01*
X154030403Y-94989696D01*
X154051158Y-95048304D01*
X154033499Y-95107918D01*
X153982925Y-95146199D01*
X153972268Y-95149816D01*
X153942679Y-95159859D01*
X153942675Y-95159861D01*
X153939557Y-95160919D01*
X153936609Y-95162373D01*
X153936601Y-95162376D01*
X153897362Y-95181726D01*
X153852870Y-95192100D01*
X153451337Y-95192100D01*
X153391921Y-95203919D01*
X153324541Y-95248940D01*
X153324105Y-95249592D01*
X153273840Y-95275203D01*
X153212432Y-95265477D01*
X153174458Y-95231733D01*
X153167231Y-95220917D01*
X153153485Y-95207171D01*
X153085943Y-95162041D01*
X153067989Y-95154604D01*
X153008469Y-95142765D01*
X152998670Y-95141800D01*
X152994533Y-95141800D01*
X152981643Y-95145988D01*
X152978600Y-95150177D01*
X152978600Y-96611766D01*
X152521400Y-96611766D01*
X152521400Y-95157733D01*
X152513693Y-95134013D01*
X152513693Y-95071838D01*
X152527673Y-95044222D01*
X152547649Y-95016423D01*
X152547651Y-95016420D01*
X152551186Y-95011500D01*
X152600728Y-94888260D01*
X152612452Y-94859097D01*
X152612453Y-94859094D01*
X152614714Y-94853469D01*
X152626069Y-94773689D01*
X152632203Y-94730589D01*
X152638713Y-94684845D01*
X152638868Y-94670000D01*
X152618406Y-94500911D01*
X152613549Y-94488056D01*
X152560346Y-94347260D01*
X152560345Y-94347259D01*
X152558201Y-94341584D01*
X152461730Y-94201217D01*
X152368029Y-94117733D01*
X152339090Y-94091949D01*
X152339089Y-94091948D01*
X152334561Y-94087914D01*
X152209767Y-94021839D01*
X152189398Y-94011054D01*
X152184036Y-94008215D01*
X152018845Y-93966722D01*
X152012788Y-93966690D01*
X152012786Y-93966690D01*
X151929622Y-93966255D01*
X151848525Y-93965830D01*
X151842629Y-93967246D01*
X151842625Y-93967246D01*
X151688806Y-94004175D01*
X151682908Y-94005591D01*
X151677522Y-94008371D01*
X151677519Y-94008372D01*
X151565606Y-94066135D01*
X151531557Y-94083709D01*
X151492555Y-94117733D01*
X151407780Y-94191686D01*
X151407778Y-94191689D01*
X151403208Y-94195675D01*
X151305272Y-94335024D01*
X151303069Y-94340673D01*
X151303068Y-94340676D01*
X151245607Y-94488056D01*
X151243402Y-94493712D01*
X151221171Y-94662577D01*
X150453700Y-94662577D01*
X150453700Y-91170078D01*
X150666001Y-91170078D01*
X150666965Y-91179861D01*
X150678804Y-91239386D01*
X150686242Y-91257345D01*
X150731371Y-91324885D01*
X150745115Y-91338629D01*
X150812657Y-91383759D01*
X150830611Y-91391196D01*
X150890131Y-91403035D01*
X150899930Y-91404000D01*
X151050067Y-91404000D01*
X151062957Y-91399812D01*
X151066000Y-91395623D01*
X151066000Y-90919933D01*
X151061812Y-90907043D01*
X151057623Y-90904000D01*
X150681934Y-90904000D01*
X150669044Y-90908188D01*
X150666001Y-90912377D01*
X150666001Y-91170078D01*
X150453700Y-91170078D01*
X150453700Y-90380067D01*
X150666000Y-90380067D01*
X150670188Y-90392957D01*
X150674377Y-90396000D01*
X151050067Y-90396000D01*
X151062957Y-90391812D01*
X151066000Y-90387623D01*
X151066000Y-89911934D01*
X151061812Y-89899044D01*
X151057623Y-89896001D01*
X150899922Y-89896001D01*
X150890139Y-89896965D01*
X150830614Y-89908804D01*
X150812655Y-89916242D01*
X150745115Y-89961371D01*
X150731371Y-89975115D01*
X150686241Y-90042657D01*
X150678804Y-90060611D01*
X150666965Y-90120131D01*
X150666000Y-90129930D01*
X150666000Y-90380067D01*
X150453700Y-90380067D01*
X150453700Y-88722893D01*
X151119990Y-88722893D01*
X151121518Y-88731560D01*
X151121518Y-88732468D01*
X151122582Y-88741651D01*
X151124785Y-88780885D01*
X151134202Y-88948566D01*
X151134675Y-88951348D01*
X151134675Y-88951351D01*
X151170619Y-89162908D01*
X151172062Y-89171402D01*
X151172845Y-89174119D01*
X151172845Y-89174120D01*
X151230528Y-89374340D01*
X151234635Y-89388597D01*
X151321132Y-89597421D01*
X151322491Y-89599881D01*
X151322493Y-89599884D01*
X151387775Y-89718003D01*
X151430466Y-89795247D01*
X151552244Y-89966876D01*
X151555445Y-89971387D01*
X151574000Y-90029602D01*
X151574000Y-91388066D01*
X151578188Y-91400956D01*
X151582377Y-91403999D01*
X151634100Y-91403999D01*
X151693231Y-91423212D01*
X151729776Y-91473512D01*
X151734700Y-91504599D01*
X151734700Y-92395700D01*
X151715487Y-92454831D01*
X151665187Y-92491376D01*
X151634100Y-92496300D01*
X151529936Y-92496300D01*
X151470520Y-92508119D01*
X151403140Y-92553140D01*
X151397635Y-92561379D01*
X151370975Y-92601280D01*
X151358119Y-92620520D01*
X151346300Y-92679936D01*
X151346300Y-93320064D01*
X151358119Y-93379480D01*
X151403140Y-93446860D01*
X151470520Y-93491881D01*
X151529936Y-93503700D01*
X152120064Y-93503700D01*
X152179480Y-93491881D01*
X152246860Y-93446860D01*
X152291881Y-93379480D01*
X152303700Y-93320064D01*
X152303700Y-92789098D01*
X152306481Y-92765609D01*
X152334746Y-92647901D01*
X152334747Y-92647895D01*
X152335670Y-92644051D01*
X152343187Y-92548601D01*
X152344150Y-92542584D01*
X152344673Y-92541272D01*
X152345300Y-92534877D01*
X152345300Y-92525720D01*
X152345609Y-92517845D01*
X152346929Y-92501085D01*
X152348143Y-92491546D01*
X152350010Y-92480964D01*
X152346827Y-92462906D01*
X152345300Y-92445443D01*
X152345300Y-91170078D01*
X152876001Y-91170078D01*
X152876965Y-91179861D01*
X152888804Y-91239386D01*
X152896242Y-91257345D01*
X152941371Y-91324885D01*
X152955115Y-91338629D01*
X153022657Y-91383759D01*
X153040611Y-91391196D01*
X153100131Y-91403035D01*
X153109930Y-91404000D01*
X153260067Y-91404000D01*
X153272957Y-91399812D01*
X153276000Y-91395623D01*
X153276000Y-90919933D01*
X153271812Y-90907043D01*
X153267623Y-90904000D01*
X152891934Y-90904000D01*
X152879044Y-90908188D01*
X152876001Y-90912377D01*
X152876001Y-91170078D01*
X152345300Y-91170078D01*
X152345300Y-90231053D01*
X152346827Y-90213593D01*
X152348482Y-90204201D01*
X152350010Y-90195532D01*
X152347504Y-90181327D01*
X152346461Y-90173729D01*
X152335938Y-90066984D01*
X152335937Y-90066980D01*
X152335453Y-90062068D01*
X152296515Y-89933733D01*
X152233290Y-89815459D01*
X152230155Y-89811639D01*
X152230153Y-89811636D01*
X152162229Y-89728871D01*
X152157587Y-89722753D01*
X152154261Y-89718003D01*
X152154259Y-89718001D01*
X152149210Y-89710790D01*
X152141998Y-89705740D01*
X152140206Y-89703948D01*
X152125011Y-89690328D01*
X152029325Y-89581218D01*
X152021314Y-89570779D01*
X151926770Y-89429284D01*
X151920191Y-89417888D01*
X151844920Y-89265253D01*
X151839884Y-89253095D01*
X151803186Y-89144984D01*
X151802372Y-89082815D01*
X151838256Y-89032041D01*
X151897131Y-89012057D01*
X151956290Y-89030341D01*
X152086547Y-89121887D01*
X152092197Y-89124090D01*
X152092199Y-89124091D01*
X152238857Y-89181271D01*
X152238859Y-89181271D01*
X152244513Y-89183476D01*
X152373826Y-89200500D01*
X152462516Y-89200500D01*
X152541418Y-89190952D01*
X152582298Y-89186005D01*
X152582300Y-89186004D01*
X152588320Y-89185276D01*
X152593990Y-89183133D01*
X152593992Y-89183133D01*
X152741255Y-89127487D01*
X152741257Y-89127486D01*
X152746923Y-89125345D01*
X152886651Y-89029312D01*
X152999440Y-88902721D01*
X153002665Y-88896631D01*
X153036876Y-88832017D01*
X153081525Y-88788749D01*
X153136775Y-88780885D01*
X153115655Y-88766774D01*
X153094134Y-88708443D01*
X153097087Y-88679983D01*
X153105037Y-88648331D01*
X153120081Y-88588441D01*
X153120131Y-88579008D01*
X153120873Y-88437136D01*
X153120969Y-88418895D01*
X153117223Y-88403293D01*
X153100078Y-88331878D01*
X153104956Y-88269895D01*
X153145335Y-88222617D01*
X153175439Y-88210332D01*
X153181329Y-88208983D01*
X153243257Y-88214510D01*
X153274923Y-88235909D01*
X153277635Y-88238621D01*
X153283140Y-88246860D01*
X153350520Y-88291881D01*
X153409936Y-88303700D01*
X154876548Y-88303700D01*
X154935679Y-88322913D01*
X154972224Y-88373213D01*
X154972224Y-88435387D01*
X154951522Y-88468711D01*
X154952421Y-88469402D01*
X154952420Y-88469403D01*
X154945249Y-88478733D01*
X154943958Y-88480412D01*
X154929532Y-88495600D01*
X154827526Y-88582721D01*
X154814755Y-88592000D01*
X154736907Y-88639705D01*
X154710661Y-88655789D01*
X154682232Y-88673210D01*
X154668167Y-88680376D01*
X154648211Y-88688642D01*
X154609713Y-88696300D01*
X153409936Y-88696300D01*
X153350520Y-88708119D01*
X153283140Y-88753140D01*
X153277635Y-88761379D01*
X153270629Y-88768385D01*
X153269535Y-88767291D01*
X153229478Y-88798872D01*
X153182252Y-88800729D01*
X153198026Y-88809081D01*
X153225379Y-88864915D01*
X153225706Y-88879936D01*
X153226300Y-88879936D01*
X153226300Y-89620064D01*
X153238119Y-89679480D01*
X153271121Y-89728871D01*
X153278230Y-89739511D01*
X153295106Y-89799351D01*
X153273587Y-89857682D01*
X153221890Y-89892224D01*
X153194584Y-89896001D01*
X153109922Y-89896001D01*
X153100139Y-89896965D01*
X153040614Y-89908804D01*
X153022655Y-89916242D01*
X152955115Y-89961371D01*
X152941371Y-89975115D01*
X152896241Y-90042657D01*
X152888804Y-90060611D01*
X152876965Y-90120131D01*
X152876000Y-90129930D01*
X152876000Y-90380067D01*
X152880188Y-90392957D01*
X152884377Y-90396000D01*
X154168066Y-90396000D01*
X154180956Y-90391812D01*
X154183999Y-90387623D01*
X154183999Y-90129922D01*
X154183035Y-90120139D01*
X154171196Y-90060614D01*
X154163758Y-90042655D01*
X154113124Y-89966876D01*
X154114216Y-89966146D01*
X154090723Y-89920037D01*
X154100449Y-89858629D01*
X154144413Y-89814665D01*
X154190084Y-89803700D01*
X154950064Y-89803700D01*
X155009480Y-89791881D01*
X155076860Y-89746860D01*
X155121881Y-89679480D01*
X155133700Y-89620064D01*
X155133700Y-89520910D01*
X155152913Y-89461779D01*
X155185638Y-89432863D01*
X155242622Y-89401369D01*
X155245099Y-89400000D01*
X155428193Y-89270088D01*
X155538516Y-89171498D01*
X155542056Y-89168744D01*
X155542241Y-89168648D01*
X155547320Y-89164310D01*
X155551725Y-89159905D01*
X155555826Y-89156028D01*
X155569705Y-89143626D01*
X155578383Y-89136694D01*
X155585479Y-89131642D01*
X155585480Y-89131641D01*
X155588646Y-89129387D01*
X155591424Y-89126676D01*
X155591429Y-89126672D01*
X155592788Y-89125345D01*
X155596662Y-89121565D01*
X155612100Y-89100966D01*
X155621466Y-89090163D01*
X155980774Y-88730855D01*
X156036172Y-88702629D01*
X156053487Y-88701402D01*
X156060269Y-88701509D01*
X156068034Y-88701631D01*
X156068036Y-88701631D01*
X156074097Y-88701726D01*
X156080008Y-88700372D01*
X156080010Y-88700372D01*
X156234210Y-88665055D01*
X156234213Y-88665054D01*
X156240120Y-88663701D01*
X156392282Y-88587172D01*
X156396894Y-88583233D01*
X156396897Y-88583231D01*
X156517184Y-88480496D01*
X156521796Y-88476557D01*
X156567469Y-88412996D01*
X156617649Y-88343164D01*
X156617651Y-88343161D01*
X156621186Y-88338241D01*
X156672864Y-88209688D01*
X156682452Y-88185838D01*
X156682453Y-88185835D01*
X156684714Y-88180210D01*
X156708713Y-88011586D01*
X156708868Y-87996741D01*
X156694094Y-87874655D01*
X156689135Y-87833674D01*
X156689134Y-87833672D01*
X156688406Y-87827652D01*
X156671511Y-87782939D01*
X156630346Y-87674001D01*
X156630345Y-87674000D01*
X156628201Y-87668325D01*
X156531730Y-87527958D01*
X156487378Y-87488442D01*
X156456009Y-87434761D01*
X156453700Y-87413330D01*
X156453700Y-87139926D01*
X156468471Y-87093080D01*
X156466727Y-87092267D01*
X156480438Y-87062864D01*
X156517206Y-86984014D01*
X156523700Y-86934688D01*
X156523700Y-86585312D01*
X156522385Y-86575318D01*
X156519198Y-86551115D01*
X156517206Y-86535986D01*
X156466727Y-86427733D01*
X156382267Y-86343273D01*
X156374289Y-86339553D01*
X156367080Y-86334505D01*
X156368476Y-86332511D01*
X156332296Y-86298771D01*
X156320433Y-86237738D01*
X156346710Y-86181390D01*
X156367588Y-86166221D01*
X156367080Y-86165495D01*
X156374289Y-86160447D01*
X156382267Y-86156727D01*
X156466727Y-86072267D01*
X156517206Y-85964014D01*
X156523700Y-85914688D01*
X156523700Y-85743464D01*
X156542913Y-85684333D01*
X156564370Y-85662663D01*
X156652005Y-85597668D01*
X156660202Y-85592192D01*
X156896165Y-85450761D01*
X156904868Y-85446108D01*
X156931608Y-85433461D01*
X157058989Y-85373213D01*
X157153565Y-85328481D01*
X157162686Y-85324703D01*
X157421708Y-85232022D01*
X157431155Y-85229156D01*
X157698019Y-85162308D01*
X157707702Y-85160382D01*
X157979826Y-85120013D01*
X157989651Y-85119045D01*
X158157414Y-85110801D01*
X158237196Y-85106881D01*
X158259595Y-85108288D01*
X158269364Y-85110010D01*
X158287403Y-85106829D01*
X158304873Y-85105300D01*
X158348089Y-85105300D01*
X158365558Y-85106828D01*
X158367095Y-85107099D01*
X158374933Y-85108481D01*
X158383604Y-85110010D01*
X158392338Y-85108470D01*
X158415447Y-85107099D01*
X158667177Y-85121236D01*
X158678380Y-85122499D01*
X158822778Y-85147032D01*
X158952824Y-85169128D01*
X158963822Y-85171639D01*
X159025435Y-85189389D01*
X159231307Y-85248699D01*
X159241944Y-85252421D01*
X159487179Y-85354000D01*
X159499125Y-85358948D01*
X159509286Y-85363841D01*
X159630350Y-85430749D01*
X159752929Y-85498495D01*
X159762479Y-85504495D01*
X159989515Y-85665584D01*
X159998321Y-85672606D01*
X160140667Y-85799812D01*
X160186287Y-85840580D01*
X160201659Y-85857890D01*
X160206772Y-85865192D01*
X160221780Y-85875701D01*
X160235212Y-85886972D01*
X160414832Y-86066592D01*
X160426104Y-86080026D01*
X160431560Y-86087819D01*
X160431562Y-86087821D01*
X160436609Y-86095029D01*
X160443914Y-86100144D01*
X160443959Y-86100176D01*
X160461269Y-86115548D01*
X160595572Y-86265837D01*
X160602606Y-86274657D01*
X160734490Y-86460534D01*
X160740492Y-86470087D01*
X160850729Y-86669550D01*
X160855623Y-86679714D01*
X160942841Y-86890280D01*
X160946563Y-86900914D01*
X160959820Y-86946931D01*
X160957726Y-87009070D01*
X160929283Y-87050587D01*
X160847780Y-87121686D01*
X160847778Y-87121689D01*
X160843208Y-87125675D01*
X160839720Y-87130638D01*
X160839719Y-87130639D01*
X160807075Y-87177087D01*
X160745272Y-87265024D01*
X160743069Y-87270673D01*
X160743068Y-87270676D01*
X160687612Y-87412913D01*
X160683402Y-87423712D01*
X160661171Y-87592577D01*
X160661836Y-87598601D01*
X160661836Y-87598605D01*
X160672100Y-87691571D01*
X160679861Y-87761871D01*
X160681947Y-87767571D01*
X160725060Y-87885381D01*
X160738394Y-87921819D01*
X160741780Y-87926858D01*
X160806847Y-88023688D01*
X160833390Y-88063189D01*
X160959366Y-88177818D01*
X161109048Y-88259089D01*
X161114918Y-88260629D01*
X161267928Y-88300770D01*
X161267931Y-88300770D01*
X161273796Y-88302309D01*
X161356710Y-88303612D01*
X161438033Y-88304890D01*
X161438035Y-88304890D01*
X161444097Y-88304985D01*
X161450008Y-88303631D01*
X161450010Y-88303631D01*
X161604210Y-88268314D01*
X161604213Y-88268313D01*
X161610120Y-88266960D01*
X161762282Y-88190431D01*
X161766894Y-88186492D01*
X161766897Y-88186490D01*
X161887184Y-88083755D01*
X161891796Y-88079816D01*
X161945354Y-88005282D01*
X161987649Y-87946423D01*
X161987651Y-87946420D01*
X161991186Y-87941500D01*
X162039233Y-87821980D01*
X162052452Y-87789097D01*
X162052453Y-87789094D01*
X162054714Y-87783469D01*
X162059991Y-87746396D01*
X162078248Y-87618111D01*
X162078713Y-87614845D01*
X162078868Y-87600000D01*
X162066199Y-87495310D01*
X162059135Y-87436933D01*
X162059134Y-87436931D01*
X162058406Y-87430911D01*
X162053549Y-87418056D01*
X162000346Y-87277260D01*
X162000345Y-87277259D01*
X161998201Y-87271584D01*
X161901730Y-87131217D01*
X161774561Y-87017914D01*
X161629368Y-86941038D01*
X161586101Y-86896390D01*
X161578858Y-86876575D01*
X161560928Y-86804993D01*
X161560927Y-86804991D01*
X161560328Y-86802598D01*
X161469512Y-86548781D01*
X161468459Y-86546554D01*
X161468455Y-86546545D01*
X161355311Y-86307318D01*
X161355308Y-86307313D01*
X161354256Y-86305088D01*
X161215669Y-86073865D01*
X161134580Y-85964527D01*
X161114788Y-85905587D01*
X161133420Y-85846270D01*
X161183359Y-85809233D01*
X161215383Y-85804000D01*
X161605067Y-85804000D01*
X161617957Y-85799812D01*
X161621000Y-85795623D01*
X161621000Y-85788066D01*
X162129000Y-85788066D01*
X162133188Y-85800956D01*
X162137377Y-85803999D01*
X162569989Y-85803999D01*
X162575413Y-85803705D01*
X162628070Y-85797986D01*
X162640249Y-85795090D01*
X162762807Y-85749145D01*
X162775259Y-85742328D01*
X162879311Y-85664346D01*
X162889346Y-85654311D01*
X162967328Y-85550259D01*
X162974145Y-85537807D01*
X163020089Y-85415251D01*
X163022986Y-85403068D01*
X163028707Y-85350411D01*
X163029000Y-85344988D01*
X163029000Y-85219933D01*
X163024812Y-85207043D01*
X163020623Y-85204000D01*
X162144933Y-85204000D01*
X162132043Y-85208188D01*
X162129000Y-85212377D01*
X162129000Y-85788066D01*
X161621000Y-85788066D01*
X161621000Y-85219933D01*
X161616812Y-85207043D01*
X161612623Y-85204000D01*
X160736934Y-85204000D01*
X160724044Y-85208188D01*
X160721001Y-85212377D01*
X160721001Y-85269690D01*
X160701788Y-85328821D01*
X160651488Y-85365366D01*
X160589314Y-85365366D01*
X160552843Y-85344230D01*
X160412078Y-85216650D01*
X160406317Y-85212377D01*
X160162022Y-85031199D01*
X160160040Y-85029729D01*
X159890895Y-84868412D01*
X159775839Y-84813995D01*
X159660376Y-84759386D01*
X159607234Y-84734252D01*
X159604914Y-84733422D01*
X159604907Y-84733419D01*
X159455796Y-84680067D01*
X160721000Y-84680067D01*
X160725188Y-84692957D01*
X160729377Y-84696000D01*
X161605067Y-84696000D01*
X161617957Y-84691812D01*
X161621000Y-84687623D01*
X161621000Y-84680067D01*
X162129000Y-84680067D01*
X162133188Y-84692957D01*
X162137377Y-84696000D01*
X163013066Y-84696000D01*
X163025956Y-84691812D01*
X163028999Y-84687623D01*
X163028999Y-84555011D01*
X163028705Y-84549587D01*
X163022986Y-84496930D01*
X163020090Y-84484751D01*
X162974145Y-84362193D01*
X162967328Y-84349741D01*
X162889346Y-84245689D01*
X162879311Y-84235654D01*
X162775259Y-84157672D01*
X162762807Y-84150855D01*
X162640251Y-84104911D01*
X162628068Y-84102014D01*
X162575411Y-84096293D01*
X162569991Y-84096000D01*
X162144933Y-84096000D01*
X162132043Y-84100188D01*
X162129000Y-84104377D01*
X162129000Y-84680067D01*
X161621000Y-84680067D01*
X161621000Y-84111934D01*
X161616812Y-84099044D01*
X161612623Y-84096001D01*
X161180011Y-84096001D01*
X161174587Y-84096295D01*
X161121930Y-84102014D01*
X161109751Y-84104910D01*
X160987193Y-84150855D01*
X160974741Y-84157672D01*
X160870689Y-84235654D01*
X160860654Y-84245689D01*
X160782672Y-84349741D01*
X160775855Y-84362193D01*
X160729911Y-84484749D01*
X160727014Y-84496932D01*
X160721293Y-84549589D01*
X160721000Y-84555009D01*
X160721000Y-84680067D01*
X159455796Y-84680067D01*
X159349385Y-84641993D01*
X159311789Y-84628541D01*
X159309394Y-84627941D01*
X159009810Y-84552900D01*
X159009802Y-84552898D01*
X159007405Y-84552298D01*
X159004962Y-84551936D01*
X159004954Y-84551934D01*
X158699454Y-84506618D01*
X158699455Y-84506618D01*
X158697014Y-84506256D01*
X158694557Y-84506135D01*
X158694554Y-84506135D01*
X158396750Y-84491505D01*
X158396140Y-84491437D01*
X158396003Y-84491433D01*
X158395809Y-84491459D01*
X158390436Y-84491195D01*
X158383604Y-84489990D01*
X158374938Y-84491518D01*
X158374937Y-84491518D01*
X158365558Y-84493172D01*
X158348089Y-84494700D01*
X158304871Y-84494700D01*
X158287403Y-84493172D01*
X158278024Y-84491518D01*
X158278022Y-84491518D01*
X158269356Y-84489990D01*
X158265653Y-84490643D01*
X158259058Y-84490967D01*
X157926904Y-84507288D01*
X157926901Y-84507288D01*
X157924445Y-84507409D01*
X157722511Y-84537366D01*
X157585295Y-84557721D01*
X157585289Y-84557722D01*
X157582857Y-84558083D01*
X157247880Y-84641993D01*
X156922740Y-84758333D01*
X156920518Y-84759384D01*
X156920513Y-84759386D01*
X156612803Y-84904924D01*
X156612797Y-84904927D01*
X156610569Y-84905981D01*
X156314373Y-85083515D01*
X156136844Y-85215180D01*
X156094610Y-85246503D01*
X156034682Y-85266300D01*
X155775312Y-85266300D01*
X155772057Y-85266729D01*
X155772050Y-85266729D01*
X155744627Y-85270340D01*
X155725986Y-85272794D01*
X155617733Y-85323273D01*
X155535771Y-85405235D01*
X155480373Y-85433461D01*
X155464636Y-85434700D01*
X155200053Y-85434700D01*
X155140922Y-85415487D01*
X155104377Y-85365187D01*
X155104377Y-85303013D01*
X155116407Y-85278209D01*
X155163760Y-85207341D01*
X155171196Y-85189389D01*
X155183035Y-85129869D01*
X155184000Y-85120070D01*
X155184000Y-85019933D01*
X155179812Y-85007043D01*
X155175623Y-85004000D01*
X153191934Y-85004000D01*
X153179044Y-85008188D01*
X153176001Y-85012377D01*
X153176001Y-85032614D01*
X153156788Y-85091745D01*
X153106488Y-85128290D01*
X153044314Y-85128290D01*
X152999592Y-85098746D01*
X152896156Y-84980174D01*
X152896154Y-84980173D01*
X152892169Y-84975604D01*
X152885175Y-84970688D01*
X152758416Y-84881601D01*
X152753453Y-84878113D01*
X152747803Y-84875910D01*
X152747801Y-84875909D01*
X152601143Y-84818729D01*
X152601141Y-84818729D01*
X152595487Y-84816524D01*
X152466174Y-84799500D01*
X152377484Y-84799500D01*
X152298582Y-84809048D01*
X152257702Y-84813995D01*
X152257700Y-84813996D01*
X152251680Y-84814724D01*
X152246010Y-84816867D01*
X152246008Y-84816867D01*
X152098745Y-84872513D01*
X152098743Y-84872514D01*
X152093077Y-84874655D01*
X151953349Y-84970688D01*
X151898175Y-85032614D01*
X151845491Y-85091745D01*
X151840560Y-85097279D01*
X151837722Y-85102639D01*
X151791790Y-85189389D01*
X151761224Y-85247119D01*
X151719919Y-85411559D01*
X151719887Y-85417616D01*
X151719887Y-85417618D01*
X151719860Y-85422837D01*
X151719031Y-85581105D01*
X151720447Y-85587002D01*
X151720447Y-85587004D01*
X151737160Y-85656615D01*
X151758612Y-85745968D01*
X151761392Y-85751354D01*
X151761393Y-85751357D01*
X151825572Y-85875701D01*
X151836375Y-85896631D01*
X151840357Y-85901196D01*
X151840358Y-85901197D01*
X151937008Y-86011989D01*
X151947831Y-86024396D01*
X151952794Y-86027884D01*
X151952795Y-86027885D01*
X152038073Y-86087819D01*
X152086547Y-86121887D01*
X152092197Y-86124090D01*
X152092199Y-86124091D01*
X152238857Y-86181271D01*
X152238859Y-86181271D01*
X152244513Y-86183476D01*
X152373826Y-86200500D01*
X152462516Y-86200500D01*
X152541418Y-86190952D01*
X152582298Y-86186005D01*
X152582300Y-86186004D01*
X152588320Y-86185276D01*
X152591326Y-86184140D01*
X152652228Y-86188615D01*
X152699715Y-86228748D01*
X152714544Y-86289128D01*
X152691049Y-86346692D01*
X152685349Y-86352891D01*
X151677639Y-87360601D01*
X151664210Y-87371870D01*
X151649198Y-87382381D01*
X151644760Y-87388720D01*
X151642885Y-87390858D01*
X151642037Y-87391706D01*
X151641147Y-87392839D01*
X151494034Y-87560587D01*
X151492208Y-87563319D01*
X151492207Y-87563321D01*
X151382781Y-87727087D01*
X151362788Y-87757008D01*
X151258304Y-87968880D01*
X151223938Y-88070117D01*
X151184656Y-88185838D01*
X151182368Y-88192577D01*
X151181725Y-88195807D01*
X151181725Y-88195809D01*
X151137351Y-88418895D01*
X151136281Y-88424272D01*
X151123446Y-88620099D01*
X151121686Y-88646945D01*
X151121519Y-88648331D01*
X151121519Y-88649490D01*
X151121327Y-88652418D01*
X151119990Y-88660000D01*
X151121518Y-88668666D01*
X151121518Y-88668668D01*
X151122454Y-88673974D01*
X151122454Y-88708917D01*
X151119990Y-88722893D01*
X150453700Y-88722893D01*
X150453700Y-83870078D01*
X150666001Y-83870078D01*
X150666965Y-83879861D01*
X150678804Y-83939386D01*
X150686242Y-83957345D01*
X150731371Y-84024885D01*
X150745115Y-84038629D01*
X150812657Y-84083759D01*
X150830611Y-84091196D01*
X150890131Y-84103035D01*
X150899930Y-84104000D01*
X151050067Y-84104000D01*
X151062957Y-84099812D01*
X151066000Y-84095623D01*
X151066000Y-84088066D01*
X151574000Y-84088066D01*
X151578188Y-84100956D01*
X151582377Y-84103999D01*
X151740078Y-84103999D01*
X151749861Y-84103035D01*
X151809386Y-84091196D01*
X151827345Y-84083758D01*
X151894885Y-84038629D01*
X151908629Y-84024885D01*
X151953759Y-83957343D01*
X151961196Y-83939389D01*
X151973035Y-83879869D01*
X151973999Y-83870078D01*
X152876001Y-83870078D01*
X152876965Y-83879861D01*
X152888804Y-83939386D01*
X152896242Y-83957345D01*
X152941371Y-84024885D01*
X152955115Y-84038629D01*
X153022657Y-84083759D01*
X153040611Y-84091196D01*
X153100131Y-84103035D01*
X153109930Y-84104000D01*
X153134088Y-84104000D01*
X153193219Y-84123213D01*
X153229764Y-84173513D01*
X153229764Y-84235687D01*
X153217734Y-84260490D01*
X153196241Y-84292657D01*
X153188804Y-84310611D01*
X153176965Y-84370131D01*
X153176000Y-84379930D01*
X153176000Y-84480067D01*
X153180188Y-84492957D01*
X153184377Y-84496000D01*
X155168066Y-84496000D01*
X155180956Y-84491812D01*
X155183999Y-84487623D01*
X155183999Y-84439600D01*
X155203212Y-84380469D01*
X155253512Y-84343924D01*
X155284599Y-84339000D01*
X155630067Y-84339000D01*
X155642957Y-84334812D01*
X155646000Y-84330623D01*
X155646000Y-84323067D01*
X156154000Y-84323067D01*
X156158188Y-84335957D01*
X156162377Y-84339000D01*
X156892544Y-84339000D01*
X156898143Y-84338687D01*
X157023660Y-84324608D01*
X157034567Y-84322130D01*
X157194280Y-84266512D01*
X157204365Y-84261680D01*
X157347791Y-84172058D01*
X157356556Y-84165110D01*
X157476563Y-84045939D01*
X157483566Y-84037228D01*
X157574189Y-83894430D01*
X157579090Y-83884382D01*
X157607708Y-83804011D01*
X157608017Y-83792955D01*
X157596400Y-83789000D01*
X156169933Y-83789000D01*
X156157043Y-83793188D01*
X156154000Y-83797377D01*
X156154000Y-84323067D01*
X155646000Y-84323067D01*
X155646000Y-83804933D01*
X155641812Y-83792043D01*
X155637623Y-83789000D01*
X154206600Y-83789000D01*
X154147469Y-83769787D01*
X154110924Y-83719487D01*
X154106000Y-83688400D01*
X154106000Y-83619933D01*
X154101812Y-83607043D01*
X154097623Y-83604000D01*
X152891934Y-83604000D01*
X152879044Y-83608188D01*
X152876001Y-83612377D01*
X152876001Y-83870078D01*
X151973999Y-83870078D01*
X151974000Y-83870070D01*
X151974000Y-83619933D01*
X151969812Y-83607043D01*
X151965623Y-83604000D01*
X151589933Y-83604000D01*
X151577043Y-83608188D01*
X151574000Y-83612377D01*
X151574000Y-84088066D01*
X151066000Y-84088066D01*
X151066000Y-83619933D01*
X151061812Y-83607043D01*
X151057623Y-83604000D01*
X150681934Y-83604000D01*
X150669044Y-83608188D01*
X150666001Y-83612377D01*
X150666001Y-83870078D01*
X150453700Y-83870078D01*
X150453700Y-83080067D01*
X150666000Y-83080067D01*
X150670188Y-83092957D01*
X150674377Y-83096000D01*
X151050067Y-83096000D01*
X151062957Y-83091812D01*
X151066000Y-83087623D01*
X151066000Y-83080067D01*
X151574000Y-83080067D01*
X151578188Y-83092957D01*
X151582377Y-83096000D01*
X151958066Y-83096000D01*
X151970956Y-83091812D01*
X151973999Y-83087623D01*
X151973999Y-83080067D01*
X152876000Y-83080067D01*
X152880188Y-83092957D01*
X152884377Y-83096000D01*
X153260067Y-83096000D01*
X153272957Y-83091812D01*
X153276000Y-83087623D01*
X153276000Y-83080067D01*
X153784000Y-83080067D01*
X153788188Y-83092957D01*
X153792377Y-83096000D01*
X154123400Y-83096000D01*
X154182531Y-83115213D01*
X154219076Y-83165513D01*
X154224000Y-83196600D01*
X154224000Y-83265067D01*
X154228188Y-83277957D01*
X154232377Y-83281000D01*
X155630067Y-83281000D01*
X155642957Y-83276812D01*
X155646000Y-83272623D01*
X155646000Y-83265067D01*
X156154000Y-83265067D01*
X156158188Y-83277957D01*
X156162377Y-83281000D01*
X157596957Y-83281000D01*
X157607722Y-83277502D01*
X157607639Y-83265574D01*
X157583897Y-83195833D01*
X157579137Y-83185718D01*
X157490513Y-83041662D01*
X157483636Y-83032860D01*
X157365304Y-82912022D01*
X157356638Y-82904954D01*
X157214475Y-82813337D01*
X157204465Y-82808368D01*
X157045535Y-82750523D01*
X157034671Y-82747894D01*
X156904079Y-82731397D01*
X156897772Y-82731000D01*
X156169933Y-82731000D01*
X156157043Y-82735188D01*
X156154000Y-82739377D01*
X156154000Y-83265067D01*
X155646000Y-83265067D01*
X155646000Y-82746933D01*
X155641812Y-82734043D01*
X155637623Y-82731000D01*
X154907456Y-82731000D01*
X154901857Y-82731313D01*
X154776340Y-82745392D01*
X154765433Y-82747870D01*
X154605720Y-82803488D01*
X154595635Y-82808320D01*
X154452209Y-82897942D01*
X154443444Y-82904890D01*
X154355485Y-82992237D01*
X154299990Y-83020270D01*
X154238615Y-83010329D01*
X154194805Y-82966213D01*
X154183999Y-82920854D01*
X154183999Y-82829922D01*
X154183035Y-82820139D01*
X154171196Y-82760614D01*
X154163758Y-82742655D01*
X154118629Y-82675115D01*
X154104885Y-82661371D01*
X154037343Y-82616241D01*
X154019389Y-82608804D01*
X153959869Y-82596965D01*
X153950070Y-82596000D01*
X153799933Y-82596000D01*
X153787043Y-82600188D01*
X153784000Y-82604377D01*
X153784000Y-83080067D01*
X153276000Y-83080067D01*
X153276000Y-82611934D01*
X153271812Y-82599044D01*
X153267623Y-82596001D01*
X153109922Y-82596001D01*
X153100139Y-82596965D01*
X153040614Y-82608804D01*
X153022655Y-82616242D01*
X152955115Y-82661371D01*
X152941371Y-82675115D01*
X152896241Y-82742657D01*
X152888804Y-82760611D01*
X152876965Y-82820131D01*
X152876000Y-82829930D01*
X152876000Y-83080067D01*
X151973999Y-83080067D01*
X151973999Y-82829922D01*
X151973035Y-82820139D01*
X151961196Y-82760614D01*
X151953758Y-82742655D01*
X151908629Y-82675115D01*
X151894885Y-82661371D01*
X151827343Y-82616241D01*
X151809389Y-82608804D01*
X151749869Y-82596965D01*
X151740070Y-82596000D01*
X151589933Y-82596000D01*
X151577043Y-82600188D01*
X151574000Y-82604377D01*
X151574000Y-83080067D01*
X151066000Y-83080067D01*
X151066000Y-82611934D01*
X151061812Y-82599044D01*
X151057623Y-82596001D01*
X150899922Y-82596001D01*
X150890139Y-82596965D01*
X150830614Y-82608804D01*
X150812655Y-82616242D01*
X150745115Y-82661371D01*
X150731371Y-82675115D01*
X150686241Y-82742657D01*
X150678804Y-82760611D01*
X150666965Y-82820131D01*
X150666000Y-82829930D01*
X150666000Y-83080067D01*
X150453700Y-83080067D01*
X150453700Y-82304300D01*
X150472913Y-82245169D01*
X150523213Y-82208624D01*
X150554300Y-82203700D01*
X163445700Y-82203700D01*
X163504831Y-82222913D01*
G37*
%TD.AperFunction*%
%TD*%
M02*
