%TF.GenerationSoftware,KiCad,Pcbnew,(6.0.5-0)*%
%TF.CreationDate,2025-01-27T20:14:51-05:00*%
%TF.ProjectId,PICOGAUGEADAPTER,5049434f-4741-4554-9745-414441505445,rev?*%
%TF.SameCoordinates,Original*%
%TF.FileFunction,Copper,L2,Bot*%
%TF.FilePolarity,Positive*%
%FSLAX46Y46*%
G04 Gerber Fmt 4.6, Leading zero omitted, Abs format (unit mm)*
G04 Created by KiCad (PCBNEW (6.0.5-0)) date 2025-01-27 20:14:51*
%MOMM*%
%LPD*%
G01*
G04 APERTURE LIST*
%TA.AperFunction,SMDPad,CuDef*%
%ADD10R,2.921000X1.270000*%
%TD*%
%TA.AperFunction,ComponentPad*%
%ADD11O,3.000000X1.100000*%
%TD*%
%TA.AperFunction,ViaPad*%
%ADD12C,0.800000*%
%TD*%
%TA.AperFunction,ViaPad*%
%ADD13C,1.000000*%
%TD*%
%TA.AperFunction,Conductor*%
%ADD14C,0.300000*%
%TD*%
%TA.AperFunction,Conductor*%
%ADD15C,0.500000*%
%TD*%
%TA.AperFunction,Conductor*%
%ADD16C,0.203200*%
%TD*%
G04 APERTURE END LIST*
D10*
%TO.P,J1,1,1*%
%TO.N,+12V*%
X161370000Y-85750002D03*
%TO.P,J1,2,2*%
%TO.N,ELM_RX*%
X161370000Y-88750001D03*
%TO.P,J1,3,3*%
%TO.N,ELM_TX*%
X161370000Y-91750000D03*
%TO.P,J1,4,4*%
%TO.N,+5V*%
X161370000Y-94749999D03*
%TO.P,J1,5,5*%
%TO.N,GND*%
X161370000Y-97749998D03*
D11*
%TO.P,J1,6,P1*%
X155900000Y-99965000D03*
%TO.P,J1,7,P2*%
X155900000Y-83535000D03*
%TD*%
D12*
%TO.N,GND*%
X159210500Y-93250795D03*
%TO.N,+12V*%
X159765000Y-86885000D03*
X154460000Y-96010000D03*
X158570000Y-98520000D03*
D13*
%TO.N,GND*%
X162500000Y-100090000D03*
X159420000Y-97300000D03*
X160570000Y-83110000D03*
X152010000Y-100360000D03*
X153140000Y-94650000D03*
X152430000Y-84250000D03*
X156680000Y-92970000D03*
D12*
%TO.N,+5V*%
X159950000Y-90410000D03*
D13*
X159610000Y-96010000D03*
X156000000Y-87996741D03*
%TO.N,ELM_RX*%
X161370000Y-87600000D03*
D12*
%TO.N,ELM_TX*%
X156531608Y-94309520D03*
%TO.N,/RP_RX*%
X154500000Y-94610000D03*
X157020000Y-90250000D03*
D13*
%TO.N,Net-(S1-Pad2)*%
X151930000Y-94670000D03*
X153096464Y-87506464D03*
%TD*%
D14*
%TO.N,ELM_TX*%
X158174903Y-93105097D02*
X158228923Y-93051077D01*
X161370000Y-91750014D02*
G75*
G03*
X158228923Y-93051077I0J-4442186D01*
G01*
X157700000Y-93580000D02*
X158174903Y-93105097D01*
X160360000Y-92200002D02*
G75*
G03*
X158174903Y-93105097I0J-3090198D01*
G01*
X157280810Y-93999191D02*
X157700000Y-93580000D01*
X157280803Y-93999184D02*
G75*
G02*
X156531608Y-94309520I-749203J749184D01*
G01*
D15*
%TO.N,+12V*%
X159765000Y-86885000D02*
X159695000Y-86955000D01*
X157191371Y-97141371D02*
X157330000Y-97280000D01*
X160567657Y-86082344D02*
X159765000Y-86885000D01*
X157330000Y-97280000D02*
X158570000Y-98520000D01*
X160567654Y-86082341D02*
G75*
G02*
X161370000Y-85750002I802346J-802359D01*
G01*
X157191362Y-97141380D02*
G75*
G03*
X154460000Y-96010000I-2731362J-2731320D01*
G01*
%TO.N,GND*%
X160345732Y-97325733D02*
X159940000Y-96920000D01*
X159420000Y-97300000D02*
X159739290Y-97300000D01*
X159420000Y-97300000D02*
X159662812Y-97300000D01*
X159420000Y-97300000D02*
X159701005Y-97018995D01*
X159662812Y-97300000D02*
X160416087Y-96546725D01*
X160345740Y-97325725D02*
G75*
G03*
X161370000Y-97749998I1024260J1024225D01*
G01*
X159860003Y-97250003D02*
G75*
G02*
X159739290Y-97300000I-120703J120703D01*
G01*
X160510010Y-96320000D02*
G75*
G02*
X160416087Y-96546725I-320610J0D01*
G01*
X159940000Y-96920003D02*
G75*
G03*
X159701005Y-97018995I0J-337997D01*
G01*
D14*
%TO.N,+5V*%
X159355000Y-89975000D02*
X159373726Y-89993726D01*
X159355000Y-89975000D02*
X158350244Y-88970244D01*
D15*
X159610000Y-96010000D02*
X159931385Y-95688615D01*
D14*
X159676863Y-90296863D02*
X159355000Y-89975000D01*
D15*
X160160000Y-94682183D02*
X160160000Y-94680000D01*
X160159992Y-94682183D02*
G75*
G02*
X159609999Y-96009999I-1877792J-17D01*
G01*
D14*
X159676858Y-90296868D02*
G75*
G03*
X159950000Y-90410000I273142J273168D01*
G01*
X156000000Y-87996745D02*
G75*
G02*
X158350244Y-88970244I0J-3323755D01*
G01*
X159920000Y-90219984D02*
G75*
G02*
X159373727Y-89993725I0J772584D01*
G01*
D15*
X161280000Y-95129992D02*
G75*
G03*
X159931385Y-95688615I0J-1907208D01*
G01*
%TO.N,ELM_RX*%
X161370000Y-88750001D02*
X161370000Y-87600000D01*
X161370000Y-87600000D02*
X160911127Y-88058873D01*
X161370000Y-87600000D02*
X161835944Y-88065944D01*
X161370000Y-88750001D02*
X160189999Y-88750001D01*
X160160000Y-88369986D02*
G75*
G03*
X160911127Y-88058873I0J1062286D01*
G01*
X162570000Y-88370003D02*
G75*
G02*
X161835944Y-88065944I0J1038103D01*
G01*
D14*
%TO.N,/RP_RX*%
X154500000Y-93680193D02*
X154500000Y-94610000D01*
X157020000Y-90250000D02*
X156600832Y-90250000D01*
X154499998Y-93680193D02*
G75*
G02*
X155780001Y-90590001I4370202J-7D01*
G01*
X155779990Y-90589990D02*
G75*
G02*
X156600832Y-90250000I820810J-820810D01*
G01*
D16*
%TO.N,Net-(S1-Pad2)*%
X153244521Y-88634521D02*
X153244521Y-87654521D01*
X153244521Y-87654521D02*
X153096464Y-87506464D01*
X152830000Y-89620000D02*
X152840793Y-89609207D01*
X151930000Y-94670000D02*
X151930000Y-94026274D01*
X152380000Y-92939879D02*
X152380000Y-90706396D01*
X152830001Y-89620001D02*
G75*
G03*
X152380000Y-90706396I1086399J-1086399D01*
G01*
X152379990Y-92939879D02*
G75*
G02*
X152089999Y-93639999I-990090J-21D01*
G01*
X152090008Y-93640008D02*
G75*
G03*
X151930000Y-94026274I386292J-386292D01*
G01*
X153244533Y-88634521D02*
G75*
G02*
X152840792Y-89609206I-1378433J21D01*
G01*
%TD*%
%TA.AperFunction,Conductor*%
%TO.N,GND*%
G36*
X163504831Y-82222913D02*
G01*
X163541376Y-82273213D01*
X163546300Y-82304300D01*
X163546300Y-101195700D01*
X163527087Y-101254831D01*
X163476787Y-101291376D01*
X163445700Y-101296300D01*
X150554300Y-101296300D01*
X150495169Y-101277087D01*
X150458624Y-101226787D01*
X150453700Y-101195700D01*
X150453700Y-100222498D01*
X154192278Y-100222498D01*
X154192361Y-100234426D01*
X154216103Y-100304167D01*
X154220863Y-100314282D01*
X154309487Y-100458338D01*
X154316364Y-100467140D01*
X154434696Y-100587978D01*
X154443362Y-100595046D01*
X154585525Y-100686663D01*
X154595535Y-100691632D01*
X154754465Y-100749477D01*
X154765329Y-100752106D01*
X154895921Y-100768603D01*
X154902228Y-100769000D01*
X155630067Y-100769000D01*
X155642957Y-100764812D01*
X155646000Y-100760623D01*
X155646000Y-100753067D01*
X156154000Y-100753067D01*
X156158188Y-100765957D01*
X156162377Y-100769000D01*
X156892544Y-100769000D01*
X156898143Y-100768687D01*
X157023660Y-100754608D01*
X157034567Y-100752130D01*
X157194280Y-100696512D01*
X157204365Y-100691680D01*
X157347791Y-100602058D01*
X157356556Y-100595110D01*
X157476563Y-100475939D01*
X157483566Y-100467228D01*
X157574189Y-100324430D01*
X157579090Y-100314382D01*
X157607708Y-100234011D01*
X157608017Y-100222955D01*
X157596400Y-100219000D01*
X156169933Y-100219000D01*
X156157043Y-100223188D01*
X156154000Y-100227377D01*
X156154000Y-100753067D01*
X155646000Y-100753067D01*
X155646000Y-100234933D01*
X155641812Y-100222043D01*
X155637623Y-100219000D01*
X154203043Y-100219000D01*
X154192278Y-100222498D01*
X150453700Y-100222498D01*
X150453700Y-99707045D01*
X154191983Y-99707045D01*
X154203600Y-99711000D01*
X155630067Y-99711000D01*
X155642957Y-99706812D01*
X155646000Y-99702623D01*
X155646000Y-99695067D01*
X156154000Y-99695067D01*
X156158188Y-99707957D01*
X156162377Y-99711000D01*
X157596957Y-99711000D01*
X157607722Y-99707502D01*
X157607639Y-99695574D01*
X157583897Y-99625833D01*
X157579137Y-99615718D01*
X157490513Y-99471662D01*
X157483636Y-99462860D01*
X157365304Y-99342022D01*
X157356638Y-99334954D01*
X157214475Y-99243337D01*
X157204465Y-99238368D01*
X157045535Y-99180523D01*
X157034671Y-99177894D01*
X156904079Y-99161397D01*
X156897772Y-99161000D01*
X156169933Y-99161000D01*
X156157043Y-99165188D01*
X156154000Y-99169377D01*
X156154000Y-99695067D01*
X155646000Y-99695067D01*
X155646000Y-99176933D01*
X155641812Y-99164043D01*
X155637623Y-99161000D01*
X154907456Y-99161000D01*
X154901857Y-99161313D01*
X154776340Y-99175392D01*
X154765433Y-99177870D01*
X154605720Y-99233488D01*
X154595635Y-99238320D01*
X154452209Y-99327942D01*
X154443444Y-99334890D01*
X154323437Y-99454061D01*
X154316434Y-99462772D01*
X154225811Y-99605570D01*
X154220910Y-99615618D01*
X154192292Y-99695989D01*
X154191983Y-99707045D01*
X150453700Y-99707045D01*
X150453700Y-96010000D01*
X153851091Y-96010000D01*
X153871839Y-96167597D01*
X153932669Y-96314454D01*
X154029436Y-96440564D01*
X154155545Y-96537331D01*
X154302403Y-96598161D01*
X154308939Y-96599021D01*
X154308941Y-96599022D01*
X154453460Y-96618048D01*
X154460000Y-96618909D01*
X154466540Y-96618048D01*
X154611059Y-96599022D01*
X154611061Y-96599021D01*
X154617597Y-96598161D01*
X154764455Y-96537331D01*
X154797922Y-96511651D01*
X154856529Y-96490896D01*
X154873922Y-96491950D01*
X154969529Y-96506132D01*
X155120179Y-96528479D01*
X155129862Y-96530405D01*
X155444795Y-96609292D01*
X155454243Y-96612158D01*
X155741356Y-96714890D01*
X155759930Y-96721536D01*
X155769047Y-96725313D01*
X155895622Y-96785179D01*
X156062538Y-96864125D01*
X156071245Y-96868779D01*
X156092033Y-96881239D01*
X156349724Y-97035695D01*
X156357915Y-97041168D01*
X156564964Y-97194728D01*
X156618697Y-97234580D01*
X156626328Y-97240843D01*
X156843045Y-97437266D01*
X156856719Y-97452462D01*
X156863320Y-97461498D01*
X156869001Y-97465865D01*
X156886443Y-97479273D01*
X156896267Y-97487896D01*
X157941905Y-98533534D01*
X157970509Y-98591538D01*
X157976630Y-98638033D01*
X157981839Y-98677597D01*
X158042669Y-98824454D01*
X158139436Y-98950564D01*
X158265545Y-99047331D01*
X158412403Y-99108161D01*
X158418939Y-99109021D01*
X158418941Y-99109022D01*
X158563460Y-99128048D01*
X158570000Y-99128909D01*
X158576540Y-99128048D01*
X158721059Y-99109022D01*
X158721061Y-99109021D01*
X158727597Y-99108161D01*
X158874455Y-99047331D01*
X159000564Y-98950564D01*
X159097331Y-98824454D01*
X159158161Y-98677597D01*
X159163644Y-98635954D01*
X159178048Y-98526540D01*
X159178909Y-98520000D01*
X159163779Y-98405076D01*
X159655501Y-98405076D01*
X159656465Y-98414859D01*
X159668304Y-98474384D01*
X159675742Y-98492343D01*
X159720871Y-98559883D01*
X159734615Y-98573627D01*
X159802157Y-98618757D01*
X159820111Y-98626194D01*
X159879631Y-98638033D01*
X159889430Y-98638998D01*
X161100067Y-98638998D01*
X161112957Y-98634810D01*
X161116000Y-98630621D01*
X161116000Y-98623064D01*
X161624000Y-98623064D01*
X161628188Y-98635954D01*
X161632377Y-98638997D01*
X162850578Y-98638997D01*
X162860361Y-98638033D01*
X162919886Y-98626194D01*
X162937845Y-98618756D01*
X163005385Y-98573627D01*
X163019129Y-98559883D01*
X163064259Y-98492341D01*
X163071696Y-98474387D01*
X163083535Y-98414867D01*
X163084500Y-98405068D01*
X163084500Y-98019931D01*
X163080312Y-98007041D01*
X163076123Y-98003998D01*
X161639933Y-98003998D01*
X161627043Y-98008186D01*
X161624000Y-98012375D01*
X161624000Y-98623064D01*
X161116000Y-98623064D01*
X161116000Y-98019931D01*
X161111812Y-98007041D01*
X161107623Y-98003998D01*
X159671434Y-98003998D01*
X159658544Y-98008186D01*
X159655501Y-98012375D01*
X159655501Y-98405076D01*
X159163779Y-98405076D01*
X159158161Y-98362403D01*
X159097331Y-98215546D01*
X159000564Y-98089436D01*
X158874455Y-97992669D01*
X158727597Y-97931839D01*
X158721061Y-97930979D01*
X158721059Y-97930978D01*
X158641538Y-97920509D01*
X158583534Y-97891905D01*
X158171694Y-97480065D01*
X159655500Y-97480065D01*
X159659688Y-97492955D01*
X159663877Y-97495998D01*
X161100067Y-97495998D01*
X161112957Y-97491810D01*
X161116000Y-97487621D01*
X161116000Y-97480065D01*
X161624000Y-97480065D01*
X161628188Y-97492955D01*
X161632377Y-97495998D01*
X163068566Y-97495998D01*
X163081456Y-97491810D01*
X163084499Y-97487621D01*
X163084499Y-97094920D01*
X163083535Y-97085137D01*
X163071696Y-97025612D01*
X163064258Y-97007653D01*
X163019129Y-96940113D01*
X163005385Y-96926369D01*
X162937843Y-96881239D01*
X162919889Y-96873802D01*
X162860369Y-96861963D01*
X162850570Y-96860998D01*
X161639933Y-96860998D01*
X161627043Y-96865186D01*
X161624000Y-96869375D01*
X161624000Y-97480065D01*
X161116000Y-97480065D01*
X161116000Y-96876932D01*
X161111812Y-96864042D01*
X161107623Y-96860999D01*
X159908114Y-96860999D01*
X159848983Y-96841786D01*
X159831403Y-96817589D01*
X159807597Y-96873399D01*
X159787679Y-96890913D01*
X159734615Y-96926369D01*
X159720871Y-96940113D01*
X159675741Y-97007655D01*
X159668304Y-97025609D01*
X159656465Y-97085129D01*
X159655500Y-97094928D01*
X159655500Y-97480065D01*
X158171694Y-97480065D01*
X157545077Y-96853448D01*
X157534261Y-96840660D01*
X157525563Y-96828443D01*
X157525562Y-96828442D01*
X157523308Y-96825276D01*
X157520597Y-96822498D01*
X157520593Y-96822493D01*
X157518204Y-96820045D01*
X157518201Y-96820043D01*
X157515486Y-96817260D01*
X157512372Y-96814926D01*
X157509451Y-96812363D01*
X157509481Y-96812329D01*
X157507241Y-96810471D01*
X157238817Y-96564502D01*
X157238814Y-96564500D01*
X157237194Y-96563015D01*
X157146934Y-96493755D01*
X156939907Y-96334895D01*
X156939897Y-96334888D01*
X156938165Y-96333559D01*
X156936321Y-96332384D01*
X156936315Y-96332380D01*
X156622117Y-96132211D01*
X156622109Y-96132206D01*
X156620275Y-96131038D01*
X156618344Y-96130033D01*
X156618334Y-96130027D01*
X156373508Y-96002577D01*
X158901171Y-96002577D01*
X158901836Y-96008601D01*
X158901836Y-96008605D01*
X158903266Y-96021553D01*
X158919861Y-96171871D01*
X158978394Y-96331819D01*
X158981780Y-96336858D01*
X159054166Y-96444580D01*
X159073390Y-96473189D01*
X159199366Y-96587818D01*
X159349048Y-96669089D01*
X159354918Y-96670629D01*
X159507928Y-96710770D01*
X159507931Y-96710770D01*
X159513796Y-96712309D01*
X159596710Y-96713612D01*
X159678033Y-96714890D01*
X159678035Y-96714890D01*
X159684097Y-96714985D01*
X159690006Y-96713632D01*
X159690012Y-96713631D01*
X159709331Y-96709206D01*
X159771259Y-96714733D01*
X159812438Y-96750656D01*
X159812438Y-96729312D01*
X159848983Y-96679012D01*
X159862913Y-96670526D01*
X159978965Y-96612158D01*
X160002282Y-96600431D01*
X160006894Y-96596492D01*
X160006897Y-96596490D01*
X160127184Y-96493755D01*
X160131796Y-96489816D01*
X160170946Y-96435333D01*
X160227649Y-96356423D01*
X160227651Y-96356420D01*
X160231186Y-96351500D01*
X160294714Y-96193469D01*
X160303433Y-96132211D01*
X160318248Y-96028111D01*
X160318713Y-96024845D01*
X160318868Y-96010000D01*
X160318472Y-96006724D01*
X160318291Y-96003450D01*
X160319957Y-96003358D01*
X160330766Y-95948312D01*
X160352328Y-95921618D01*
X160390197Y-95888407D01*
X160400620Y-95880408D01*
X160547763Y-95782089D01*
X160559148Y-95775516D01*
X160717844Y-95697254D01*
X160730001Y-95692218D01*
X160764002Y-95680676D01*
X160897560Y-95635338D01*
X160910265Y-95631934D01*
X161083806Y-95597414D01*
X161096853Y-95595696D01*
X161200331Y-95588914D01*
X161206910Y-95588699D01*
X162850564Y-95588699D01*
X162909980Y-95576880D01*
X162977360Y-95531859D01*
X163022381Y-95464479D01*
X163034200Y-95405063D01*
X163034200Y-94094935D01*
X163022381Y-94035519D01*
X162977360Y-93968139D01*
X162909980Y-93923118D01*
X162850564Y-93911299D01*
X159889436Y-93911299D01*
X159830020Y-93923118D01*
X159762640Y-93968139D01*
X159717619Y-94035519D01*
X159705800Y-94094935D01*
X159705800Y-94642273D01*
X159704602Y-94657747D01*
X159701669Y-94676587D01*
X159702598Y-94683688D01*
X159703714Y-94692224D01*
X159704348Y-94711848D01*
X159694541Y-94861494D01*
X159692823Y-94874540D01*
X159660841Y-95035333D01*
X159659055Y-95044310D01*
X159655651Y-95057014D01*
X159600014Y-95220920D01*
X159594978Y-95233078D01*
X159584073Y-95255191D01*
X159540689Y-95299727D01*
X159517333Y-95308517D01*
X159362908Y-95345591D01*
X159357522Y-95348371D01*
X159357519Y-95348372D01*
X159247683Y-95405063D01*
X159211557Y-95423709D01*
X159164821Y-95464479D01*
X159087780Y-95531686D01*
X159087778Y-95531689D01*
X159083208Y-95535675D01*
X159079720Y-95540638D01*
X159079719Y-95540639D01*
X159040722Y-95596127D01*
X158985272Y-95675024D01*
X158983069Y-95680673D01*
X158983068Y-95680676D01*
X158931832Y-95812090D01*
X158923402Y-95833712D01*
X158901171Y-96002577D01*
X156373508Y-96002577D01*
X156287900Y-95958012D01*
X156287896Y-95958010D01*
X156285944Y-95956994D01*
X155937716Y-95812752D01*
X155819620Y-95775516D01*
X155580329Y-95700067D01*
X155580322Y-95700065D01*
X155578241Y-95699409D01*
X155576102Y-95698935D01*
X155576099Y-95698934D01*
X155212414Y-95618306D01*
X155212405Y-95618304D01*
X155210256Y-95617828D01*
X155208073Y-95617541D01*
X155208064Y-95617539D01*
X154911473Y-95578491D01*
X154863363Y-95558564D01*
X154764455Y-95482669D01*
X154617597Y-95421839D01*
X154611061Y-95420979D01*
X154611059Y-95420978D01*
X154545688Y-95412372D01*
X154489571Y-95385606D01*
X154478385Y-95365004D01*
X154449183Y-95395776D01*
X154414312Y-95407106D01*
X154392990Y-95409913D01*
X154308941Y-95420978D01*
X154308939Y-95420979D01*
X154302403Y-95421839D01*
X154222922Y-95454761D01*
X154161636Y-95480146D01*
X154161633Y-95480148D01*
X154155546Y-95482669D01*
X154029436Y-95579436D01*
X153932669Y-95705546D01*
X153871839Y-95852403D01*
X153851091Y-96010000D01*
X150453700Y-96010000D01*
X150453700Y-94662577D01*
X151221171Y-94662577D01*
X151221836Y-94668601D01*
X151221836Y-94668605D01*
X151229150Y-94734853D01*
X151239861Y-94831871D01*
X151298394Y-94991819D01*
X151301780Y-94996858D01*
X151342208Y-95057021D01*
X151393390Y-95133189D01*
X151519366Y-95247818D01*
X151669048Y-95329089D01*
X151674918Y-95330629D01*
X151827928Y-95370770D01*
X151827931Y-95370770D01*
X151833796Y-95372309D01*
X151916710Y-95373612D01*
X151998033Y-95374890D01*
X151998035Y-95374890D01*
X152004097Y-95374985D01*
X152010008Y-95373631D01*
X152010010Y-95373631D01*
X152164210Y-95338314D01*
X152164213Y-95338313D01*
X152170120Y-95336960D01*
X152322282Y-95260431D01*
X152326894Y-95256492D01*
X152326897Y-95256490D01*
X152447184Y-95153755D01*
X152451796Y-95149816D01*
X152527610Y-95044310D01*
X152547649Y-95016423D01*
X152547651Y-95016420D01*
X152551186Y-95011500D01*
X152614714Y-94853469D01*
X152626069Y-94773689D01*
X152634870Y-94711848D01*
X152638713Y-94684845D01*
X152638868Y-94670000D01*
X152631607Y-94610000D01*
X153891091Y-94610000D01*
X153891952Y-94616540D01*
X153908746Y-94744100D01*
X153911839Y-94767597D01*
X153938462Y-94831871D01*
X153953457Y-94868071D01*
X153972669Y-94914454D01*
X154069436Y-95040564D01*
X154195545Y-95137331D01*
X154342403Y-95198161D01*
X154348939Y-95199021D01*
X154348941Y-95199022D01*
X154414312Y-95207628D01*
X154470429Y-95234394D01*
X154481615Y-95254996D01*
X154510817Y-95224224D01*
X154545688Y-95212894D01*
X154585688Y-95207628D01*
X154651059Y-95199022D01*
X154651061Y-95199021D01*
X154657597Y-95198161D01*
X154804455Y-95137331D01*
X154930564Y-95040564D01*
X155027331Y-94914454D01*
X155046544Y-94868071D01*
X155061538Y-94831871D01*
X155088161Y-94767597D01*
X155091255Y-94744100D01*
X155108048Y-94616540D01*
X155108909Y-94610000D01*
X155094392Y-94499731D01*
X155089022Y-94458941D01*
X155089021Y-94458939D01*
X155088161Y-94452403D01*
X155053247Y-94368112D01*
X155029854Y-94311636D01*
X155029852Y-94311633D01*
X155027331Y-94305546D01*
X154930564Y-94179436D01*
X154893058Y-94150657D01*
X154857843Y-94099419D01*
X154853700Y-94070846D01*
X154853700Y-93715952D01*
X154854939Y-93700215D01*
X154856871Y-93688018D01*
X154856871Y-93688011D01*
X154858109Y-93680194D01*
X154856235Y-93668360D01*
X154855093Y-93648242D01*
X154860510Y-93524188D01*
X154868792Y-93334510D01*
X154869556Y-93325777D01*
X154871447Y-93311418D01*
X154912082Y-93002769D01*
X154914146Y-92987092D01*
X154915670Y-92978449D01*
X154954287Y-92804257D01*
X154989609Y-92644930D01*
X154991874Y-92636475D01*
X155094605Y-92310655D01*
X155097606Y-92302411D01*
X155131240Y-92221211D01*
X155228334Y-91986806D01*
X155232042Y-91978854D01*
X155389781Y-91675842D01*
X155394169Y-91668242D01*
X155577716Y-91380131D01*
X155582750Y-91372942D01*
X155707732Y-91210062D01*
X155790707Y-91101927D01*
X155796347Y-91095205D01*
X155796594Y-91094936D01*
X156008506Y-90863674D01*
X156023545Y-90850251D01*
X156026815Y-90847875D01*
X156033221Y-90843221D01*
X156037875Y-90836816D01*
X156039861Y-90834830D01*
X156053373Y-90820214D01*
X156120382Y-90762982D01*
X156133150Y-90753705D01*
X156227645Y-90695799D01*
X156241700Y-90688638D01*
X156344089Y-90646228D01*
X156359104Y-90641350D01*
X156464674Y-90616007D01*
X156526657Y-90620886D01*
X156567969Y-90652588D01*
X156585419Y-90675330D01*
X156585422Y-90675333D01*
X156589436Y-90680564D01*
X156715545Y-90777331D01*
X156862403Y-90838161D01*
X156868939Y-90839021D01*
X156868941Y-90839022D01*
X157013460Y-90858048D01*
X157020000Y-90858909D01*
X157026540Y-90858048D01*
X157171059Y-90839022D01*
X157171061Y-90839021D01*
X157177597Y-90838161D01*
X157324455Y-90777331D01*
X157450564Y-90680564D01*
X157454702Y-90675172D01*
X157505890Y-90608461D01*
X157547331Y-90554454D01*
X157608161Y-90407597D01*
X157616793Y-90342035D01*
X157628048Y-90256540D01*
X157628909Y-90250000D01*
X157620374Y-90185169D01*
X157609022Y-90098941D01*
X157609021Y-90098939D01*
X157608161Y-90092403D01*
X157569927Y-90000097D01*
X157549854Y-89951636D01*
X157549852Y-89951633D01*
X157547331Y-89945546D01*
X157450564Y-89819436D01*
X157324455Y-89722669D01*
X157177597Y-89661839D01*
X157171061Y-89660979D01*
X157171059Y-89660978D01*
X157026540Y-89641952D01*
X157020000Y-89641091D01*
X157013460Y-89641952D01*
X156868941Y-89660978D01*
X156868939Y-89660979D01*
X156862403Y-89661839D01*
X156778112Y-89696753D01*
X156721636Y-89720146D01*
X156721633Y-89720148D01*
X156715546Y-89722669D01*
X156589436Y-89819436D01*
X156557104Y-89861572D01*
X156505868Y-89896786D01*
X156483873Y-89900714D01*
X156402728Y-89906030D01*
X156399495Y-89906673D01*
X156211241Y-89944115D01*
X156211238Y-89944116D01*
X156208004Y-89944759D01*
X156204885Y-89945818D01*
X156204884Y-89945818D01*
X156023115Y-90007517D01*
X156023111Y-90007519D01*
X156020002Y-90008574D01*
X155933109Y-90051423D01*
X155844889Y-90094927D01*
X155844886Y-90094929D01*
X155841937Y-90096383D01*
X155839204Y-90098209D01*
X155839199Y-90098212D01*
X155828223Y-90105546D01*
X155676858Y-90206684D01*
X155674379Y-90208858D01*
X155540356Y-90326392D01*
X155533192Y-90332116D01*
X155533180Y-90332128D01*
X155526779Y-90336779D01*
X155522960Y-90342035D01*
X155520158Y-90345066D01*
X155520133Y-90345079D01*
X155519291Y-90345956D01*
X155518934Y-90346390D01*
X155408840Y-90465490D01*
X155275346Y-90609903D01*
X155045535Y-90901416D01*
X154839305Y-91210062D01*
X154657926Y-91533936D01*
X154502518Y-91871043D01*
X154501841Y-91872877D01*
X154501836Y-91872890D01*
X154418456Y-92098900D01*
X154374037Y-92219303D01*
X154373499Y-92221211D01*
X154282497Y-92543881D01*
X154273277Y-92576571D01*
X154272891Y-92578512D01*
X154272889Y-92578520D01*
X154263867Y-92623876D01*
X154200858Y-92940643D01*
X154157227Y-93309274D01*
X154143137Y-93667868D01*
X154143083Y-93668411D01*
X154143064Y-93669380D01*
X154143074Y-93669456D01*
X154142904Y-93673794D01*
X154141891Y-93680192D01*
X154143129Y-93688009D01*
X154143129Y-93688015D01*
X154145061Y-93700213D01*
X154146300Y-93715950D01*
X154146300Y-94070846D01*
X154127087Y-94129977D01*
X154106942Y-94150657D01*
X154069436Y-94179436D01*
X153972669Y-94305546D01*
X153970148Y-94311633D01*
X153970146Y-94311636D01*
X153946753Y-94368112D01*
X153911839Y-94452403D01*
X153910979Y-94458939D01*
X153910978Y-94458941D01*
X153905608Y-94499731D01*
X153891091Y-94610000D01*
X152631607Y-94610000D01*
X152618406Y-94500911D01*
X152613549Y-94488056D01*
X152560346Y-94347260D01*
X152560345Y-94347259D01*
X152558201Y-94341584D01*
X152461730Y-94201217D01*
X152371087Y-94120457D01*
X152339090Y-94091949D01*
X152339089Y-94091948D01*
X152334561Y-94087914D01*
X152298667Y-94068909D01*
X152255399Y-94024260D01*
X152246639Y-93962706D01*
X152252800Y-93941501D01*
X152262522Y-93918032D01*
X152275649Y-93895294D01*
X152287092Y-93880381D01*
X152296692Y-93871399D01*
X152295776Y-93870483D01*
X152302001Y-93864258D01*
X152309210Y-93859210D01*
X152313412Y-93853209D01*
X152315536Y-93850722D01*
X152315954Y-93850304D01*
X152316548Y-93849537D01*
X152359125Y-93799686D01*
X152441137Y-93703661D01*
X152450725Y-93688015D01*
X152545611Y-93533173D01*
X152545613Y-93533168D01*
X152547675Y-93529804D01*
X152601383Y-93400138D01*
X152624193Y-93345069D01*
X152624195Y-93345064D01*
X152625704Y-93341420D01*
X152671485Y-93150718D01*
X152672380Y-93146991D01*
X152672381Y-93146987D01*
X152673302Y-93143149D01*
X152678037Y-93082967D01*
X152684348Y-93002769D01*
X152684756Y-93000214D01*
X152684673Y-93000206D01*
X152685060Y-92996258D01*
X152685300Y-92993811D01*
X152685300Y-92991350D01*
X152685316Y-92991023D01*
X152685506Y-92988044D01*
X152686869Y-92970724D01*
X152688343Y-92951990D01*
X152688483Y-92950892D01*
X152688483Y-92950211D01*
X152688721Y-92947186D01*
X152690010Y-92939872D01*
X152686829Y-92921833D01*
X152685300Y-92904363D01*
X152685300Y-90741912D01*
X152686828Y-90724443D01*
X152688482Y-90715063D01*
X152690010Y-90706397D01*
X152688482Y-90697730D01*
X152688482Y-90690246D01*
X152687758Y-90675172D01*
X152699836Y-90521701D01*
X152702306Y-90506109D01*
X152743707Y-90333666D01*
X152748585Y-90318653D01*
X152816452Y-90154806D01*
X152823619Y-90140740D01*
X152849234Y-90098941D01*
X152916282Y-89989530D01*
X152925559Y-89976760D01*
X153025545Y-89859692D01*
X153036691Y-89849568D01*
X153042000Y-89844259D01*
X153049210Y-89839210D01*
X153053653Y-89832864D01*
X153060002Y-89828419D01*
X153065053Y-89821206D01*
X153066411Y-89819848D01*
X153069401Y-89816039D01*
X153202581Y-89664180D01*
X153202583Y-89664177D01*
X153204753Y-89661703D01*
X153206580Y-89658969D01*
X153325549Y-89480922D01*
X153325552Y-89480917D01*
X153327376Y-89478187D01*
X153338928Y-89454763D01*
X153423541Y-89283190D01*
X153423543Y-89283186D01*
X153424997Y-89280237D01*
X153437004Y-89244869D01*
X153494888Y-89074354D01*
X153495946Y-89071238D01*
X153539007Y-88854766D01*
X153552444Y-88649809D01*
X153553003Y-88645174D01*
X153553003Y-88643191D01*
X153554531Y-88634526D01*
X153551349Y-88616478D01*
X153549821Y-88599011D01*
X153549821Y-88091109D01*
X153569034Y-88031978D01*
X153585087Y-88014612D01*
X153613648Y-87990219D01*
X153614703Y-87989318D01*
X155291171Y-87989318D01*
X155291836Y-87995342D01*
X155291836Y-87995346D01*
X155302296Y-88090087D01*
X155309861Y-88158612D01*
X155368394Y-88318560D01*
X155371780Y-88323599D01*
X155434958Y-88417618D01*
X155463390Y-88459930D01*
X155589366Y-88574559D01*
X155594693Y-88577451D01*
X155594694Y-88577452D01*
X155601422Y-88581105D01*
X155739048Y-88655830D01*
X155744918Y-88657370D01*
X155897928Y-88697511D01*
X155897931Y-88697511D01*
X155903796Y-88699050D01*
X155986710Y-88700353D01*
X156068033Y-88701631D01*
X156068035Y-88701631D01*
X156074097Y-88701726D01*
X156080008Y-88700372D01*
X156080010Y-88700372D01*
X156234210Y-88665055D01*
X156234213Y-88665054D01*
X156240120Y-88663701D01*
X156392282Y-88587172D01*
X156396894Y-88583233D01*
X156396897Y-88583231D01*
X156517184Y-88480496D01*
X156521796Y-88476557D01*
X156532765Y-88461292D01*
X156582873Y-88424484D01*
X156638903Y-88422411D01*
X156794124Y-88461292D01*
X156857368Y-88477134D01*
X156866815Y-88480000D01*
X157131933Y-88574861D01*
X157141049Y-88578636D01*
X157395611Y-88699034D01*
X157404293Y-88703674D01*
X157645835Y-88848448D01*
X157654039Y-88853930D01*
X157711615Y-88896631D01*
X157880206Y-89021666D01*
X157887835Y-89027927D01*
X157935622Y-89071238D01*
X158076670Y-89199076D01*
X158090498Y-89214485D01*
X158097023Y-89223466D01*
X158113425Y-89235382D01*
X158125420Y-89245628D01*
X159064962Y-90185169D01*
X159064967Y-90185175D01*
X159098350Y-90218558D01*
X159108599Y-90230558D01*
X159115861Y-90240552D01*
X159115863Y-90240554D01*
X159120517Y-90246959D01*
X159126921Y-90251611D01*
X159126950Y-90251640D01*
X159133048Y-90256446D01*
X159151891Y-90272538D01*
X159157695Y-90277903D01*
X159324722Y-90444930D01*
X159353326Y-90502933D01*
X159357983Y-90538312D01*
X159360109Y-90554454D01*
X159361839Y-90567597D01*
X159378956Y-90608921D01*
X159419332Y-90706397D01*
X159422669Y-90714454D01*
X159519436Y-90840564D01*
X159645545Y-90937331D01*
X159653900Y-90940792D01*
X159655232Y-90941929D01*
X159657348Y-90943151D01*
X159657122Y-90943543D01*
X159701178Y-90981169D01*
X159715693Y-91041625D01*
X159714070Y-91053361D01*
X159705800Y-91094936D01*
X159705800Y-91624200D01*
X159686587Y-91683331D01*
X159640020Y-91718581D01*
X159589266Y-91737305D01*
X159535155Y-91757267D01*
X159535145Y-91757271D01*
X159533294Y-91757954D01*
X159191052Y-91915728D01*
X158862244Y-92099867D01*
X158548897Y-92309237D01*
X158547347Y-92310459D01*
X158547340Y-92310464D01*
X158547094Y-92310658D01*
X158252942Y-92542546D01*
X157984925Y-92790293D01*
X157984852Y-92790354D01*
X157984650Y-92790548D01*
X157980577Y-92794313D01*
X157975704Y-92797854D01*
X157971052Y-92804257D01*
X157970323Y-92805260D01*
X157956495Y-92820667D01*
X157929788Y-92844873D01*
X157929787Y-92844875D01*
X157923601Y-92850481D01*
X157921682Y-92851875D01*
X157917027Y-92858282D01*
X157909769Y-92868272D01*
X157899517Y-92880276D01*
X157489825Y-93289968D01*
X157055987Y-93723807D01*
X157043990Y-93734054D01*
X157027585Y-93745973D01*
X157022931Y-93752379D01*
X157017331Y-93757979D01*
X157017182Y-93757830D01*
X157007415Y-93768191D01*
X156977522Y-93792724D01*
X156919624Y-93815385D01*
X156859465Y-93799686D01*
X156852463Y-93794772D01*
X156841295Y-93786203D01*
X156841292Y-93786201D01*
X156836063Y-93782189D01*
X156829976Y-93779668D01*
X156829973Y-93779666D01*
X156708625Y-93729403D01*
X156689205Y-93721359D01*
X156682669Y-93720499D01*
X156682667Y-93720498D01*
X156538148Y-93701472D01*
X156531608Y-93700611D01*
X156525068Y-93701472D01*
X156380549Y-93720498D01*
X156380547Y-93720499D01*
X156374011Y-93721359D01*
X156289720Y-93756273D01*
X156233244Y-93779666D01*
X156233241Y-93779668D01*
X156227154Y-93782189D01*
X156101044Y-93878956D01*
X156004277Y-94005066D01*
X156001756Y-94011153D01*
X156001754Y-94011156D01*
X155979972Y-94063743D01*
X155943447Y-94151923D01*
X155942587Y-94158459D01*
X155942586Y-94158461D01*
X155928647Y-94264342D01*
X155922699Y-94309520D01*
X155923560Y-94316060D01*
X155942371Y-94458941D01*
X155943447Y-94467117D01*
X156004277Y-94613974D01*
X156101044Y-94740084D01*
X156227153Y-94836851D01*
X156374011Y-94897681D01*
X156380547Y-94898541D01*
X156380549Y-94898542D01*
X156525068Y-94917568D01*
X156531608Y-94918429D01*
X156538148Y-94917568D01*
X156682667Y-94898542D01*
X156682669Y-94898541D01*
X156689205Y-94897681D01*
X156836063Y-94836851D01*
X156962172Y-94740084D01*
X157058939Y-94613974D01*
X157069597Y-94588243D01*
X157109976Y-94540966D01*
X157118044Y-94536517D01*
X157236789Y-94477957D01*
X157236791Y-94477956D01*
X157239739Y-94476502D01*
X157393773Y-94373578D01*
X157482270Y-94295967D01*
X157486359Y-94292880D01*
X157487002Y-94292571D01*
X157490985Y-94289223D01*
X157495974Y-94284234D01*
X157500778Y-94279735D01*
X157518330Y-94264342D01*
X157525528Y-94258590D01*
X157527630Y-94257063D01*
X157527631Y-94257062D01*
X157534035Y-94252409D01*
X157545949Y-94236011D01*
X157556201Y-94224007D01*
X158399726Y-93380482D01*
X158411730Y-93370230D01*
X158421717Y-93362974D01*
X158428124Y-93358319D01*
X158434031Y-93350189D01*
X158448378Y-93334315D01*
X158453058Y-93330133D01*
X158481195Y-93304987D01*
X158481333Y-93305141D01*
X158482906Y-93304338D01*
X158482469Y-93303849D01*
X158649615Y-93154479D01*
X158658435Y-93147446D01*
X158659077Y-93146991D01*
X158809428Y-93040311D01*
X158899484Y-92976413D01*
X158909036Y-92970410D01*
X159093842Y-92868272D01*
X159167743Y-92827428D01*
X159177904Y-92822536D01*
X159450977Y-92709426D01*
X159461619Y-92705702D01*
X159745648Y-92623874D01*
X159756630Y-92621367D01*
X159940530Y-92590121D01*
X159957382Y-92588700D01*
X162850564Y-92588700D01*
X162909980Y-92576881D01*
X162977360Y-92531860D01*
X163022381Y-92464480D01*
X163034200Y-92405064D01*
X163034200Y-91094936D01*
X163022381Y-91035520D01*
X162977360Y-90968140D01*
X162909980Y-90923119D01*
X162850564Y-90911300D01*
X160530283Y-90911300D01*
X160471152Y-90892087D01*
X160434607Y-90841787D01*
X160434607Y-90779613D01*
X160450471Y-90749459D01*
X160456263Y-90741910D01*
X160477331Y-90714454D01*
X160480669Y-90706397D01*
X160521044Y-90608921D01*
X160538161Y-90567597D01*
X160539892Y-90554454D01*
X160558048Y-90416540D01*
X160558909Y-90410000D01*
X160550535Y-90346390D01*
X160539022Y-90258941D01*
X160539021Y-90258939D01*
X160538161Y-90252403D01*
X160477331Y-90105546D01*
X160402111Y-90007517D01*
X160384578Y-89984667D01*
X160384577Y-89984666D01*
X160380564Y-89979436D01*
X160254455Y-89882669D01*
X160107597Y-89821839D01*
X160101061Y-89820979D01*
X160101059Y-89820978D01*
X159956540Y-89801952D01*
X159950000Y-89801091D01*
X159792403Y-89821839D01*
X159791918Y-89822040D01*
X159732391Y-89818921D01*
X159721022Y-89813725D01*
X159696029Y-89800367D01*
X159679634Y-89789413D01*
X159669177Y-89780832D01*
X159647127Y-89762737D01*
X159637333Y-89752350D01*
X159637187Y-89752496D01*
X159631588Y-89746897D01*
X159626935Y-89740493D01*
X159620533Y-89735842D01*
X159620531Y-89735840D01*
X159610545Y-89728586D01*
X159598538Y-89718331D01*
X158625630Y-88745423D01*
X158615378Y-88733419D01*
X158608120Y-88723429D01*
X158603465Y-88717022D01*
X158597059Y-88712368D01*
X158594805Y-88710114D01*
X158592778Y-88708458D01*
X158587563Y-88703679D01*
X158366068Y-88500717D01*
X158269548Y-88426655D01*
X159705150Y-88426655D01*
X159705731Y-88428787D01*
X159705800Y-88429894D01*
X159705800Y-89405065D01*
X159717619Y-89464481D01*
X159762640Y-89531861D01*
X159830020Y-89576882D01*
X159889436Y-89588701D01*
X162850564Y-89588701D01*
X162909980Y-89576882D01*
X162977360Y-89531861D01*
X163022381Y-89464481D01*
X163034200Y-89405065D01*
X163034200Y-88094937D01*
X163022381Y-88035521D01*
X162977360Y-87968141D01*
X162909980Y-87923120D01*
X162850564Y-87911301D01*
X162524157Y-87911301D01*
X162514298Y-87910817D01*
X162465844Y-87906045D01*
X162446505Y-87902198D01*
X162355838Y-87874693D01*
X162337618Y-87867146D01*
X162254059Y-87822482D01*
X162237662Y-87811525D01*
X162183449Y-87767033D01*
X162173481Y-87756487D01*
X162173228Y-87756734D01*
X162168222Y-87751604D01*
X162163995Y-87745818D01*
X162140870Y-87728041D01*
X162131047Y-87719419D01*
X162107500Y-87695872D01*
X162079274Y-87640474D01*
X162078340Y-87617467D01*
X162078713Y-87614845D01*
X162078868Y-87600000D01*
X162063519Y-87473161D01*
X162059135Y-87436933D01*
X162059134Y-87436931D01*
X162058406Y-87430911D01*
X162053549Y-87418056D01*
X162000346Y-87277260D01*
X162000345Y-87277259D01*
X161998201Y-87271584D01*
X161901730Y-87131217D01*
X161774561Y-87017914D01*
X161624036Y-86938215D01*
X161458845Y-86896722D01*
X161452788Y-86896690D01*
X161452786Y-86896690D01*
X161369622Y-86896255D01*
X161288525Y-86895830D01*
X161282629Y-86897246D01*
X161282625Y-86897246D01*
X161128806Y-86934175D01*
X161122908Y-86935591D01*
X161117522Y-86938371D01*
X161117519Y-86938372D01*
X160976945Y-87010928D01*
X160971557Y-87013709D01*
X160938442Y-87042597D01*
X160847780Y-87121686D01*
X160847778Y-87121689D01*
X160843208Y-87125675D01*
X160839720Y-87130638D01*
X160839719Y-87130639D01*
X160798383Y-87189454D01*
X160745272Y-87265024D01*
X160743069Y-87270673D01*
X160743068Y-87270676D01*
X160687839Y-87412331D01*
X160683402Y-87423712D01*
X160661171Y-87592577D01*
X160661836Y-87598601D01*
X160661836Y-87598602D01*
X160663289Y-87611768D01*
X160650679Y-87672650D01*
X160634431Y-87693940D01*
X160620816Y-87707555D01*
X160609023Y-87717654D01*
X160591008Y-87730814D01*
X160586643Y-87736492D01*
X160584141Y-87739747D01*
X160568202Y-87756200D01*
X160505758Y-87807444D01*
X160489361Y-87818400D01*
X160481724Y-87822482D01*
X160401624Y-87865294D01*
X160383411Y-87872838D01*
X160308035Y-87895702D01*
X160288206Y-87901717D01*
X160268865Y-87905564D01*
X160215527Y-87910817D01*
X160205667Y-87911301D01*
X159889436Y-87911301D01*
X159830020Y-87923120D01*
X159762640Y-87968141D01*
X159717619Y-88035521D01*
X159705800Y-88094937D01*
X159705800Y-88390267D01*
X159705783Y-88392110D01*
X159705316Y-88417618D01*
X159705150Y-88426655D01*
X158269548Y-88426655D01*
X158113048Y-88306569D01*
X158113041Y-88306564D01*
X158111305Y-88305232D01*
X157840474Y-88132694D01*
X157782739Y-88102639D01*
X157557591Y-87985435D01*
X157557587Y-87985433D01*
X157555635Y-87984417D01*
X157381446Y-87912266D01*
X157260996Y-87862374D01*
X157260993Y-87862373D01*
X157258958Y-87861530D01*
X156952699Y-87764967D01*
X156950560Y-87764493D01*
X156950557Y-87764492D01*
X156686918Y-87706045D01*
X156633347Y-87674490D01*
X156625785Y-87664810D01*
X156622329Y-87659781D01*
X156531730Y-87527958D01*
X156467394Y-87470637D01*
X156409090Y-87418690D01*
X156409089Y-87418689D01*
X156404561Y-87414655D01*
X156254036Y-87334956D01*
X156088845Y-87293463D01*
X156082788Y-87293431D01*
X156082786Y-87293431D01*
X155999622Y-87292996D01*
X155918525Y-87292571D01*
X155912629Y-87293987D01*
X155912625Y-87293987D01*
X155785447Y-87324520D01*
X155752908Y-87332332D01*
X155747522Y-87335112D01*
X155747519Y-87335113D01*
X155606945Y-87407669D01*
X155601557Y-87410450D01*
X155584604Y-87425239D01*
X155477780Y-87518427D01*
X155477778Y-87518430D01*
X155473208Y-87522416D01*
X155469720Y-87527379D01*
X155469719Y-87527380D01*
X155378760Y-87656802D01*
X155375272Y-87661765D01*
X155373069Y-87667414D01*
X155373068Y-87667417D01*
X155315607Y-87814797D01*
X155313402Y-87820453D01*
X155291171Y-87989318D01*
X153614703Y-87989318D01*
X153618260Y-87986280D01*
X153665034Y-87921187D01*
X153714113Y-87852887D01*
X153714115Y-87852884D01*
X153717650Y-87847964D01*
X153761153Y-87739747D01*
X153778916Y-87695561D01*
X153778917Y-87695558D01*
X153781178Y-87689933D01*
X153782534Y-87680410D01*
X153804712Y-87524575D01*
X153805177Y-87521309D01*
X153805332Y-87506464D01*
X153784870Y-87337375D01*
X153782430Y-87330916D01*
X153726810Y-87183724D01*
X153726809Y-87183723D01*
X153724665Y-87178048D01*
X153628194Y-87037681D01*
X153516732Y-86938372D01*
X153505554Y-86928413D01*
X153505553Y-86928412D01*
X153501025Y-86924378D01*
X153426653Y-86885000D01*
X159156091Y-86885000D01*
X159156952Y-86891540D01*
X159175661Y-87033646D01*
X159176839Y-87042597D01*
X159209599Y-87121686D01*
X159228172Y-87166525D01*
X159237669Y-87189454D01*
X159309259Y-87282753D01*
X159316818Y-87292603D01*
X159334436Y-87315564D01*
X159460545Y-87412331D01*
X159607403Y-87473161D01*
X159613939Y-87474021D01*
X159613941Y-87474022D01*
X159758460Y-87493048D01*
X159765000Y-87493909D01*
X159771540Y-87493048D01*
X159916059Y-87474022D01*
X159916061Y-87474021D01*
X159922597Y-87473161D01*
X160069455Y-87412331D01*
X160195564Y-87315564D01*
X160213183Y-87292603D01*
X160220741Y-87282753D01*
X160292331Y-87189454D01*
X160301829Y-87166525D01*
X160320401Y-87121686D01*
X160353161Y-87042597D01*
X160354022Y-87036059D01*
X160364491Y-86956538D01*
X160393095Y-86898534D01*
X160673463Y-86618167D01*
X160728861Y-86589941D01*
X160744598Y-86588702D01*
X162850564Y-86588702D01*
X162909980Y-86576883D01*
X162977360Y-86531862D01*
X163022381Y-86464482D01*
X163034200Y-86405066D01*
X163034200Y-85094938D01*
X163022381Y-85035522D01*
X162977360Y-84968142D01*
X162909980Y-84923121D01*
X162850564Y-84911302D01*
X159889436Y-84911302D01*
X159830020Y-84923121D01*
X159762640Y-84968142D01*
X159717619Y-85035522D01*
X159705800Y-85094938D01*
X159705800Y-86195661D01*
X159686587Y-86254792D01*
X159636287Y-86291337D01*
X159618335Y-86295400D01*
X159607403Y-86296839D01*
X159523112Y-86331753D01*
X159466636Y-86355146D01*
X159466633Y-86355148D01*
X159460546Y-86357669D01*
X159334436Y-86454436D01*
X159237669Y-86580546D01*
X159235148Y-86586633D01*
X159235146Y-86586636D01*
X159233777Y-86589941D01*
X159176839Y-86727403D01*
X159175979Y-86733939D01*
X159175978Y-86733941D01*
X159161931Y-86840639D01*
X159156091Y-86885000D01*
X153426653Y-86885000D01*
X153350500Y-86844679D01*
X153185309Y-86803186D01*
X153179252Y-86803154D01*
X153179250Y-86803154D01*
X153096086Y-86802719D01*
X153014989Y-86802294D01*
X153009093Y-86803710D01*
X153009089Y-86803710D01*
X152855270Y-86840639D01*
X152849372Y-86842055D01*
X152843986Y-86844835D01*
X152843983Y-86844836D01*
X152742441Y-86897246D01*
X152698021Y-86920173D01*
X152677339Y-86938215D01*
X152574244Y-87028150D01*
X152574242Y-87028153D01*
X152569672Y-87032139D01*
X152471736Y-87171488D01*
X152469533Y-87177137D01*
X152469532Y-87177140D01*
X152423604Y-87294940D01*
X152409866Y-87330176D01*
X152387635Y-87499041D01*
X152388300Y-87505065D01*
X152388300Y-87505069D01*
X152398781Y-87600000D01*
X152406325Y-87668335D01*
X152408411Y-87674035D01*
X152409795Y-87679937D01*
X152407777Y-87680410D01*
X152409725Y-87733533D01*
X152375048Y-87785139D01*
X152325060Y-87805844D01*
X152257702Y-87813995D01*
X152257700Y-87813996D01*
X152251680Y-87814724D01*
X152246010Y-87816867D01*
X152246008Y-87816867D01*
X152098745Y-87872513D01*
X152098743Y-87872514D01*
X152093077Y-87874655D01*
X151953349Y-87970688D01*
X151840560Y-88097279D01*
X151761224Y-88247119D01*
X151719919Y-88411559D01*
X151719887Y-88417616D01*
X151719887Y-88417618D01*
X151719558Y-88480496D01*
X151719031Y-88581105D01*
X151720447Y-88587002D01*
X151720447Y-88587004D01*
X151753201Y-88723429D01*
X151758612Y-88745968D01*
X151836375Y-88896631D01*
X151947831Y-89024396D01*
X151952794Y-89027884D01*
X151952795Y-89027885D01*
X152018914Y-89074354D01*
X152086547Y-89121887D01*
X152092197Y-89124090D01*
X152092199Y-89124091D01*
X152238857Y-89181271D01*
X152238859Y-89181271D01*
X152244513Y-89183476D01*
X152373826Y-89200500D01*
X152462516Y-89200500D01*
X152556782Y-89189093D01*
X152571149Y-89187354D01*
X152632160Y-89199324D01*
X152674484Y-89244869D01*
X152681953Y-89306593D01*
X152659733Y-89352558D01*
X152645253Y-89369512D01*
X152634087Y-89379654D01*
X152628795Y-89384946D01*
X152621584Y-89389995D01*
X152617137Y-89396346D01*
X152610790Y-89400790D01*
X152606797Y-89406492D01*
X152603589Y-89410150D01*
X152603386Y-89410353D01*
X152603175Y-89410622D01*
X152555942Y-89464481D01*
X152452146Y-89582838D01*
X152318019Y-89783573D01*
X152316561Y-89786530D01*
X152316559Y-89786533D01*
X152280481Y-89859692D01*
X152211241Y-90000097D01*
X152207870Y-90010029D01*
X152140376Y-90208858D01*
X152133638Y-90228707D01*
X152132995Y-90231938D01*
X152132995Y-90231939D01*
X152090628Y-90444930D01*
X152086538Y-90465490D01*
X152086323Y-90468772D01*
X152071555Y-90694077D01*
X152071517Y-90694392D01*
X152071517Y-90694656D01*
X152071196Y-90699553D01*
X152069990Y-90706395D01*
X152072333Y-90719682D01*
X152073172Y-90724441D01*
X152074700Y-90741910D01*
X152074700Y-92904371D01*
X152073172Y-92921838D01*
X152071521Y-92931205D01*
X152069990Y-92939886D01*
X152071519Y-92948554D01*
X152071519Y-92957355D01*
X152071143Y-92957355D01*
X152071653Y-92970724D01*
X152062505Y-93063624D01*
X152058657Y-93082967D01*
X152025441Y-93192469D01*
X152017895Y-93210689D01*
X151963952Y-93311612D01*
X151952999Y-93328004D01*
X151893796Y-93400144D01*
X151883960Y-93409255D01*
X151884223Y-93409518D01*
X151878000Y-93415741D01*
X151870790Y-93420790D01*
X151865741Y-93428001D01*
X151861113Y-93434610D01*
X151855204Y-93442243D01*
X151785216Y-93524188D01*
X151715180Y-93638472D01*
X151663884Y-93762304D01*
X151662961Y-93766148D01*
X151642754Y-93850304D01*
X151632589Y-93892636D01*
X151632279Y-93896574D01*
X151632277Y-93896586D01*
X151627669Y-93955097D01*
X151626340Y-93963408D01*
X151625327Y-93965947D01*
X151624700Y-93972342D01*
X151624700Y-93974802D01*
X151624580Y-93977255D01*
X151623768Y-93977215D01*
X151623146Y-93979130D01*
X151622956Y-93979912D01*
X151622897Y-93979898D01*
X151605487Y-94033479D01*
X151570241Y-94063743D01*
X151531557Y-94083709D01*
X151513019Y-94099881D01*
X151407780Y-94191686D01*
X151407778Y-94191689D01*
X151403208Y-94195675D01*
X151399720Y-94200638D01*
X151399719Y-94200639D01*
X151357087Y-94261298D01*
X151305272Y-94335024D01*
X151303069Y-94340673D01*
X151303068Y-94340676D01*
X151245607Y-94488056D01*
X151243402Y-94493712D01*
X151221171Y-94662577D01*
X150453700Y-94662577D01*
X150453700Y-85581105D01*
X151719031Y-85581105D01*
X151758612Y-85745968D01*
X151761392Y-85751354D01*
X151761393Y-85751357D01*
X151833595Y-85891245D01*
X151836375Y-85896631D01*
X151840357Y-85901196D01*
X151840358Y-85901197D01*
X151845639Y-85907250D01*
X151947831Y-86024396D01*
X151952794Y-86027884D01*
X151952795Y-86027885D01*
X151959710Y-86032745D01*
X152086547Y-86121887D01*
X152092197Y-86124090D01*
X152092199Y-86124091D01*
X152238857Y-86181271D01*
X152238859Y-86181271D01*
X152244513Y-86183476D01*
X152373826Y-86200500D01*
X152462516Y-86200500D01*
X152541418Y-86190952D01*
X152582298Y-86186005D01*
X152582300Y-86186004D01*
X152588320Y-86185276D01*
X152593990Y-86183133D01*
X152593992Y-86183133D01*
X152741255Y-86127487D01*
X152741257Y-86127486D01*
X152746923Y-86125345D01*
X152886651Y-86029312D01*
X152999440Y-85902721D01*
X153002665Y-85896631D01*
X153075937Y-85758243D01*
X153078776Y-85752881D01*
X153120081Y-85588441D01*
X153120120Y-85581105D01*
X153120937Y-85424959D01*
X153120969Y-85418895D01*
X153081388Y-85254032D01*
X153075053Y-85241757D01*
X153006405Y-85108755D01*
X153003625Y-85103369D01*
X152999642Y-85098803D01*
X152896156Y-84980174D01*
X152896154Y-84980173D01*
X152892169Y-84975604D01*
X152885175Y-84970688D01*
X152758416Y-84881601D01*
X152753453Y-84878113D01*
X152747803Y-84875910D01*
X152747801Y-84875909D01*
X152601143Y-84818729D01*
X152601141Y-84818729D01*
X152595487Y-84816524D01*
X152466174Y-84799500D01*
X152377484Y-84799500D01*
X152298582Y-84809048D01*
X152257702Y-84813995D01*
X152257700Y-84813996D01*
X152251680Y-84814724D01*
X152246010Y-84816867D01*
X152246008Y-84816867D01*
X152098745Y-84872513D01*
X152098743Y-84872514D01*
X152093077Y-84874655D01*
X151953349Y-84970688D01*
X151840560Y-85097279D01*
X151837722Y-85102639D01*
X151834484Y-85108755D01*
X151761224Y-85247119D01*
X151719919Y-85411559D01*
X151719887Y-85417616D01*
X151719887Y-85417618D01*
X151719849Y-85424959D01*
X151719031Y-85581105D01*
X150453700Y-85581105D01*
X150453700Y-83792498D01*
X154192278Y-83792498D01*
X154192361Y-83804426D01*
X154216103Y-83874167D01*
X154220863Y-83884282D01*
X154309487Y-84028338D01*
X154316364Y-84037140D01*
X154434696Y-84157978D01*
X154443362Y-84165046D01*
X154585525Y-84256663D01*
X154595535Y-84261632D01*
X154754465Y-84319477D01*
X154765329Y-84322106D01*
X154895921Y-84338603D01*
X154902228Y-84339000D01*
X155630067Y-84339000D01*
X155642957Y-84334812D01*
X155646000Y-84330623D01*
X155646000Y-84323067D01*
X156154000Y-84323067D01*
X156158188Y-84335957D01*
X156162377Y-84339000D01*
X156892544Y-84339000D01*
X156898143Y-84338687D01*
X157023660Y-84324608D01*
X157034567Y-84322130D01*
X157194280Y-84266512D01*
X157204365Y-84261680D01*
X157347791Y-84172058D01*
X157356556Y-84165110D01*
X157476563Y-84045939D01*
X157483566Y-84037228D01*
X157574189Y-83894430D01*
X157579090Y-83884382D01*
X157607708Y-83804011D01*
X157608017Y-83792955D01*
X157596400Y-83789000D01*
X156169933Y-83789000D01*
X156157043Y-83793188D01*
X156154000Y-83797377D01*
X156154000Y-84323067D01*
X155646000Y-84323067D01*
X155646000Y-83804933D01*
X155641812Y-83792043D01*
X155637623Y-83789000D01*
X154203043Y-83789000D01*
X154192278Y-83792498D01*
X150453700Y-83792498D01*
X150453700Y-83277045D01*
X154191983Y-83277045D01*
X154203600Y-83281000D01*
X155630067Y-83281000D01*
X155642957Y-83276812D01*
X155646000Y-83272623D01*
X155646000Y-83265067D01*
X156154000Y-83265067D01*
X156158188Y-83277957D01*
X156162377Y-83281000D01*
X157596957Y-83281000D01*
X157607722Y-83277502D01*
X157607639Y-83265574D01*
X157583897Y-83195833D01*
X157579137Y-83185718D01*
X157490513Y-83041662D01*
X157483636Y-83032860D01*
X157365304Y-82912022D01*
X157356638Y-82904954D01*
X157214475Y-82813337D01*
X157204465Y-82808368D01*
X157045535Y-82750523D01*
X157034671Y-82747894D01*
X156904079Y-82731397D01*
X156897772Y-82731000D01*
X156169933Y-82731000D01*
X156157043Y-82735188D01*
X156154000Y-82739377D01*
X156154000Y-83265067D01*
X155646000Y-83265067D01*
X155646000Y-82746933D01*
X155641812Y-82734043D01*
X155637623Y-82731000D01*
X154907456Y-82731000D01*
X154901857Y-82731313D01*
X154776340Y-82745392D01*
X154765433Y-82747870D01*
X154605720Y-82803488D01*
X154595635Y-82808320D01*
X154452209Y-82897942D01*
X154443444Y-82904890D01*
X154323437Y-83024061D01*
X154316434Y-83032772D01*
X154225811Y-83175570D01*
X154220910Y-83185618D01*
X154192292Y-83265989D01*
X154191983Y-83277045D01*
X150453700Y-83277045D01*
X150453700Y-82304300D01*
X150472913Y-82245169D01*
X150523213Y-82208624D01*
X150554300Y-82203700D01*
X163445700Y-82203700D01*
X163504831Y-82222913D01*
G37*
%TD.AperFunction*%
%TD*%
M02*
